<svg width="473" height="973" viewBox="0 0 473 973" fill="none" xmlns="http://www.w3.org/2000/svg">
<g filter="url(#filter0_d_102_64)">
<rect x="49" y="50" width="375" height="868" rx="80" fill="#FCFDFF"/>
</g>
<path d="M87.7838 138.345L91.7397 152.656L91.978 153.519L92.7796 153.916L105.062 160L92.7796 166.084L91.978 166.481L91.7397 167.344L87.7838 181.655L83.8279 167.344L83.5896 166.481L82.788 166.084L70.5056 160L82.788 153.916L83.5896 153.519L83.8279 152.656L87.7838 138.345Z" stroke="#0B43F2" stroke-opacity="0.13" stroke-width="4"/>
<path d="M112.378 75.1547L115.422 84.0114L115.72 84.8795L116.573 85.2194L125.246 88.6757L116.573 92.132L115.72 92.4718L115.422 93.34L112.378 102.197L109.335 93.34L109.037 92.4718L108.184 92.132L99.5108 88.6757L108.184 85.2194L109.037 84.8795L109.335 84.0114L112.378 75.1547Z" stroke="#0B43F2" stroke-opacity="0.13" stroke-width="4"/>
<path d="M160.865 99.7072L168.496 118.887L168.836 119.74L169.704 120.039L189.854 126.973L169.704 133.907L168.836 134.206L168.496 135.059L160.865 154.239L153.234 135.059L152.894 134.206L152.026 133.907L131.876 126.973L152.026 120.039L152.894 119.74L153.234 118.887L160.865 99.7072Z" stroke="#0B43F2" stroke-opacity="0.13" stroke-width="4"/>
<g clip-path="url(#clip0_102_64)">
<path d="M315.848 0.919338C315.848 1.42716 315.436 1.83868 314.928 1.83868C314.412 1.84743 314 1.42716 314 0.919338C314 0.411513 314.412 0 314.92 0C315.428 0 315.848 0.411513 315.848 0.919338Z" fill="#0B43F2"/>
<path d="M327.339 1.83868C327.847 1.83868 328.259 1.42707 328.259 0.919338C328.259 0.411602 327.847 0 327.339 0C326.831 0 326.42 0.411602 326.42 0.919338C326.42 1.42707 326.831 1.83868 327.339 1.83868Z" fill="#0B43F2"/>
<path d="M339.75 1.83868C340.258 1.83868 340.67 1.42707 340.67 0.919338C340.67 0.411602 340.258 0 339.75 0C339.242 0 338.83 0.411602 338.83 0.919338C338.83 1.42707 339.242 1.83868 339.75 1.83868Z" fill="#0B43F2"/>
<path d="M353.089 0.919338C353.089 1.42716 352.678 1.83868 352.17 1.83868C351.662 1.83868 351.25 1.42716 351.25 0.919338C351.25 0.411513 351.662 0 352.17 0C352.678 0 353.089 0.411513 353.089 0.919338Z" fill="#0B43F2"/>
<path d="M364.58 1.83868C365.088 1.83868 365.5 1.42707 365.5 0.919338C365.5 0.411602 365.088 0 364.58 0C364.073 0 363.661 0.411602 363.661 0.919338C363.661 1.42707 364.073 1.83868 364.58 1.83868Z" fill="#0B43F2"/>
<path d="M377.92 0.919338C377.92 1.42716 377.508 1.83868 377 1.83868C376.492 1.83868 376.08 1.42716 376.08 0.919338C376.08 0.411513 376.492 0 377 0C377.508 0 377.92 0.411513 377.92 0.919338Z" fill="#0B43F2"/>
<path d="M390.339 0.919338C390.339 1.42716 389.928 1.83868 389.42 1.83868C388.912 1.83868 388.5 1.42716 388.5 0.919338C388.491 0.411513 388.903 0 389.411 0C389.928 0 390.339 0.411513 390.339 0.919338Z" fill="#0B43F2"/>
<path d="M401.83 1.83868C402.338 1.83868 402.75 1.42707 402.75 0.919338C402.75 0.411602 402.338 0 401.83 0C401.323 0 400.911 0.411602 400.911 0.919338C400.911 1.42707 401.323 1.83868 401.83 1.83868Z" fill="#0B43F2"/>
<path d="M414.25 1.83868C414.758 1.83868 415.17 1.42707 415.17 0.919338C415.17 0.411602 414.758 0 414.25 0C413.742 0 413.33 0.411602 413.33 0.919338C413.33 1.42707 413.742 1.83868 414.25 1.83868Z" fill="#0B43F2"/>
<path d="M427.58 0.919338C427.58 1.42716 427.169 1.83868 426.661 1.83868C426.153 1.83868 425.741 1.42716 425.741 0.919338C425.741 0.411513 426.153 0 426.661 0C427.169 0 427.58 0.411513 427.58 0.919338Z" fill="#0B43F2"/>
<path d="M439.08 1.83868C439.588 1.83868 440 1.42707 440 0.919338C440 0.411602 439.588 0 439.08 0C438.573 0 438.161 0.411602 438.161 0.919338C438.161 1.42707 438.573 1.83868 439.08 1.83868Z" fill="#0B43F2"/>
<path d="M315.848 13.4399C315.848 13.9477 315.436 14.3592 314.928 14.3592C314.412 14.3592 314 13.9477 314 13.4399C314 12.932 314.412 12.5205 314.92 12.5205C315.428 12.5118 315.848 12.932 315.848 13.4399Z" fill="#0B43F2"/>
<path d="M327.339 14.3592C327.847 14.3592 328.259 13.9476 328.259 13.4398C328.259 12.9321 327.847 12.5205 327.339 12.5205C326.831 12.5205 326.42 12.9321 326.42 13.4398C326.42 13.9476 326.831 14.3592 327.339 14.3592Z" fill="#0B43F2"/>
<path d="M339.75 14.3592C340.258 14.3592 340.67 13.9476 340.67 13.4398C340.67 12.9321 340.258 12.5205 339.75 12.5205C339.242 12.5205 338.83 12.9321 338.83 13.4398C338.83 13.9476 339.242 14.3592 339.75 14.3592Z" fill="#0B43F2"/>
<path d="M353.089 13.4399C353.089 13.9477 352.678 14.3592 352.17 14.3592C351.662 14.3592 351.25 13.9477 351.25 13.4399C351.25 12.932 351.662 12.5205 352.17 12.5205C352.678 12.5118 353.089 12.932 353.089 13.4399Z" fill="#0B43F2"/>
<path d="M364.58 14.3592C365.088 14.3592 365.5 13.9476 365.5 13.4398C365.5 12.9321 365.088 12.5205 364.58 12.5205C364.073 12.5205 363.661 12.9321 363.661 13.4398C363.661 13.9476 364.073 14.3592 364.58 14.3592Z" fill="#0B43F2"/>
<path d="M377.92 13.4399C377.92 13.9477 377.508 14.3592 377 14.3592C376.492 14.3592 376.08 13.9477 376.08 13.4399C376.08 12.932 376.492 12.5205 377 12.5205C377.508 12.5118 377.92 12.932 377.92 13.4399Z" fill="#0B43F2"/>
<path d="M390.339 13.4399C390.339 13.9477 389.928 14.3592 389.42 14.3592C388.912 14.3592 388.5 13.9477 388.5 13.4399C388.5 12.932 388.912 12.5205 389.42 12.5205C389.928 12.5118 390.339 12.932 390.339 13.4399Z" fill="#0B43F2"/>
<path d="M401.83 14.3592C402.338 14.3592 402.75 13.9476 402.75 13.4398C402.75 12.9321 402.338 12.5205 401.83 12.5205C401.323 12.5205 400.911 12.9321 400.911 13.4398C400.911 13.9476 401.323 14.3592 401.83 14.3592Z" fill="#0B43F2"/>
<path d="M414.25 14.3592C414.758 14.3592 415.17 13.9476 415.17 13.4398C415.17 12.9321 414.758 12.5205 414.25 12.5205C413.742 12.5205 413.33 12.9321 413.33 13.4398C413.33 13.9476 413.742 14.3592 414.25 14.3592Z" fill="#0B43F2"/>
<path d="M427.58 13.4399C427.58 13.9477 427.169 14.3592 426.661 14.3592C426.153 14.3592 425.741 13.9477 425.741 13.4399C425.741 12.932 426.153 12.5205 426.661 12.5205C427.169 12.5118 427.58 12.932 427.58 13.4399Z" fill="#0B43F2"/>
<path d="M439.08 14.3592C439.588 14.3592 440 13.9476 440 13.4398C440 12.9321 439.588 12.5205 439.08 12.5205C438.573 12.5205 438.161 12.9321 438.161 13.4398C438.161 13.9476 438.573 14.3592 439.08 14.3592Z" fill="#0B43F2"/>
<path d="M315.848 25.9516C315.848 26.4594 315.436 26.8709 314.928 26.8709C314.412 26.8709 314 26.4594 314 25.9516C314 25.4438 314.412 25.0323 314.92 25.0323C315.428 25.0323 315.848 25.4438 315.848 25.9516Z" fill="#0B43F2"/>
<path d="M327.339 26.8709C327.847 26.8709 328.259 26.4593 328.259 25.9516C328.259 25.4439 327.847 25.0323 327.339 25.0323C326.831 25.0323 326.42 25.4439 326.42 25.9516C326.42 26.4593 326.831 26.8709 327.339 26.8709Z" fill="#0B43F2"/>
<path d="M339.75 26.8709C340.258 26.8709 340.67 26.4593 340.67 25.9516C340.67 25.4439 340.258 25.0323 339.75 25.0323C339.242 25.0323 338.83 25.4439 338.83 25.9516C338.83 26.4593 339.242 26.8709 339.75 26.8709Z" fill="#0B43F2"/>
<path d="M353.089 25.9516C353.089 26.4594 352.678 26.8709 352.17 26.8709C351.662 26.8709 351.25 26.4594 351.25 25.9516C351.25 25.4438 351.662 25.0323 352.17 25.0323C352.678 25.0323 353.089 25.4438 353.089 25.9516Z" fill="#0B43F2"/>
<path d="M364.58 26.8709C365.088 26.8709 365.5 26.4593 365.5 25.9516C365.5 25.4439 365.088 25.0323 364.58 25.0323C364.073 25.0323 363.661 25.4439 363.661 25.9516C363.661 26.4593 364.073 26.8709 364.58 26.8709Z" fill="#0B43F2"/>
<path d="M377.92 25.9516C377.92 26.4594 377.508 26.8709 377 26.8709C376.492 26.8709 376.08 26.4594 376.08 25.9516C376.08 25.4438 376.492 25.0323 377 25.0323C377.508 25.0323 377.92 25.4438 377.92 25.9516Z" fill="#0B43F2"/>
<path d="M390.339 25.9516C390.339 26.4594 389.928 26.8709 389.42 26.8709C388.912 26.8709 388.5 26.4594 388.5 25.9516C388.5 25.4438 388.912 25.0323 389.42 25.0323C389.928 25.0323 390.339 25.4438 390.339 25.9516Z" fill="#0B43F2"/>
<path d="M401.83 26.8709C402.338 26.8709 402.75 26.4593 402.75 25.9516C402.75 25.4439 402.338 25.0323 401.83 25.0323C401.323 25.0323 400.911 25.4439 400.911 25.9516C400.911 26.4593 401.323 26.8709 401.83 26.8709Z" fill="#0B43F2"/>
<path d="M414.25 26.8709C414.758 26.8709 415.17 26.4593 415.17 25.9516C415.17 25.4439 414.758 25.0323 414.25 25.0323C413.742 25.0323 413.33 25.4439 413.33 25.9516C413.33 26.4593 413.742 26.8709 414.25 26.8709Z" fill="#0B43F2"/>
<path d="M427.58 25.9516C427.58 26.4594 427.169 26.8709 426.661 26.8709C426.153 26.8709 425.741 26.4594 425.741 25.9516C425.741 25.4438 426.153 25.0323 426.661 25.0323C427.169 25.0323 427.58 25.4438 427.58 25.9516Z" fill="#0B43F2"/>
<path d="M439.08 26.8709C439.588 26.8709 440 26.4593 440 25.9516C440 25.4439 439.588 25.0323 439.08 25.0323C438.573 25.0323 438.161 25.4439 438.161 25.9516C438.161 26.4593 438.573 26.8709 439.08 26.8709Z" fill="#0B43F2"/>
<path d="M315.848 38.4721C315.848 38.9799 315.436 39.3915 314.928 39.3915C314.412 39.3915 314 38.9799 314 38.4721C314 37.9643 314.412 37.5528 314.92 37.5528C315.428 37.544 315.848 37.9555 315.848 38.4721Z" fill="#0B43F2"/>
<path d="M327.339 39.3914C327.847 39.3914 328.259 38.9798 328.259 38.4721C328.259 37.9644 327.847 37.5528 327.339 37.5528C326.831 37.5528 326.42 37.9644 326.42 38.4721C326.42 38.9798 326.831 39.3914 327.339 39.3914Z" fill="#0B43F2"/>
<path d="M339.75 39.3914C340.258 39.3914 340.67 38.9798 340.67 38.4721C340.67 37.9644 340.258 37.5528 339.75 37.5528C339.242 37.5528 338.83 37.9644 338.83 38.4721C338.83 38.9798 339.242 39.3914 339.75 39.3914Z" fill="#0B43F2"/>
<path d="M353.089 38.4721C353.089 38.9799 352.678 39.3915 352.17 39.3915C351.662 39.3915 351.25 38.9799 351.25 38.4721C351.25 37.9643 351.662 37.5528 352.17 37.5528C352.678 37.544 353.089 37.9555 353.089 38.4721Z" fill="#0B43F2"/>
<path d="M364.58 39.3914C365.088 39.3914 365.5 38.9798 365.5 38.4721C365.5 37.9644 365.088 37.5528 364.58 37.5528C364.073 37.5528 363.661 37.9644 363.661 38.4721C363.661 38.9798 364.073 39.3914 364.58 39.3914Z" fill="#0B43F2"/>
<path d="M377.92 38.4721C377.92 38.9799 377.508 39.3915 377 39.3915C376.492 39.3915 376.08 38.9799 376.08 38.4721C376.08 37.9643 376.492 37.5528 377 37.5528C377.508 37.544 377.92 37.9555 377.92 38.4721Z" fill="#0B43F2"/>
<path d="M390.339 38.4721C390.339 38.9799 389.928 39.3915 389.42 39.3915C388.912 39.3915 388.5 38.9799 388.5 38.4721C388.5 37.9643 388.912 37.5528 389.42 37.5528C389.928 37.544 390.339 37.9555 390.339 38.4721Z" fill="#0B43F2"/>
<path d="M401.83 39.3914C402.338 39.3914 402.75 38.9798 402.75 38.4721C402.75 37.9644 402.338 37.5528 401.83 37.5528C401.323 37.5528 400.911 37.9644 400.911 38.4721C400.911 38.9798 401.323 39.3914 401.83 39.3914Z" fill="#0B43F2"/>
<path d="M414.25 39.3914C414.758 39.3914 415.17 38.9798 415.17 38.4721C415.17 37.9644 414.758 37.5528 414.25 37.5528C413.742 37.5528 413.33 37.9644 413.33 38.4721C413.33 38.9798 413.742 39.3914 414.25 39.3914Z" fill="#0B43F2"/>
<path d="M427.58 38.4721C427.58 38.9799 427.169 39.3915 426.661 39.3915C426.153 39.3915 425.741 38.9799 425.741 38.4721C425.741 37.9643 426.153 37.5528 426.661 37.5528C427.169 37.544 427.58 37.9555 427.58 38.4721Z" fill="#0B43F2"/>
<path d="M439.08 39.3914C439.588 39.3914 440 38.9798 440 38.4721C440 37.9644 439.588 37.5528 439.08 37.5528C438.573 37.5528 438.161 37.9644 438.161 38.4721C438.161 38.9798 438.573 39.3914 439.08 39.3914Z" fill="#0B43F2"/>
<path d="M315.848 50.9839C315.848 51.4917 315.436 51.9032 314.928 51.9032C314.412 51.9032 314 51.4917 314 50.9839C314 50.476 314.412 50.0645 314.92 50.0645C315.428 50.0645 315.848 50.476 315.848 50.9839Z" fill="#0B43F2"/>
<path d="M327.339 51.9032C327.847 51.9032 328.259 51.4916 328.259 50.9839C328.259 50.4761 327.847 50.0645 327.339 50.0645C326.831 50.0645 326.42 50.4761 326.42 50.9839C326.42 51.4916 326.831 51.9032 327.339 51.9032Z" fill="#0B43F2"/>
<path d="M339.75 51.9032C340.258 51.9032 340.67 51.4916 340.67 50.9839C340.67 50.4761 340.258 50.0645 339.75 50.0645C339.242 50.0645 338.83 50.4761 338.83 50.9839C338.83 51.4916 339.242 51.9032 339.75 51.9032Z" fill="#0B43F2"/>
<path d="M353.089 50.9839C353.089 51.4917 352.678 51.9032 352.17 51.9032C351.662 51.9032 351.25 51.4917 351.25 50.9839C351.25 50.476 351.662 50.0645 352.17 50.0645C352.678 50.0645 353.089 50.476 353.089 50.9839Z" fill="#0B43F2"/>
<path d="M364.58 51.9032C365.088 51.9032 365.5 51.4916 365.5 50.9839C365.5 50.4761 365.088 50.0645 364.58 50.0645C364.073 50.0645 363.661 50.4761 363.661 50.9839C363.661 51.4916 364.073 51.9032 364.58 51.9032Z" fill="#0B43F2"/>
<path d="M377.92 50.9839C377.92 51.4917 377.508 51.9032 377 51.9032C376.492 51.9032 376.08 51.4917 376.08 50.9839C376.08 50.476 376.492 50.0645 377 50.0645C377.508 50.0645 377.92 50.476 377.92 50.9839Z" fill="#0B43F2"/>
<path d="M390.339 50.9839C390.339 51.4917 389.928 51.9032 389.42 51.9032C388.912 51.9032 388.5 51.4917 388.5 50.9839C388.5 50.476 388.912 50.0645 389.42 50.0645C389.928 50.0645 390.339 50.476 390.339 50.9839Z" fill="#0B43F2"/>
<path d="M401.83 51.9032C402.338 51.9032 402.75 51.4916 402.75 50.9839C402.75 50.4761 402.338 50.0645 401.83 50.0645C401.323 50.0645 400.911 50.4761 400.911 50.9839C400.911 51.4916 401.323 51.9032 401.83 51.9032Z" fill="#0B43F2"/>
<path d="M414.25 51.9032C414.758 51.9032 415.17 51.4916 415.17 50.9839C415.17 50.4761 414.758 50.0645 414.25 50.0645C413.742 50.0645 413.33 50.4761 413.33 50.9839C413.33 51.4916 413.742 51.9032 414.25 51.9032Z" fill="#0B43F2"/>
<path d="M427.58 50.9839C427.58 51.4917 427.169 51.9032 426.661 51.9032C426.153 51.9032 425.741 51.4917 425.741 50.9839C425.741 50.476 426.153 50.0645 426.661 50.0645C427.169 50.0645 427.58 50.476 427.58 50.9839Z" fill="#0B43F2"/>
<path d="M439.08 51.9032C439.588 51.9032 440 51.4916 440 50.9839C440 50.4761 439.588 50.0645 439.08 50.0645C438.573 50.0645 438.161 50.4761 438.161 50.9839C438.161 51.4916 438.573 51.9032 439.08 51.9032Z" fill="#0B43F2"/>
<path d="M315.848 63.4956C315.848 64.0035 315.436 64.415 314.928 64.415C314.412 64.4237 314 64.0122 314 63.4956C314 62.9878 314.412 62.5763 314.92 62.5763C315.428 62.5763 315.848 62.9878 315.848 63.4956Z" fill="#0B43F2"/>
<path d="M327.339 64.415C327.847 64.415 328.259 64.0034 328.259 63.4956C328.259 62.9879 327.847 62.5763 327.339 62.5763C326.831 62.5763 326.42 62.9879 326.42 63.4956C326.42 64.0034 326.831 64.415 327.339 64.415Z" fill="#0B43F2"/>
<path d="M339.75 64.415C340.258 64.415 340.67 64.0034 340.67 63.4956C340.67 62.9879 340.258 62.5763 339.75 62.5763C339.242 62.5763 338.83 62.9879 338.83 63.4956C338.83 64.0034 339.242 64.415 339.75 64.415Z" fill="#0B43F2"/>
<path d="M353.089 63.4956C353.089 64.0035 352.678 64.415 352.17 64.415C351.662 64.415 351.25 64.0035 351.25 63.4956C351.25 62.9878 351.662 62.5763 352.17 62.5763C352.678 62.5763 353.089 62.9878 353.089 63.4956Z" fill="#0B43F2"/>
<path d="M364.58 64.415C365.088 64.415 365.5 64.0034 365.5 63.4956C365.5 62.9879 365.088 62.5763 364.58 62.5763C364.073 62.5763 363.661 62.9879 363.661 63.4956C363.661 64.0034 364.073 64.415 364.58 64.415Z" fill="#0B43F2"/>
<path d="M377.92 63.4956C377.92 64.0035 377.508 64.415 377 64.415C376.492 64.415 376.08 64.0035 376.08 63.4956C376.08 62.9878 376.492 62.5763 377 62.5763C377.508 62.5763 377.92 62.9878 377.92 63.4956Z" fill="#0B43F2"/>
<path d="M390.339 63.4956C390.339 64.0035 389.928 64.415 389.42 64.415C388.912 64.415 388.5 64.0035 388.5 63.4956C388.5 62.9878 388.912 62.5763 389.42 62.5763C389.928 62.5763 390.339 62.9878 390.339 63.4956Z" fill="#0B43F2"/>
<path d="M401.83 64.415C402.338 64.415 402.75 64.0034 402.75 63.4956C402.75 62.9879 402.338 62.5763 401.83 62.5763C401.323 62.5763 400.911 62.9879 400.911 63.4956C400.911 64.0034 401.323 64.415 401.83 64.415Z" fill="#0B43F2"/>
<path d="M414.25 64.415C414.758 64.415 415.17 64.0034 415.17 63.4956C415.17 62.9879 414.758 62.5763 414.25 62.5763C413.742 62.5763 413.33 62.9879 413.33 63.4956C413.33 64.0034 413.742 64.415 414.25 64.415Z" fill="#0B43F2"/>
<path d="M427.58 63.4956C427.58 64.0035 427.169 64.415 426.661 64.415C426.153 64.415 425.741 64.0035 425.741 63.4956C425.741 62.9878 426.153 62.5763 426.661 62.5763C427.169 62.5763 427.58 62.9878 427.58 63.4956Z" fill="#0B43F2"/>
<path d="M439.08 64.415C439.588 64.415 440 64.0034 440 63.4956C440 62.9879 439.588 62.5763 439.08 62.5763C438.573 62.5763 438.161 62.9879 438.161 63.4956C438.161 64.0034 438.573 64.415 439.08 64.415Z" fill="#0B43F2"/>
<path d="M315.848 76.0161C315.848 76.524 315.436 76.9355 314.928 76.9355C314.412 76.9355 314 76.524 314 76.0161C314 75.5083 314.412 75.0968 314.92 75.0968C315.428 75.0968 315.848 75.5083 315.848 76.0161Z" fill="#0B43F2"/>
<path d="M327.339 76.9355C327.847 76.9355 328.259 76.5239 328.259 76.0161C328.259 75.5084 327.847 75.0968 327.339 75.0968C326.831 75.0968 326.42 75.5084 326.42 76.0161C326.42 76.5239 326.831 76.9355 327.339 76.9355Z" fill="#0B43F2"/>
<path d="M339.75 76.9355C340.258 76.9355 340.67 76.5239 340.67 76.0161C340.67 75.5084 340.258 75.0968 339.75 75.0968C339.242 75.0968 338.83 75.5084 338.83 76.0161C338.83 76.5239 339.242 76.9355 339.75 76.9355Z" fill="#0B43F2"/>
<path d="M353.089 76.0161C353.089 76.524 352.678 76.9355 352.17 76.9355C351.662 76.9355 351.25 76.524 351.25 76.0161C351.25 75.5083 351.662 75.0968 352.17 75.0968C352.678 75.0968 353.089 75.5083 353.089 76.0161Z" fill="#0B43F2"/>
<path d="M364.58 76.9355C365.088 76.9355 365.5 76.5239 365.5 76.0161C365.5 75.5084 365.088 75.0968 364.58 75.0968C364.073 75.0968 363.661 75.5084 363.661 76.0161C363.661 76.5239 364.073 76.9355 364.58 76.9355Z" fill="#0B43F2"/>
<path d="M377.92 76.0161C377.92 76.524 377.508 76.9355 377 76.9355C376.492 76.9355 376.08 76.524 376.08 76.0161C376.08 75.5083 376.492 75.0968 377 75.0968C377.508 75.0968 377.92 75.5083 377.92 76.0161Z" fill="#0B43F2"/>
<path d="M390.339 76.0161C390.339 76.524 389.928 76.9355 389.42 76.9355C388.912 76.9355 388.5 76.524 388.5 76.0161C388.5 75.5083 388.912 75.0968 389.42 75.0968C389.928 75.0968 390.339 75.5083 390.339 76.0161Z" fill="#0B43F2"/>
<path d="M401.83 76.9355C402.338 76.9355 402.75 76.5239 402.75 76.0161C402.75 75.5084 402.338 75.0968 401.83 75.0968C401.323 75.0968 400.911 75.5084 400.911 76.0161C400.911 76.5239 401.323 76.9355 401.83 76.9355Z" fill="#0B43F2"/>
<path d="M414.25 76.9355C414.758 76.9355 415.17 76.5239 415.17 76.0161C415.17 75.5084 414.758 75.0968 414.25 75.0968C413.742 75.0968 413.33 75.5084 413.33 76.0161C413.33 76.5239 413.742 76.9355 414.25 76.9355Z" fill="#0B43F2"/>
<path d="M427.58 76.0161C427.58 76.524 427.169 76.9355 426.661 76.9355C426.153 76.9355 425.741 76.524 425.741 76.0161C425.741 75.5083 426.153 75.0968 426.661 75.0968C427.169 75.0968 427.58 75.5083 427.58 76.0161Z" fill="#0B43F2"/>
<path d="M439.08 76.9355C439.588 76.9355 440 76.5239 440 76.0161C440 75.5084 439.588 75.0968 439.08 75.0968C438.573 75.0968 438.161 75.5084 438.161 76.0161C438.161 76.5239 438.573 76.9355 439.08 76.9355Z" fill="#0B43F2"/>
<path d="M315.848 88.5279C315.848 89.0357 315.436 89.4472 314.928 89.4472C314.42 89.4472 314.009 89.0357 314.009 88.5279C314.009 88.0201 314.42 87.6086 314.928 87.6086C315.428 87.6086 315.848 88.0201 315.848 88.5279Z" fill="#0B43F2"/>
<path d="M327.339 89.4472C327.847 89.4472 328.259 89.0356 328.259 88.5279C328.259 88.0202 327.847 87.6086 327.339 87.6086C326.831 87.6086 326.42 88.0202 326.42 88.5279C326.42 89.0356 326.831 89.4472 327.339 89.4472Z" fill="#0B43F2"/>
<path d="M339.75 89.4472C340.258 89.4472 340.67 89.0356 340.67 88.5279C340.67 88.0202 340.258 87.6086 339.75 87.6086C339.242 87.6086 338.83 88.0202 338.83 88.5279C338.83 89.0356 339.242 89.4472 339.75 89.4472Z" fill="#0B43F2"/>
<path d="M353.089 88.5279C353.089 89.0357 352.678 89.4472 352.17 89.4472C351.662 89.4472 351.25 89.0357 351.25 88.5279C351.25 88.0201 351.662 87.6086 352.17 87.6086C352.678 87.6086 353.089 88.0201 353.089 88.5279Z" fill="#0B43F2"/>
<path d="M364.58 89.4472C365.088 89.4472 365.5 89.0356 365.5 88.5279C365.5 88.0202 365.088 87.6086 364.58 87.6086C364.073 87.6086 363.661 88.0202 363.661 88.5279C363.661 89.0356 364.073 89.4472 364.58 89.4472Z" fill="#0B43F2"/>
<path d="M377.92 88.5279C377.92 89.0357 377.508 89.4472 377 89.4472C376.492 89.4472 376.08 89.0357 376.08 88.5279C376.08 88.0201 376.492 87.6086 377 87.6086C377.508 87.6086 377.92 88.0201 377.92 88.5279Z" fill="#0B43F2"/>
<path d="M390.339 88.5279C390.339 89.0357 389.928 89.4472 389.42 89.4472C388.912 89.4472 388.5 89.0357 388.5 88.5279C388.5 88.0201 388.912 87.6086 389.42 87.6086C389.928 87.6086 390.339 88.0201 390.339 88.5279Z" fill="#0B43F2"/>
<path d="M401.83 89.4472C402.338 89.4472 402.75 89.0356 402.75 88.5279C402.75 88.0202 402.338 87.6086 401.83 87.6086C401.323 87.6086 400.911 88.0202 400.911 88.5279C400.911 89.0356 401.323 89.4472 401.83 89.4472Z" fill="#0B43F2"/>
<path d="M414.25 89.4472C414.758 89.4472 415.17 89.0356 415.17 88.5279C415.17 88.0202 414.758 87.6086 414.25 87.6086C413.742 87.6086 413.33 88.0202 413.33 88.5279C413.33 89.0356 413.742 89.4472 414.25 89.4472Z" fill="#0B43F2"/>
<path d="M427.58 88.5279C427.58 89.0357 427.169 89.4472 426.661 89.4472C426.153 89.4472 425.741 89.0357 425.741 88.5279C425.741 88.0201 426.153 87.6086 426.661 87.6086C427.169 87.6086 427.58 88.0201 427.58 88.5279Z" fill="#0B43F2"/>
<path d="M439.08 89.4472C439.588 89.4472 440 89.0356 440 88.5279C440 88.0202 439.588 87.6086 439.08 87.6086C438.573 87.6086 438.161 88.0202 438.161 88.5279C438.161 89.0356 438.573 89.4472 439.08 89.4472Z" fill="#0B43F2"/>
<path d="M315.848 101.048C315.848 101.556 315.436 101.968 314.928 101.968C314.42 101.968 314.009 101.556 314.009 101.048C314.009 100.541 314.42 100.129 314.928 100.129C315.428 100.12 315.848 100.541 315.848 101.048Z" fill="#0B43F2"/>
<path d="M327.339 101.968C327.847 101.968 328.259 101.556 328.259 101.048C328.259 100.541 327.847 100.129 327.339 100.129C326.831 100.129 326.42 100.541 326.42 101.048C326.42 101.556 326.831 101.968 327.339 101.968Z" fill="#0B43F2"/>
<path d="M339.75 101.968C340.258 101.968 340.67 101.556 340.67 101.048C340.67 100.541 340.258 100.129 339.75 100.129C339.242 100.129 338.83 100.541 338.83 101.048C338.83 101.556 339.242 101.968 339.75 101.968Z" fill="#0B43F2"/>
<path d="M353.089 101.048C353.089 101.556 352.678 101.968 352.17 101.968C351.662 101.968 351.25 101.556 351.25 101.048C351.25 100.541 351.662 100.129 352.17 100.129C352.678 100.12 353.089 100.541 353.089 101.048Z" fill="#0B43F2"/>
<path d="M364.58 101.968C365.088 101.968 365.5 101.556 365.5 101.048C365.5 100.541 365.088 100.129 364.58 100.129C364.073 100.129 363.661 100.541 363.661 101.048C363.661 101.556 364.073 101.968 364.58 101.968Z" fill="#0B43F2"/>
<path d="M377.92 101.048C377.92 101.556 377.508 101.968 377 101.968C376.492 101.968 376.08 101.556 376.08 101.048C376.08 100.541 376.492 100.129 377 100.129C377.508 100.12 377.92 100.541 377.92 101.048Z" fill="#0B43F2"/>
<path d="M390.339 101.048C390.339 101.556 389.928 101.968 389.42 101.968C388.912 101.968 388.5 101.556 388.5 101.048C388.5 100.541 388.912 100.129 389.42 100.129C389.928 100.12 390.339 100.541 390.339 101.048Z" fill="#0B43F2"/>
<path d="M401.83 101.968C402.338 101.968 402.75 101.556 402.75 101.048C402.75 100.541 402.338 100.129 401.83 100.129C401.323 100.129 400.911 100.541 400.911 101.048C400.911 101.556 401.323 101.968 401.83 101.968Z" fill="#0B43F2"/>
<path d="M414.25 101.968C414.758 101.968 415.17 101.556 415.17 101.048C415.17 100.541 414.758 100.129 414.25 100.129C413.742 100.129 413.33 100.541 413.33 101.048C413.33 101.556 413.742 101.968 414.25 101.968Z" fill="#0B43F2"/>
<path d="M427.58 101.048C427.58 101.556 427.169 101.968 426.661 101.968C426.153 101.968 425.741 101.556 425.741 101.048C425.741 100.541 426.153 100.129 426.661 100.129C427.169 100.12 427.58 100.541 427.58 101.048Z" fill="#0B43F2"/>
<path d="M439.08 101.968C439.588 101.968 440 101.556 440 101.048C440 100.541 439.588 100.129 439.08 100.129C438.573 100.129 438.161 100.541 438.161 101.048C438.161 101.556 438.573 101.968 439.08 101.968Z" fill="#0B43F2"/>
<path d="M315.848 113.56C315.848 114.068 315.436 114.479 314.928 114.479C314.42 114.479 314.009 114.068 314.009 113.56C314.009 113.052 314.42 112.641 314.928 112.641C315.428 112.641 315.848 113.052 315.848 113.56Z" fill="#0B43F2"/>
<path d="M327.339 114.479C327.847 114.479 328.259 114.068 328.259 113.56C328.259 113.052 327.847 112.641 327.339 112.641C326.831 112.641 326.42 113.052 326.42 113.56C326.42 114.068 326.831 114.479 327.339 114.479Z" fill="#0B43F2"/>
<path d="M339.75 114.479C340.258 114.479 340.67 114.068 340.67 113.56C340.67 113.052 340.258 112.641 339.75 112.641C339.242 112.641 338.83 113.052 338.83 113.56C338.83 114.068 339.242 114.479 339.75 114.479Z" fill="#0B43F2"/>
<path d="M353.089 113.56C353.089 114.068 352.678 114.479 352.17 114.479C351.662 114.479 351.25 114.068 351.25 113.56C351.25 113.052 351.662 112.641 352.17 112.641C352.678 112.641 353.089 113.052 353.089 113.56Z" fill="#0B43F2"/>
<path d="M364.58 114.479C365.088 114.479 365.5 114.068 365.5 113.56C365.5 113.052 365.088 112.641 364.58 112.641C364.073 112.641 363.661 113.052 363.661 113.56C363.661 114.068 364.073 114.479 364.58 114.479Z" fill="#0B43F2"/>
<path d="M377.92 113.56C377.92 114.068 377.508 114.479 377 114.479C376.492 114.479 376.08 114.068 376.08 113.56C376.08 113.052 376.492 112.641 377 112.641C377.508 112.641 377.92 113.052 377.92 113.56Z" fill="#0B43F2"/>
<path d="M390.339 113.56C390.339 114.068 389.928 114.479 389.42 114.479C388.912 114.479 388.5 114.068 388.5 113.56C388.5 113.052 388.912 112.641 389.42 112.641C389.928 112.641 390.339 113.052 390.339 113.56Z" fill="#0B43F2"/>
<path d="M401.83 114.479C402.338 114.479 402.75 114.068 402.75 113.56C402.75 113.052 402.338 112.641 401.83 112.641C401.323 112.641 400.911 113.052 400.911 113.56C400.911 114.068 401.323 114.479 401.83 114.479Z" fill="#0B43F2"/>
<path d="M414.25 114.479C414.758 114.479 415.17 114.068 415.17 113.56C415.17 113.052 414.758 112.641 414.25 112.641C413.742 112.641 413.33 113.052 413.33 113.56C413.33 114.068 413.742 114.479 414.25 114.479Z" fill="#0B43F2"/>
<path d="M427.58 113.56C427.58 114.068 427.169 114.479 426.661 114.479C426.153 114.479 425.741 114.068 425.741 113.56C425.741 113.052 426.153 112.641 426.661 112.641C427.169 112.641 427.58 113.052 427.58 113.56Z" fill="#0B43F2"/>
<path d="M439.08 114.479C439.588 114.479 440 114.068 440 113.56C440 113.052 439.588 112.641 439.08 112.641C438.573 112.641 438.161 113.052 438.161 113.56C438.161 114.068 438.573 114.479 439.08 114.479Z" fill="#0B43F2"/>
<path d="M315.848 126.081C315.848 126.588 315.436 127 314.928 127C314.412 127 314 126.588 314 126.081C314 125.573 314.412 125.161 314.92 125.161C315.428 125.153 315.848 125.564 315.848 126.081Z" fill="#0B43F2"/>
<path d="M327.339 127C327.847 127 328.259 126.588 328.259 126.081C328.259 125.573 327.847 125.161 327.339 125.161C326.831 125.161 326.42 125.573 326.42 126.081C326.42 126.588 326.831 127 327.339 127Z" fill="#0B43F2"/>
<path d="M339.75 127C340.258 127 340.67 126.588 340.67 126.081C340.67 125.573 340.258 125.161 339.75 125.161C339.242 125.161 338.83 125.573 338.83 126.081C338.83 126.588 339.242 127 339.75 127Z" fill="#0B43F2"/>
<path d="M353.089 126.081C353.089 126.588 352.678 127 352.17 127C351.662 127 351.25 126.588 351.25 126.081C351.25 125.573 351.662 125.161 352.17 125.161C352.678 125.153 353.089 125.564 353.089 126.081Z" fill="#0B43F2"/>
<path d="M364.58 127C365.088 127 365.5 126.588 365.5 126.081C365.5 125.573 365.088 125.161 364.58 125.161C364.073 125.161 363.661 125.573 363.661 126.081C363.661 126.588 364.073 127 364.58 127Z" fill="#0B43F2"/>
<path d="M377.92 126.081C377.92 126.588 377.508 127 377 127C376.492 127 376.08 126.588 376.08 126.081C376.08 125.573 376.492 125.161 377 125.161C377.508 125.153 377.92 125.564 377.92 126.081Z" fill="#0B43F2"/>
<path d="M390.339 126.081C390.339 126.588 389.928 127 389.42 127C388.912 127 388.5 126.588 388.5 126.081C388.5 125.573 388.912 125.161 389.42 125.161C389.928 125.153 390.339 125.564 390.339 126.081Z" fill="#0B43F2"/>
<path d="M401.83 127C402.338 127 402.75 126.588 402.75 126.081C402.75 125.573 402.338 125.161 401.83 125.161C401.323 125.161 400.911 125.573 400.911 126.081C400.911 126.588 401.323 127 401.83 127Z" fill="#0B43F2"/>
<path d="M414.25 127C414.758 127 415.17 126.588 415.17 126.081C415.17 125.573 414.758 125.161 414.25 125.161C413.742 125.161 413.33 125.573 413.33 126.081C413.33 126.588 413.742 127 414.25 127Z" fill="#0B43F2"/>
<path d="M427.58 126.081C427.58 126.588 427.169 127 426.661 127C426.153 127 425.741 126.588 425.741 126.081C425.741 125.573 426.153 125.161 426.661 125.161C427.169 125.153 427.58 125.564 427.58 126.081Z" fill="#0B43F2"/>
<path d="M439.08 127C439.588 127 440 126.588 440 126.081C440 125.573 439.588 125.161 439.08 125.161C438.573 125.161 438.161 125.573 438.161 126.081C438.161 126.588 438.573 127 439.08 127Z" fill="#0B43F2"/>
</g>
<path d="M208.296 793.048C208.296 793.404 208.007 793.693 207.651 793.693C207.294 793.693 207.006 793.404 207.006 793.048V776.354C207.006 775.445 207.377 774.62 207.974 774.023C208.573 773.425 209.398 773.054 210.305 773.054C211.211 773.054 212.036 773.425 212.635 774.024L212.636 774.023C213.234 774.62 213.605 775.445 213.605 776.354V785.571C213.605 785.928 213.316 786.216 212.961 786.216C212.604 786.216 212.316 785.928 212.316 785.571V776.354C212.316 775.801 212.09 775.299 211.724 774.933L211.727 774.932L211.724 774.931C211.362 774.568 210.86 774.343 210.305 774.343C209.753 774.343 209.251 774.569 208.886 774.933C208.522 775.299 208.296 775.801 208.296 776.354V793.048Z" fill="#474748"/>
<path d="M207.009 793.02C207.024 792.666 207.323 792.391 207.678 792.406C208.032 792.421 208.307 792.72 208.292 793.075C208.292 793.088 208.043 797.553 210.868 799.642L210.889 799.657C214.73 802.737 214.594 805.943 214.432 809.718C214.41 810.255 214.386 810.804 214.376 811.394H224.61C224.628 810.701 224.669 809.837 224.714 808.874C224.944 804.031 225.296 796.586 223.343 794.634C223.092 794.381 223.092 793.973 223.343 793.722C223.595 793.47 224.003 793.47 224.254 793.722C226.608 796.074 226.238 803.865 225.999 808.936C225.94 810.167 225.89 811.231 225.89 812.038C225.89 812.394 225.601 812.683 225.246 812.683H213.726C213.37 812.683 213.081 812.394 213.081 812.038C213.081 811.265 213.116 810.454 213.149 809.668C213.295 806.243 213.418 803.334 210.083 800.659C206.721 798.153 207.007 793.034 207.009 793.02Z" fill="#474748"/>
<path d="M220.61 797.587C220.863 797.839 220.863 798.247 220.61 798.499C220.359 798.75 219.951 798.75 219.699 798.499L211.583 790.382L211.582 790.381C211.569 790.368 211.557 790.355 211.545 790.341C210.927 789.703 210.619 788.875 210.619 788.049H210.621C210.621 787.203 210.941 786.359 211.582 785.718L211.584 785.716L211.582 785.715H211.583C211.594 785.703 211.608 785.69 211.621 785.679C212.257 785.062 213.086 784.754 213.915 784.754V784.752C214.76 784.752 215.607 785.073 216.248 785.715L224.254 793.722C224.507 793.973 224.507 794.381 224.254 794.634C224.003 794.885 223.595 794.885 223.343 794.634L215.337 786.626C214.946 786.236 214.431 786.041 213.915 786.041V786.039C213.413 786.039 212.909 786.225 212.521 786.596C212.513 786.607 212.503 786.617 212.494 786.626L212.492 786.625C212.101 787.017 211.906 787.533 211.906 788.049H211.908C211.908 788.553 212.093 789.056 212.463 789.441C212.473 789.45 212.484 789.46 212.494 789.47L220.61 797.587ZM212.705 814.902H226.266V812.683H212.705V814.902ZM226.911 816.191H212.061C211.704 816.191 211.416 815.902 211.416 815.546V812.038C211.416 811.681 211.704 811.394 212.061 811.394H226.911C227.266 811.394 227.555 811.681 227.555 812.038V815.546C227.555 815.902 227.266 816.191 226.911 816.191ZM261.994 793.048C261.994 793.404 261.706 793.693 261.349 793.693C260.993 793.693 260.704 793.404 260.704 793.048V776.354C260.704 775.801 260.478 775.299 260.114 774.933C259.749 774.569 259.247 774.343 258.695 774.343C258.14 774.343 257.638 774.568 257.276 774.931L257.273 774.932L257.276 774.933C256.91 775.299 256.684 775.801 256.684 776.354V785.571C256.684 785.928 256.396 786.216 256.039 786.216C255.684 786.216 255.395 785.928 255.395 785.571V776.354C255.395 775.445 255.766 774.62 256.364 774.023L256.365 774.024C256.964 773.425 257.789 773.054 258.695 773.054C259.602 773.054 260.427 773.425 261.026 774.023C261.623 774.62 261.994 775.445 261.994 776.354V793.048Z" fill="#474748"/>
<path d="M260.708 793.075C260.693 792.72 260.968 792.421 261.322 792.406C261.677 792.391 261.976 792.666 261.991 793.02C261.992 793.034 262.279 798.153 258.917 800.659C255.582 803.334 255.705 806.243 255.851 809.668C255.884 810.454 255.919 811.265 255.919 812.038C255.919 812.394 255.63 812.683 255.274 812.683H243.754C243.399 812.683 243.11 812.394 243.11 812.038C243.11 811.231 243.06 810.167 243.001 808.936C242.762 803.865 242.392 796.074 244.746 793.722C244.997 793.47 245.405 793.47 245.657 793.722C245.908 793.973 245.908 794.381 245.657 794.634C243.704 796.586 244.056 804.031 244.286 808.874C244.331 809.837 244.372 810.701 244.39 811.394H254.624C254.614 810.804 254.59 810.255 254.567 809.718C254.406 805.943 254.27 802.737 258.111 799.657L258.132 799.642C260.957 797.553 260.708 793.088 260.708 793.075Z" fill="#474748"/>
<path d="M249.301 798.499C249.049 798.75 248.641 798.75 248.39 798.499C248.137 798.247 248.137 797.839 248.39 797.587L256.506 789.47C256.516 789.46 256.527 789.45 256.537 789.441C256.907 789.056 257.092 788.553 257.092 788.049H257.094C257.094 787.533 256.899 787.017 256.508 786.625L256.506 786.626C256.497 786.617 256.487 786.607 256.479 786.596C256.091 786.225 255.587 786.039 255.085 786.039V786.041C254.569 786.041 254.054 786.236 253.663 786.626L245.657 794.634C245.405 794.885 244.997 794.885 244.746 794.634C244.493 794.381 244.493 793.973 244.746 793.722L252.752 785.715C253.393 785.073 254.24 784.752 255.085 784.752V784.754C255.913 784.754 256.743 785.062 257.379 785.679C257.392 785.69 257.406 785.703 257.417 785.715H257.418L257.416 785.716L257.418 785.718C258.059 786.359 258.379 787.203 258.379 788.049H258.381C258.381 788.875 258.073 789.703 257.455 790.341C257.443 790.355 257.431 790.368 257.418 790.381L257.417 790.382L249.301 798.499ZM256.939 816.191H242.089C241.734 816.191 241.445 815.902 241.445 815.546V812.038C241.445 811.681 241.734 811.394 242.089 811.394H256.939C257.296 811.394 257.584 811.681 257.584 812.038V815.546C257.584 815.902 257.296 816.191 256.939 816.191ZM242.734 814.902H256.295V812.683H242.734V814.902Z" fill="#474748"/>
<path d="M234.5 769.758C235.448 768.279 236.438 767.13 237.638 766.307C239.093 765.308 240.825 764.809 243.116 764.809C245.651 764.809 247.953 765.696 249.626 767.129C251.325 768.586 252.377 770.604 252.377 772.839C252.377 776.71 250.158 780.537 246.831 784.339C243.567 788.07 239.243 791.776 234.918 795.483C234.672 795.694 234.313 795.686 234.077 795.479C229.754 791.774 225.431 788.068 222.169 784.339C218.841 780.537 216.623 776.71 216.623 772.839C216.623 770.604 217.674 768.586 219.374 767.129C221.046 765.696 223.348 764.809 225.884 764.809C230.113 764.809 232.39 766.459 234.5 769.758ZM238.363 767.37C237.107 768.23 236.089 769.546 235.06 771.31C235.005 771.406 234.924 771.49 234.822 771.549C234.515 771.727 234.122 771.622 233.944 771.314C231.914 767.837 229.897 766.098 225.884 766.098C223.663 766.098 221.657 766.866 220.21 768.106C218.791 769.323 217.912 770.996 217.912 772.839C217.912 776.353 220.002 779.911 223.136 783.494C226.231 787.03 230.349 790.589 234.5 794.148C238.651 790.589 242.769 787.03 245.864 783.494C248.998 779.911 251.088 776.353 251.088 772.839C251.088 770.996 250.209 769.323 248.79 768.106C247.343 766.866 245.337 766.098 243.116 766.098C241.1 766.098 239.599 766.522 238.363 767.37Z" fill="#0B43F2"/>
<path d="M234.5 772.986C235.142 772.986 235.726 773.248 236.148 773.67C236.571 774.092 236.833 774.677 236.833 775.319V778.851H240.365C241.008 778.851 241.591 779.113 242.013 779.535C242.435 779.958 242.698 780.542 242.698 781.183C242.698 781.826 242.435 782.41 242.013 782.832C241.591 783.254 241.008 783.517 240.365 783.517H236.833V787.049C236.833 787.691 236.571 788.275 236.148 788.697C235.726 789.12 235.142 789.382 234.5 789.382C233.858 789.382 233.274 789.12 232.852 788.697C232.429 788.275 232.167 787.691 232.167 787.049V783.517H228.635C227.992 783.517 227.409 783.254 226.987 782.832C226.565 782.41 226.302 781.826 226.302 781.183C226.302 780.542 226.565 779.958 226.987 779.535C227.409 779.113 227.992 778.851 228.635 778.851H232.167V775.319C232.167 774.677 232.429 774.092 232.852 773.67C233.274 773.248 233.858 772.986 234.5 772.986ZM235.237 774.582C235.048 774.392 234.787 774.275 234.5 774.275C234.213 774.275 233.952 774.392 233.763 774.582C233.574 774.771 233.456 775.032 233.456 775.319V779.496C233.456 779.851 233.167 780.14 232.811 780.14H228.635C228.349 780.14 228.088 780.257 227.898 780.447C227.709 780.637 227.591 780.898 227.591 781.183C227.591 781.47 227.709 781.731 227.898 781.92C228.088 782.11 228.349 782.227 228.635 782.227H232.811C233.167 782.227 233.456 782.516 233.456 782.872V787.049C233.456 787.335 233.574 787.596 233.763 787.785C233.952 787.976 234.213 788.093 234.5 788.093C234.787 788.093 235.048 787.976 235.237 787.785C235.426 787.596 235.544 787.335 235.544 787.049V782.872C235.544 782.516 235.833 782.227 236.189 782.227H240.365C240.651 782.227 240.912 782.11 241.102 781.92C241.291 781.731 241.409 781.47 241.409 781.183C241.409 780.898 241.291 780.637 241.102 780.447C240.912 780.257 240.651 780.14 240.365 780.14H236.189C235.833 780.14 235.544 779.851 235.544 779.496V775.319C235.544 775.032 235.426 774.771 235.237 774.582Z" fill="#0B43F2"/>
<path d="M235.354 187C235.25 187 235.146 186.985 235.045 186.958C214.99 181.34 212.55 169.009 212.456 168.488C212.443 168.421 212.437 168.352 212.438 168.284V134.341C212.438 134.114 212.505 133.893 212.631 133.704C212.757 133.516 212.936 133.369 213.145 133.283C213.354 133.196 213.585 133.173 213.807 133.217C214.029 133.262 214.233 133.371 214.393 133.531C215.641 134.788 217.126 135.785 218.762 136.464C220.398 137.144 222.152 137.492 223.923 137.49C228.019 137.49 231.853 135.645 234.442 132.427C234.879 131.885 235.83 131.885 236.266 132.427C238.856 135.645 242.689 137.49 246.784 137.49C250.376 137.49 253.761 136.083 256.315 133.531C256.475 133.371 256.679 133.262 256.902 133.217C257.124 133.173 257.354 133.196 257.563 133.283C257.773 133.369 257.952 133.516 258.078 133.704C258.204 133.893 258.271 134.114 258.271 134.341V168.284C258.271 168.353 258.265 168.42 258.253 168.488C258.159 169.009 255.717 181.34 235.662 186.958C235.562 186.985 235.458 187 235.354 187ZM214.729 168.164C214.845 168.656 215.553 171.291 218.114 174.416C220.717 177.592 225.815 181.93 235.354 184.664C244.892 181.929 249.99 177.59 252.593 174.416C255.151 171.297 255.862 168.666 255.979 168.162V136.817C253.304 138.751 250.085 139.789 246.784 139.781C244.644 139.783 242.527 139.348 240.561 138.502C238.596 137.657 236.824 136.418 235.354 134.863C233.884 136.418 232.112 137.657 230.146 138.502C228.181 139.348 226.063 139.783 223.923 139.781C220.583 139.781 217.396 138.743 214.729 136.817V168.164Z" fill="#0B43F2"/>
<path d="M239.937 172.104H230.771V162.937H221.604V153.771H230.771V144.604H239.937V153.771H249.104V162.937H239.937V172.104ZM233.062 169.812H237.646V160.646H246.812V156.062H237.646V146.896H233.062V156.062H223.896V160.646H233.062V169.812Z" fill="#0B43F2"/>
<path d="M233.354 354C233.25 354 233.146 353.985 233.045 353.958C212.99 348.34 210.55 336.009 210.456 335.488C210.443 335.421 210.437 335.352 210.438 335.284V301.341C210.438 301.114 210.505 300.893 210.631 300.704C210.757 300.516 210.936 300.369 211.145 300.283C211.354 300.196 211.585 300.173 211.807 300.217C212.029 300.262 212.233 300.371 212.393 300.531C213.641 301.788 215.126 302.785 216.762 303.465C218.398 304.144 220.152 304.492 221.923 304.49C226.019 304.49 229.853 302.645 232.442 299.427C232.879 298.885 233.83 298.885 234.266 299.427C236.856 302.645 240.689 304.49 244.784 304.49C248.376 304.49 251.761 303.083 254.315 300.531C254.475 300.371 254.679 300.262 254.902 300.217C255.124 300.173 255.354 300.196 255.563 300.283C255.773 300.369 255.952 300.516 256.078 300.704C256.204 300.893 256.271 301.114 256.271 301.341V335.284C256.271 335.353 256.265 335.42 256.253 335.488C256.159 336.009 253.717 348.34 233.662 353.958C233.562 353.986 233.458 354 233.354 354ZM212.729 335.164C212.845 335.656 213.553 338.291 216.114 341.416C218.717 344.592 223.815 348.93 233.354 351.664C242.892 348.929 247.99 344.59 250.593 341.416C253.151 338.298 253.862 335.666 253.979 335.163V303.817C251.304 305.751 248.085 306.789 244.784 306.781C242.644 306.783 240.527 306.348 238.561 305.502C236.596 304.657 234.824 303.418 233.354 301.863C231.884 303.418 230.112 304.657 228.146 305.503C226.181 306.348 224.063 306.783 221.923 306.781C218.583 306.781 215.396 305.743 212.729 303.817V335.164Z" fill="#0B43F2"/>
<path d="M237.937 339.104H228.771V329.938H219.604V320.771H228.771V311.604H237.937V320.771H247.104V329.938H237.937V339.104ZM231.062 336.813H235.646V327.646H244.812V323.063H235.646V313.896H231.062V323.063H221.896V327.646H231.062V336.813Z" fill="#0B43F2"/>
<g clip-path="url(#clip1_102_64)">
<path d="M236.501 504C236.34 504 236.18 503.973 236.03 503.919C228.076 501.092 221.235 496.103 216.41 489.611C211.584 483.118 209.001 475.427 209 467.551V448.796C209 448.522 209.101 448.256 209.285 448.042C209.469 447.828 209.727 447.678 210.015 447.616L236.206 442.032C236.399 441.989 236.601 441.989 236.794 442.032L262.985 447.616C263.273 447.678 263.531 447.828 263.715 448.042C263.899 448.256 264 448.522 264 448.796V467.551C263.999 475.427 261.416 483.118 256.59 489.611C251.765 496.103 244.924 501.092 236.97 503.919C236.82 503.973 236.661 504 236.501 504ZM211.621 449.76V467.551C211.621 482.408 221.597 495.987 236.501 501.491C251.403 495.985 261.379 482.405 261.379 467.551V449.76L236.501 444.453L211.621 449.76Z" fill="#0B43F2"/>
<path d="M236.501 495.872C236.297 495.872 236.097 495.829 235.915 495.745C230.25 493.127 225.485 489.102 222.155 484.123C218.824 479.143 217.06 473.405 217.058 467.551V454.721C217.058 454.447 217.159 454.182 217.343 453.967C217.528 453.753 217.785 453.603 218.074 453.541L236.206 449.674C236.399 449.633 236.601 449.633 236.794 449.674L254.926 453.541C255.215 453.603 255.472 453.753 255.657 453.967C255.841 454.182 255.942 454.447 255.942 454.721V467.551C255.951 473.923 253.861 480.147 249.95 485.395C246.678 489.796 242.252 493.358 237.085 495.747C236.903 495.83 236.703 495.873 236.501 495.872ZM219.679 455.684V467.551C219.68 472.852 221.247 478.051 224.212 482.589C227.176 487.127 231.426 490.831 236.501 493.3C241.02 491.098 244.893 487.913 247.785 484.02C251.395 479.176 253.324 473.432 253.317 467.551V455.684L236.501 452.097L219.679 455.684Z" fill="#0B43F2"/>
<path d="M233.651 479.234C233.303 479.234 232.97 479.106 232.724 478.879L227.026 473.614C226.78 473.387 226.642 473.079 226.642 472.757C226.642 472.598 226.676 472.441 226.742 472.294C226.808 472.147 226.905 472.014 227.027 471.901C227.148 471.789 227.293 471.699 227.452 471.639C227.611 471.578 227.781 471.547 227.953 471.547C228.301 471.547 228.634 471.674 228.88 471.902L233.651 476.311L244.12 466.635C244.242 466.523 244.386 466.434 244.545 466.373C244.704 466.312 244.875 466.28 245.047 466.28C245.219 466.28 245.389 466.311 245.548 466.372C245.707 466.433 245.852 466.522 245.974 466.635C246.095 466.747 246.192 466.881 246.258 467.028C246.324 467.174 246.358 467.332 246.358 467.491C246.358 467.65 246.324 467.808 246.258 467.955C246.192 468.102 246.096 468.235 245.974 468.348L234.575 478.883C234.329 479.108 233.997 479.234 233.651 479.234Z" fill="#0B43F2"/>
</g>
<g clip-path="url(#clip2_102_64)">
<path d="M238.105 609.766V636.05H212.729V603.603H231.339L238.105 609.766Z" fill="white"/>
<path d="M238.105 609.766H231.339V603.603L238.105 609.766Z" fill="white"/>
<path d="M258.303 628.829V642.025C258.303 643.002 257.518 643.788 256.54 643.788H236.091C235.113 643.788 234.32 643.002 234.32 642.025V628.829C234.32 627.852 235.113 627.058 236.091 627.058H256.54C257.518 627.058 258.303 627.852 258.303 628.829Z" fill="white"/>
<path d="M258.306 633.861H234.321V628.799C234.321 627.84 235.099 627.062 236.059 627.062H256.569C257.528 627.062 258.306 627.84 258.306 628.799V633.861Z" fill="white"/>
<path d="M243.153 625.537H240.01V627.058H243.153V625.537Z" fill="white"/>
<path d="M253.106 625.537H249.964V627.058H253.106V625.537Z" fill="white"/>
<path d="M238.372 631.922H241.557V634.972L239.96 636.584L238.372 634.972V631.922Z" fill="white"/>
<path d="M254.258 631.922V634.972L252.663 636.584L251.067 634.972V631.922H254.258Z" fill="white"/>
<path d="M234.365 649.331C233.179 649.228 231.994 649.045 230.843 648.786C230.622 648.731 230.403 648.874 230.353 649.095C230.303 649.316 230.442 649.536 230.663 649.586C231.85 649.853 233.072 650.043 234.295 650.148C234.539 650.165 234.72 649.988 234.739 649.775C234.758 649.549 234.591 649.35 234.365 649.331ZM227.925 647.945C222.841 646.155 218.473 642.885 215.293 638.488C215.159 638.304 214.903 638.263 214.72 638.395C214.536 638.528 214.495 638.785 214.628 638.969C217.906 643.502 222.41 646.874 227.653 648.72C227.862 648.795 228.1 648.686 228.176 648.469C228.252 648.255 228.139 648.021 227.925 647.945ZM263.169 617.352C261.237 608.413 254.705 600.867 246.12 597.654C245.908 597.576 245.671 597.682 245.592 597.896C245.512 598.107 245.62 598.344 245.833 598.424C254.158 601.538 260.493 608.858 262.367 617.525C262.48 618.058 263.285 617.887 263.169 617.352Z" fill="#2A44E2"/>
<path d="M236.634 599.15C231.725 599.15 227.165 600.646 223.363 603.192H219.45C222.453 600.594 225.998 598.682 229.819 597.657C230.039 597.597 230.168 597.372 230.109 597.153C230.051 596.935 229.824 596.809 229.607 596.863C225.365 598.002 221.447 600.192 218.209 603.192H212.729C212.502 603.192 212.319 603.376 212.319 603.603V636.05C212.319 636.277 212.502 636.46 212.729 636.46H216.79C221.096 642.833 228.383 647.034 236.634 647.034C240.705 647.034 244.534 646 247.894 644.199H256.54C257.738 644.199 258.714 643.223 258.714 642.024V633.876C258.714 633.871 258.717 633.866 258.717 633.86V632.327C259.911 629.483 260.572 626.362 260.572 623.089C260.572 609.889 249.834 599.15 236.634 599.15ZM213.14 604.013H230.929V609.766C230.929 609.993 231.112 610.176 231.339 610.176H237.694V626.647H236.091C234.874 626.647 233.911 627.615 233.911 628.8V628.813C233.911 628.819 233.909 628.824 233.909 628.829V632.389H217.152V623.678C217.152 623.451 216.968 623.267 216.741 623.267C216.515 623.267 216.331 623.451 216.331 623.678V632.8C216.331 633.027 216.515 633.21 216.741 633.21H233.909V635.639H213.14V604.013ZM237.045 609.355H231.75V604.532C231.839 604.613 237.389 609.669 237.045 609.355ZM252.695 626.647H250.374V625.947C250.514 625.947 252.841 625.947 252.695 625.947V626.647ZM257.893 628.829V633.45H254.669V631.921C254.669 631.694 254.486 631.511 254.259 631.511H251.067C250.84 631.511 250.656 631.694 250.656 631.921V633.45H241.967V631.921C241.967 631.694 241.784 631.511 241.557 631.511H238.373C238.146 631.511 237.962 631.694 237.962 631.921V633.45H234.732V628.813C234.741 628.057 235.366 627.472 236.059 627.472H256.569C257.267 627.472 257.893 628.065 257.893 628.829ZM253.849 632.332V634.803L252.663 636.001L251.477 634.803V632.332H253.849ZM241.146 632.332V634.803L239.961 636L238.783 634.803V632.332H241.146ZM251.123 625.126H249.964C249.737 625.126 249.553 625.31 249.553 625.537V626.647H243.563V625.537C243.563 625.31 243.38 625.126 243.153 625.126H241.995V624.249C241.995 623.42 242.67 622.745 243.5 622.745H249.619C250.448 622.745 251.123 623.42 251.123 624.249V625.126ZM242.742 625.947V626.647H240.421V625.947C240.507 625.947 242.829 625.947 242.742 625.947ZM236.634 646.213C228.866 646.213 221.988 642.355 217.794 636.46H233.909V642.024C233.909 643.223 234.888 644.199 236.091 644.199H246.046C243.169 645.489 239.986 646.213 236.634 646.213ZM256.54 643.378H236.091C235.341 643.378 234.73 642.771 234.73 642.024V634.271H237.962V634.971C237.962 635.079 238.005 635.182 238.08 635.259L239.668 636.872C239.745 636.951 239.85 636.995 239.96 636.995C240.07 636.995 240.175 636.951 240.252 636.873L241.849 635.26C241.925 635.183 241.967 635.08 241.967 634.971V634.271H250.656V634.971C250.656 635.08 250.699 635.183 250.775 635.26L252.371 636.873C252.448 636.951 252.553 636.995 252.663 636.995C252.773 636.995 252.878 636.951 252.955 636.873L254.551 635.26C254.627 635.183 254.669 635.08 254.669 634.971V634.271H257.893V642.024C257.893 642.771 257.286 643.378 256.54 643.378ZM256.54 626.647H253.516V625.537C253.516 625.31 253.332 625.126 253.105 625.126H251.944V624.249C251.944 622.967 250.901 621.925 249.619 621.925H243.5C242.217 621.925 241.174 622.967 241.174 624.249V625.126H240.01C239.783 625.126 239.6 625.31 239.6 625.537V626.647H238.515V609.845C238.621 609.327 237.727 609.069 231.616 603.299C231.552 603.242 231.455 603.207 231.381 603.2C231.366 603.199 231.353 603.192 231.339 603.192H224.907C228.349 601.154 232.353 599.971 236.634 599.971C249.381 599.971 259.751 610.341 259.751 623.089C259.751 625.458 259.384 627.742 258.717 629.895V628.8C258.717 627.607 257.745 626.647 256.54 626.647Z" fill="#2A44E2"/>
<path d="M216.742 615.308H227.846C228.073 615.308 228.256 615.124 228.256 614.897C228.256 614.67 228.073 614.487 227.846 614.487H216.742C216.515 614.487 216.331 614.67 216.331 614.897C216.331 615.124 216.515 615.308 216.742 615.308ZM230.969 615.308H234.093C234.32 615.308 234.503 615.124 234.503 614.897C234.503 614.67 234.32 614.487 234.093 614.487H230.969C230.742 614.487 230.559 614.67 230.559 614.897C230.559 615.124 230.742 615.308 230.969 615.308ZM234.093 618.125H222.652C222.425 618.125 222.242 618.308 222.242 618.535C222.242 618.762 222.425 618.946 222.652 618.946H234.093C234.32 618.946 234.503 618.762 234.503 618.535C234.503 618.308 234.32 618.125 234.093 618.125ZM216.742 618.946H219.616C219.843 618.946 220.026 618.762 220.026 618.535C220.026 618.308 219.843 618.125 219.616 618.125H216.742C216.515 618.125 216.331 618.308 216.331 618.535C216.331 618.762 216.515 618.946 216.742 618.946ZM216.742 611.669H219.616C219.843 611.669 220.026 611.485 220.026 611.259C220.026 611.032 219.843 610.848 219.616 610.848H216.742C216.515 610.848 216.331 611.032 216.331 611.259C216.331 611.485 216.515 611.669 216.742 611.669ZM221.482 611.259C221.482 611.485 221.666 611.669 221.893 611.669H228.86C229.087 611.669 229.271 611.485 229.271 611.259C229.271 611.032 229.087 610.848 228.86 610.848H221.893C221.666 610.848 221.482 611.032 221.482 611.259ZM216.742 608.031H225.194C225.421 608.031 225.604 607.847 225.604 607.621C225.604 607.394 225.421 607.21 225.194 607.21H216.742C216.515 607.21 216.331 607.394 216.331 607.621C216.331 607.847 216.515 608.031 216.742 608.031ZM230.707 623.703L230.693 623.705C230.691 623.705 230.69 623.705 230.689 623.705L228.676 623.972C228.452 624.002 228.294 624.208 228.323 624.433C228.353 624.658 228.561 624.814 228.784 624.786L229.853 624.645L227.25 628.198L223.793 624.086C223.712 623.99 223.598 623.949 223.465 623.939C223.339 623.944 223.222 624.006 223.148 624.107L219.595 628.956C219.461 629.139 219.5 629.396 219.683 629.53C219.864 629.663 220.121 629.625 220.257 629.442L223.501 625.014L226.957 629.127C227.038 629.223 227.168 629.275 227.285 629.273C227.411 629.269 227.528 629.207 227.603 629.106L230.487 625.168L230.624 626.194C230.696 626.742 231.509 626.621 231.437 626.087L231.168 624.056C231.137 623.822 230.914 623.677 230.707 623.703ZM253.603 611.389L252.397 611.125C252.298 610.806 252.173 610.504 252.022 610.223L252.683 609.186C252.786 609.024 252.763 608.813 252.628 608.676L251.257 607.298C251.121 607.162 250.908 607.139 250.746 607.24L249.699 607.904C249.405 607.748 249.105 607.624 248.805 607.532L248.534 606.327C248.492 606.139 248.325 606.006 248.134 606.006H246.194C246.002 606.006 245.834 606.14 245.794 606.328L245.529 607.532C245.228 607.623 244.925 607.747 244.623 607.904L243.582 607.241C243.417 607.136 243.206 607.161 243.07 607.298L241.7 608.676C241.565 608.813 241.542 609.024 241.645 609.186L242.306 610.223C242.155 610.505 242.029 610.806 241.93 611.125L240.733 611.389C240.544 611.431 240.41 611.598 240.41 611.79V613.737C240.41 613.93 240.544 614.096 240.733 614.138L241.93 614.403C242.028 614.716 242.152 615.014 242.306 615.304L241.645 616.342C241.542 616.504 241.565 616.715 241.7 616.852L243.07 618.23C243.207 618.367 243.419 618.393 243.583 618.287L244.627 617.618C244.909 617.77 245.211 617.895 245.529 617.992L245.794 619.199C245.834 619.387 246.002 619.521 246.194 619.521H248.134C248.325 619.521 248.492 619.388 248.534 619.201L248.806 617.992C249.121 617.894 249.42 617.769 249.701 617.618L250.745 618.287C250.907 618.39 251.12 618.368 251.257 618.23L252.628 616.852C252.763 616.715 252.786 616.504 252.683 616.342L252.021 615.303C252.171 615.019 252.297 614.718 252.395 614.403L253.603 614.138C253.792 614.097 253.925 613.93 253.925 613.737V611.79C253.925 611.598 253.792 611.43 253.603 611.389ZM253.105 613.407L251.981 613.654C251.831 613.687 251.711 613.801 251.672 613.95C251.562 614.365 251.4 614.754 251.19 615.106C251.111 615.24 251.113 615.406 251.197 615.537L251.814 616.506L250.908 617.417L249.934 616.793C249.803 616.708 249.634 616.707 249.5 616.788C249.156 616.998 248.77 617.159 248.355 617.268C248.206 617.306 248.093 617.425 248.058 617.575L247.805 618.7H246.525L246.278 617.576C246.245 617.426 246.129 617.305 245.979 617.267C245.561 617.159 245.174 616.998 244.828 616.788C244.694 616.707 244.526 616.709 244.394 616.793L243.419 617.417L242.514 616.506L243.131 615.537C243.215 615.406 243.217 615.24 243.138 615.106C242.92 614.742 242.762 614.364 242.656 613.951C242.617 613.802 242.497 613.688 242.346 613.654L241.231 613.408V612.119L242.346 611.873C242.497 611.84 242.617 611.725 242.656 611.576C242.764 611.157 242.926 610.769 243.135 610.424C243.217 610.29 243.215 610.122 243.131 609.99L242.514 609.022L243.42 608.11L244.387 608.727C244.516 608.809 244.679 608.812 244.811 608.737C245.202 608.513 245.592 608.353 245.972 608.262C246.125 608.225 246.244 608.104 246.278 607.951L246.525 606.827H247.805L248.058 607.952C248.093 608.105 248.21 608.224 248.362 608.261C248.743 608.355 249.128 608.514 249.505 608.735C249.637 608.813 249.802 608.808 249.932 608.728L250.907 608.11L251.814 609.022L251.197 609.99C251.112 610.122 251.111 610.29 251.193 610.424C251.401 610.767 251.562 611.155 251.671 611.576C251.711 611.725 251.83 611.841 251.981 611.873L253.105 612.12L253.105 613.407Z" fill="#2A44E2"/>
<path d="M247.163 609.583C245.412 609.583 243.987 611.008 243.987 612.759C243.987 614.516 245.412 615.944 247.163 615.944C248.92 615.944 250.348 614.516 250.348 612.759C250.348 611.008 248.92 609.583 247.163 609.583ZM247.163 615.123C245.865 615.123 244.808 614.063 244.808 612.759C244.808 611.46 245.865 610.404 247.163 610.404C248.467 610.404 249.528 611.46 249.528 612.759C249.528 614.063 248.467 615.123 247.163 615.123ZM256.014 646.425H252.221C251.994 646.425 251.811 646.608 251.811 646.835C251.811 647.062 251.994 647.246 252.221 647.246H256.014C256.241 647.246 256.424 647.062 256.424 646.835C256.424 646.608 256.241 646.425 256.014 646.425ZM250.141 646.425H248.873C248.647 646.425 248.463 646.608 248.463 646.835C248.463 647.062 248.647 647.246 248.873 647.246H250.141C250.368 647.246 250.551 647.062 250.551 646.835C250.551 646.608 250.368 646.425 250.141 646.425ZM210.23 612.1C210.004 612.1 209.82 612.284 209.82 612.511V622.021C209.82 622.248 210.004 622.431 210.23 622.431C210.457 622.431 210.641 622.248 210.641 622.021V612.511C210.641 612.284 210.457 612.1 210.23 612.1ZM210.23 623.95C210.004 623.95 209.82 624.134 209.82 624.361V627.062C209.82 627.288 210.004 627.472 210.23 627.472C210.457 627.472 210.641 627.288 210.641 627.062V624.361C210.641 624.134 210.457 623.95 210.23 623.95Z" fill="#2A44E2"/>
</g>
<defs>
<filter id="filter0_d_102_64" x="0.599998" y="7.6" width="471.8" height="964.8" filterUnits="userSpaceOnUse" color-interpolation-filters="sRGB">
<feFlood flood-opacity="0" result="BackgroundImageFix"/>
<feColorMatrix in="SourceAlpha" type="matrix" values="0 0 0 0 0 0 0 0 0 0 0 0 0 0 0 0 0 0 127 0" result="hardAlpha"/>
<feOffset dy="6"/>
<feGaussianBlur stdDeviation="24.2"/>
<feComposite in2="hardAlpha" operator="out"/>
<feColorMatrix type="matrix" values="0 0 0 0 0 0 0 0 0 0 0 0 0 0 0 0 0 0 0.1 0"/>
<feBlend mode="normal" in2="BackgroundImageFix" result="effect1_dropShadow_102_64"/>
<feBlend mode="normal" in="SourceGraphic" in2="effect1_dropShadow_102_64" result="shape"/>
</filter>
<clipPath id="clip0_102_64">
<rect width="126" height="127" fill="white" transform="translate(314)"/>
</clipPath>
<clipPath id="clip1_102_64">
<rect width="55" height="62" fill="white" transform="translate(209 442)"/>
</clipPath>
<clipPath id="clip2_102_64">
<rect width="55" height="55" fill="white" transform="translate(209 596)"/>
</clipPath>
</defs>
</svg>
