<svg width="65" height="64" viewBox="0 0 65 64" fill="none" xmlns="http://www.w3.org/2000/svg">
<path fill-rule="evenodd" clip-rule="evenodd" d="M44.625 36H56.625C58.835 36 60.625 37.79 60.625 40V56C60.625 58.21 58.835 60 56.625 60H44.625C42.415 60 40.625 58.21 40.625 56V40C40.625 37.79 42.415 36 44.625 36ZM30.625 20C32.217 20 33.743 20.632 34.867 21.758C35.993 22.882 36.625 24.408 36.625 26C36.625 32.926 36.625 47.074 36.625 54C36.625 55.592 35.993 57.118 34.867 58.242C33.743 59.368 32.217 60 30.625 60H20.281C18.691 60 17.165 59.368 16.039 58.242L6.383 48.586C5.257 47.46 4.625 45.934 4.625 44.344V26C4.625 22.686 7.311 20 10.625 20H30.625ZM56.625 40V56H44.625V40H56.625ZM8.625 44V26C8.625 24.896 9.521 24 10.625 24H30.625C31.155 24 31.665 24.21 32.039 24.586C32.415 24.96 32.625 25.47 32.625 26V54C32.625 54.53 32.415 55.04 32.039 55.414C31.665 55.79 31.155 56 30.625 56H20.625V50C20.625 46.686 17.939 44 14.625 44H8.625ZM11.453 48H14.625C15.729 48 16.625 48.896 16.625 50V53.172L11.453 48ZM52.625 46V50C52.625 51.104 51.729 52 50.625 52C49.521 52 48.625 51.104 48.625 50V46C48.625 44.896 49.521 44 50.625 44C51.729 44 52.625 44.896 52.625 46ZM26.625 40H18.625C17.521 40 16.625 39.104 16.625 38C16.625 36.896 17.521 36 18.625 36H26.625C27.729 36 28.625 36.896 28.625 38C28.625 39.104 27.729 40 26.625 40ZM26.625 32H14.625C13.521 32 12.625 31.104 12.625 30C12.625 28.896 13.521 28 14.625 28H26.625C27.729 28 28.625 28.896 28.625 30C28.625 31.104 27.729 32 26.625 32ZM44.625 4H56.625C57.685 4 58.703 4.422 59.453 5.172C60.203 5.922 60.625 6.94 60.625 8C60.625 12.52 60.625 23.48 60.625 28C60.625 29.06 60.203 30.078 59.453 30.828C58.703 31.578 57.685 32 56.625 32H44.625C43.565 32 42.547 31.578 41.797 30.828C41.047 30.078 40.625 29.06 40.625 28C40.625 23.48 40.625 12.52 40.625 8C40.625 6.94 41.047 5.922 41.797 5.172C42.547 4.422 43.565 4 44.625 4ZM46.233 8H56.625V28H46.233L51.657 22.038C53.739 19.748 53.739 16.252 51.657 13.962L46.233 8ZM44.625 12.178L48.697 16.654C49.391 17.418 49.391 18.582 48.697 19.346L44.625 23.822V12.178ZM8.625 4H28.195C28.763 4 29.323 4.12 29.841 4.354L34.269 6.354C35.703 7.002 36.623 8.428 36.623 10C36.623 11.572 35.703 12.998 34.269 13.646L29.841 15.646C29.323 15.88 28.763 16 28.195 16H8.625C6.415 16 4.625 14.21 4.625 12V8C4.625 5.79 6.415 4 8.625 4ZM32.623 10L28.195 12H8.625V8H28.195L32.623 10Z" fill="#0B43F2"/>
</svg>
