<svg width="50" height="61" viewBox="0 0 50 61" fill="none" xmlns="http://www.w3.org/2000/svg">
<g clip-path="url(#clip0_76_1230)">
<path d="M2.664 16.258L5.008 13.914C7.266 11.654 11.234 11.654 13.492 13.914L22.664 23.086L34.664 35.086C35.04 35.46 35.25 35.97 35.25 36.5V44.5C35.25 45.604 34.354 46.5 33.25 46.5H25.25C24.718 46.5 24.21 46.29 23.836 45.914L11.836 33.914L2.664 24.742C0.326001 22.404 0.326001 18.596 2.664 16.258ZM31.25 42.5V37.328L26.078 42.5H31.25ZM14.664 31.086L23.25 39.672L28.422 34.5L19.836 25.914L15.25 21.328L10.078 26.5L14.664 31.086ZM5.492 21.914L7.25 23.672L12.422 18.5L10.664 16.742C9.914 15.992 8.586 15.992 7.836 16.742L5.492 19.086C4.712 19.866 4.712 21.134 5.492 21.914Z" fill="#0B43F2"/>
<path d="M11.25 38.5C12.356 38.5 13.25 39.396 13.25 40.5V54.5C13.25 55.602 14.146 56.5 15.25 56.5H43.25C44.352 56.5 45.25 55.602 45.25 54.5V6.5C45.25 5.398 44.352 4.5 43.25 4.5H15.25C14.146 4.5 13.25 5.398 13.25 6.5C13.25 7.604 12.356 8.5 11.25 8.5C10.144 8.5 9.25 7.604 9.25 6.5C9.25 3.192 11.942 0.5 15.25 0.5H43.25C46.558 0.5 49.25 3.192 49.25 6.5V54.5C49.25 57.808 46.558 60.5 43.25 60.5H15.25C11.942 60.5 9.25 57.808 9.25 54.5V40.5C9.25 39.396 10.144 38.5 11.25 38.5Z" fill="#0B43F2"/>
<path d="M35.25 6.5C36.354 6.5 37.25 7.396 37.25 8.5C37.25 9.604 36.354 10.5 35.25 10.5H23.25C22.144 10.5 21.25 9.604 21.25 8.5C21.25 7.396 22.144 6.5 23.25 6.5H35.25ZM27.25 54.5C26.144 54.5 25.25 53.604 25.25 52.5C25.25 51.396 26.144 50.5 27.25 50.5H31.25C32.354 50.5 33.25 51.396 33.25 52.5C33.25 53.604 32.354 54.5 31.25 54.5H27.25Z" fill="#0B43F2"/>
</g>
<defs>
<clipPath id="clip0_76_1230">
<rect width="50" height="61" fill="white" transform="matrix(-1 0 0 1 50 0)"/>
</clipPath>
</defs>
</svg>
