<svg width="64" height="64" viewBox="0 0 64 64" fill="none" xmlns="http://www.w3.org/2000/svg">
<path fill-rule="evenodd" clip-rule="evenodd" d="M42 8H48C49.592 8 51.118 8.632 52.242 9.758C53.368 10.882 54 12.408 54 14C54 23.04 54 44.96 54 54C54 55.592 53.368 57.118 52.242 58.242C51.118 59.368 49.592 60 48 60C40.336 60 23.664 60 16 60C14.408 60 12.882 59.368 11.758 58.242C10.632 57.118 10 55.592 10 54C10 44.96 10 23.04 10 14C10 12.408 10.632 10.882 11.758 9.758C12.882 8.632 14.408 8 16 8H22C22 6.94 22.422 5.922 23.172 5.172C23.922 4.422 24.94 4 26 4H38C39.06 4 40.078 4.422 40.828 5.172C41.578 5.922 42 6.94 42 8ZM22 12V24.72C22 26.108 22.718 27.394 23.898 28.124C25.076 28.852 26.548 28.918 27.788 28.298L32 26.194L36.212 28.298C37.452 28.918 38.924 28.852 40.102 28.124C41.282 27.394 42 26.108 42 24.72V12H48C48.53 12 49.04 12.21 49.414 12.586C49.79 12.96 50 13.47 50 14V54C50 54.53 49.79 55.04 49.414 55.414C49.04 55.79 48.53 56 48 56H16C15.47 56 14.96 55.79 14.586 55.414C14.21 55.04 14 54.53 14 54V14C14 13.47 14.21 12.96 14.586 12.586C14.96 12.21 15.47 12 16 12H22ZM40 50H28C26.896 50 26 49.104 26 48C26 46.896 26.896 46 28 46H40C41.104 46 42 46.896 42 48C42 49.104 41.104 50 40 50ZM40 42H24C22.896 42 22 41.104 22 40C22 38.896 22.896 38 24 38H40C41.104 38 42 38.896 42 40C42 41.104 41.104 42 40 42ZM26 8V24.72L31.106 22.168C31.668 21.886 32.332 21.886 32.894 22.168L38 24.72V8H26Z" fill="#0B43F2"/>
</svg>
