<svg width="135" height="1194" viewBox="0 0 135 1194" fill="none" xmlns="http://www.w3.org/2000/svg">
<path d="M23.987 1177.94C23.127 1177.94 22.487 1177.28 22.487 1176.44C22.487 1175.58 23.127 1174.96 23.987 1174.96C24.847 1174.96 25.447 1175.58 25.447 1176.44C25.447 1177.28 24.847 1177.94 23.987 1177.94ZM27.587 1177.94C26.727 1177.94 26.087 1177.28 26.087 1176.44C26.087 1175.58 26.727 1174.96 27.587 1174.96C28.427 1174.96 29.047 1175.58 29.047 1176.44C29.047 1177.28 28.427 1177.94 27.587 1177.94ZM25.807 1189.1C23.047 1189.1 21.127 1187.64 21.127 1185C21.127 1182.08 23.047 1180.26 25.807 1180.26C28.567 1180.26 30.427 1182.16 30.427 1185C30.427 1187.58 28.727 1189.1 25.807 1189.1ZM25.807 1186.42C26.707 1186.42 27.387 1185.82 27.387 1184.78C27.387 1183.6 26.707 1182.94 25.807 1182.94C24.827 1182.94 24.167 1183.6 24.167 1184.74C24.167 1185.82 24.747 1186.42 25.807 1186.42ZM37.4455 1189C33.9055 1189 32.7655 1187.72 32.7655 1185.08V1173.88H35.7255V1185.04C35.7255 1185.98 36.2055 1186.42 37.4455 1186.42C37.7255 1186.42 37.8455 1186.8 37.8455 1187.8C37.8455 1188.7 37.7255 1189 37.4455 1189ZM44.7053 1186.42C44.9853 1186.42 45.1053 1186.8 45.1053 1187.8C45.1053 1188.7 44.9853 1189 44.7053 1189C43.3253 1189 42.4653 1188.62 41.9653 1187.92C41.2053 1188.7 39.9453 1189 38.1053 1189H37.4453V1186.42H38.0253C39.6253 1186.42 39.9653 1186 39.9653 1184.3V1180.48H42.9253V1184.58C42.9253 1185.88 43.6453 1186.42 44.7053 1186.42ZM39.2253 1190.54C40.0853 1190.54 40.6853 1191.2 40.6853 1192.06C40.6853 1192.9 40.0853 1193.52 39.2253 1193.52C38.3653 1193.52 37.7253 1192.9 37.7253 1192.06C37.7253 1191.2 38.3653 1190.54 39.2253 1190.54ZM42.8253 1190.54C43.6653 1190.54 44.2853 1191.2 44.2853 1192.06C44.2853 1192.9 43.6653 1193.52 42.8253 1193.52C41.9653 1193.52 41.3253 1192.9 41.3253 1192.06C41.3253 1191.2 41.9653 1190.54 42.8253 1190.54ZM44.7109 1189V1186.42H50.3309C50.5709 1184.64 50.0909 1182.94 47.6309 1182.94C46.9909 1182.94 46.3709 1183.02 45.7309 1183.16L45.0709 1180.72C46.0509 1180.36 47.2909 1180.26 47.8109 1180.26C52.0309 1180.26 53.5309 1182.7 53.3309 1186.42H54.1309C54.4109 1186.42 54.5309 1186.8 54.5309 1187.8C54.5309 1188.7 54.4109 1189 54.1309 1189H44.7109ZM54.125 1189V1186.42C55.525 1186.42 55.865 1185.86 55.865 1184.3V1173.88H58.825V1184.66C58.825 1188.06 57.305 1189 54.125 1189ZM61.1444 1189V1173.88H64.1044V1189H61.1444ZM77.3958 1180.82C76.4958 1180.82 75.9158 1180.16 75.9158 1179.32C75.9158 1178.46 76.4958 1177.84 77.3958 1177.84C78.2958 1177.84 78.8358 1178.46 78.8358 1179.32C78.8358 1180.16 78.2958 1180.82 77.3958 1180.82ZM84.2958 1186.42C84.5758 1186.42 84.6958 1186.8 84.6958 1187.8C84.6958 1188.7 84.5758 1189 84.2958 1189H82.7358C82.1758 1191.56 79.9958 1192.66 77.1758 1192.66C73.2358 1192.66 71.5758 1189.94 71.5758 1187.64C71.5758 1186.5 71.8558 1185.3 72.4958 1183.84L75.0758 1184.76C74.6958 1185.78 74.5358 1186.5 74.5358 1187.24C74.5358 1188.96 75.5558 1189.98 77.2358 1189.98C78.8958 1189.98 79.9158 1189.26 79.9158 1186.86V1181.94H82.8758V1186.42H84.2958ZM91.5608 1186.42C91.8408 1186.42 91.9608 1186.8 91.9608 1187.8C91.9608 1188.7 91.8408 1189 91.5608 1189C90.1808 1189 89.3208 1188.62 88.8208 1187.92C88.0608 1188.7 86.8008 1189 84.9608 1189H84.3008V1186.42H84.8808C86.4808 1186.42 86.8208 1186 86.8208 1184.3V1180.48H89.7808V1184.58C89.7808 1185.88 90.5008 1186.42 91.5608 1186.42ZM86.0808 1190.54C86.9408 1190.54 87.5408 1191.2 87.5408 1192.06C87.5408 1192.9 86.9408 1193.52 86.0808 1193.52C85.2208 1193.52 84.5808 1192.9 84.5808 1192.06C84.5808 1191.2 85.2208 1190.54 86.0808 1190.54ZM89.6808 1190.54C90.5208 1190.54 91.1408 1191.2 91.1408 1192.06C91.1408 1192.9 90.5208 1193.52 89.6808 1193.52C88.8208 1193.52 88.1808 1192.9 88.1808 1192.06C88.1808 1191.2 88.8208 1190.54 89.6808 1190.54ZM96.7664 1189H91.5664V1186.42H92.9064C92.6264 1185.88 92.4864 1185.22 92.4864 1184.48C92.4864 1181.98 94.5464 1180.26 97.4264 1180.26C100.506 1180.26 102.006 1182.42 102.006 1184.48C102.006 1186.4 101.106 1189 96.7664 1189ZM95.4464 1184.88C95.4464 1185.4 95.6264 1185.98 95.8864 1186.42H97.1064C98.7064 1186.42 99.0464 1185.48 99.0464 1184.62C99.0464 1183.62 98.3464 1182.94 97.3064 1182.94C96.2464 1182.94 95.4464 1183.58 95.4464 1184.88ZM104.328 1173.88H107.288V1185.04C107.288 1185.98 107.768 1186.42 109.008 1186.42C109.288 1186.42 109.408 1186.8 109.408 1187.8C109.408 1188.7 109.288 1189 109.008 1189C105.468 1189 104.328 1187.72 104.328 1185.08V1173.88ZM107.528 1173.02H103.968V1171.68H104.608C104.468 1171.42 104.388 1171.14 104.388 1170.86C104.388 1169.92 105.108 1169.26 106.288 1169.26C106.668 1169.26 107.068 1169.32 107.348 1169.4L107.108 1170.68C106.948 1170.64 106.728 1170.6 106.488 1170.6C106.068 1170.6 105.788 1170.78 105.788 1171.18C105.788 1171.36 105.848 1171.52 105.928 1171.68H107.528V1173.02ZM110.788 1178.16C109.928 1178.16 109.288 1177.5 109.288 1176.66C109.288 1175.8 109.928 1175.18 110.788 1175.18C111.648 1175.18 112.248 1175.8 112.248 1176.66C112.248 1177.5 111.648 1178.16 110.788 1178.16ZM114.388 1178.16C113.528 1178.16 112.888 1177.5 112.888 1176.66C112.888 1175.8 113.528 1175.18 114.388 1175.18C115.228 1175.18 115.848 1175.8 115.848 1176.66C115.848 1177.5 115.228 1178.16 114.388 1178.16ZM109.008 1189V1186.42H109.588C111.188 1186.42 111.528 1186 111.528 1184.3V1180.48H114.488V1184.66C114.488 1187.98 113.108 1189 109.668 1189H109.008Z" fill="black" fill-opacity="0.79"/>
<path d="M18.7041 950.42C18.9841 950.42 19.1041 950.8 19.1041 951.8C19.1041 952.7 18.9841 953 18.7041 953H16.9441C15.2641 953 13.9441 952.84 12.8041 952.6C10.9841 953.14 10.6241 953.96 10.6241 954.5C10.6241 955.22 11.3241 955.52 12.4041 955.52C13.1441 955.52 13.5441 955.48 13.9041 955.42L14.4241 957.88C13.8241 958.1 13.2241 958.2 12.2641 958.2C9.46406 958.2 7.58406 957.02 7.58406 954.76C7.58406 953.2 8.48406 951.94 10.6241 951.04C9.84406 949.82 8.84406 948.62 8.04406 948C8.16406 946.96 8.34406 946 8.62406 945.34C10.0441 944.68 11.8041 944.26 13.4041 944.26C15.9241 944.26 17.5241 945.34 17.5241 947.22C17.5241 948.36 16.9841 949.48 16.2641 950.42H18.7041ZM10.9441 947.16L10.9241 947.24C11.7641 948.02 12.4641 948.74 13.1241 950C14.0441 949.36 14.5441 948.54 14.5441 948C14.5441 947.44 14.0641 946.94 12.7441 946.94C12.2041 946.94 11.4241 947.02 10.9441 947.16ZM18.707 953V950.42H19.287C20.887 950.42 21.227 950 21.227 948.3V944.48H24.187V948.66C24.187 951.98 22.807 953 19.367 953H18.707ZM20.227 957.52C19.367 957.52 18.727 956.9 18.727 956.06C18.727 955.2 19.367 954.54 20.227 954.54C21.087 954.54 21.687 955.2 21.687 956.06C21.687 956.9 21.087 957.52 20.227 957.52ZM23.827 957.52C22.967 957.52 22.327 956.9 22.327 956.06C22.327 955.2 22.967 954.54 23.827 954.54C24.667 954.54 25.287 955.2 25.287 956.06C25.287 956.9 24.667 957.52 23.827 957.52ZM25.9592 956.82L25.5992 954.32C27.2792 954.14 27.8992 953.7 27.8992 952.36V944.48H30.8592V951.76C30.8592 955.2 29.3392 956.68 25.9592 956.82ZM37.8673 953C34.3273 953 33.1873 951.72 33.1873 949.08V937.88H36.1473V949.04C36.1473 949.98 36.6273 950.42 37.8673 950.42C38.1473 950.42 38.2673 950.8 38.2673 951.8C38.2673 952.7 38.1473 953 37.8673 953ZM38.4072 953H37.8672V950.42H38.3872C39.5672 950.42 39.7072 949.84 39.7072 948.82V945.94H42.6672V949.3C42.6672 950 43.0472 950.42 43.9672 950.42C45.1672 950.42 45.2872 949.84 45.2872 948.82V945.94H48.2472V949.3C48.2472 950 48.6272 950.42 49.5472 950.42C50.7272 950.42 50.8672 949.82 50.8672 948.82V944.48H53.8272V948.58C53.8272 949.88 54.5472 950.42 55.6072 950.42C55.8872 950.42 56.0072 950.8 56.0072 951.8C56.0072 952.7 55.8872 953 55.6072 953C54.2472 953 53.3872 952.62 52.8872 951.94C52.1872 952.62 51.1672 953 49.9672 953C49.0472 953 48.0872 952.78 47.3072 952.24C46.5072 952.82 45.5872 953 44.4672 953C43.3272 953 42.3072 952.84 41.5272 952.2C40.8272 952.78 40.0472 953 38.4072 953ZM43.4272 942.34C43.4272 941.48 44.0672 940.86 44.9272 940.86C45.7872 940.86 46.3872 941.48 46.3872 942.34C46.3872 943.2 45.7872 943.86 44.9272 943.86C44.0672 943.86 43.4272 943.2 43.4272 942.34ZM48.5272 943.86C47.6672 943.86 47.0272 943.2 47.0272 942.34C47.0272 941.48 47.6672 940.86 48.5272 940.86C49.3672 940.86 49.9872 941.48 49.9872 942.34C49.9872 943.2 49.3672 943.86 48.5272 943.86ZM46.7872 940.8C45.9672 940.8 45.3272 940.12 45.3272 939.3C45.3272 938.46 45.9672 937.78 46.7872 937.78C47.6872 937.78 48.2672 938.46 48.2672 939.3C48.2672 940.12 47.6872 940.8 46.7872 940.8ZM55.6016 950.42H56.5416V950.08C56.5416 947.34 58.5016 945.3 61.5216 945.3C64.3216 945.3 66.0616 947.18 66.0616 949.96C66.0616 950.12 66.0616 950.28 66.0416 950.42H67.1216C67.4016 950.42 67.5216 950.8 67.5216 951.8C67.5216 952.7 67.4016 953 67.1216 953H64.9616C64.1016 953.92 62.7416 954.42 61.0016 954.42H58.9616C58.3416 953.98 57.8616 953.5 57.4816 953H55.6016V950.42ZM59.5216 950.42C59.5616 950.9 59.7416 951.5 59.9416 951.84H61.0216C62.2816 951.84 63.1016 951.16 63.1016 949.9C63.1016 948.96 62.5016 948 61.3616 948C60.1616 948 59.5016 948.94 59.5016 950.14C59.5016 950.22 59.5016 950.32 59.5216 950.42ZM67.125 953V950.42C68.525 950.42 68.865 949.86 68.865 948.3V937.88H71.825V948.66C71.825 952.06 70.305 953 67.125 953ZM74.1444 953V937.88H77.1044V953H74.1444ZM90.3958 944.82C89.4958 944.82 88.9158 944.16 88.9158 943.32C88.9158 942.46 89.4958 941.84 90.3958 941.84C91.2958 941.84 91.8358 942.46 91.8358 943.32C91.8358 944.16 91.2958 944.82 90.3958 944.82ZM97.2958 950.42C97.5758 950.42 97.6958 950.8 97.6958 951.8C97.6958 952.7 97.5758 953 97.2958 953H95.7358C95.1758 955.56 92.9958 956.66 90.1758 956.66C86.2358 956.66 84.5758 953.94 84.5758 951.64C84.5758 950.5 84.8558 949.3 85.4958 947.84L88.0758 948.76C87.6958 949.78 87.5358 950.5 87.5358 951.24C87.5358 952.96 88.5558 953.98 90.2358 953.98C91.8958 953.98 92.9158 953.26 92.9158 950.86V945.94H95.8758V950.42H97.2958ZM104.561 950.42C104.841 950.42 104.961 950.8 104.961 951.8C104.961 952.7 104.841 953 104.561 953C103.181 953 102.321 952.62 101.821 951.92C101.061 952.7 99.8008 953 97.9608 953H97.3008V950.42H97.8808C99.4808 950.42 99.8208 950 99.8208 948.3V944.48H102.781V948.58C102.781 949.88 103.501 950.42 104.561 950.42ZM99.0808 954.54C99.9408 954.54 100.541 955.2 100.541 956.06C100.541 956.9 99.9408 957.52 99.0808 957.52C98.2208 957.52 97.5808 956.9 97.5808 956.06C97.5808 955.2 98.2208 954.54 99.0808 954.54ZM102.681 954.54C103.521 954.54 104.141 955.2 104.141 956.06C104.141 956.9 103.521 957.52 102.681 957.52C101.821 957.52 101.181 956.9 101.181 956.06C101.181 955.2 101.821 954.54 102.681 954.54ZM109.766 953H104.566V950.42H105.906C105.626 949.88 105.486 949.22 105.486 948.48C105.486 945.98 107.546 944.26 110.426 944.26C113.506 944.26 115.006 946.42 115.006 948.48C115.006 950.4 114.106 953 109.766 953ZM108.446 948.88C108.446 949.4 108.626 949.98 108.886 950.42H110.106C111.706 950.42 112.046 949.48 112.046 948.62C112.046 947.62 111.346 946.94 110.306 946.94C109.246 946.94 108.446 947.58 108.446 948.88ZM117.328 937.88H120.288V949.04C120.288 949.98 120.768 950.42 122.008 950.42C122.288 950.42 122.408 950.8 122.408 951.8C122.408 952.7 122.288 953 122.008 953C118.468 953 117.328 951.72 117.328 949.08V937.88ZM120.528 937.02H116.968V935.68H117.608C117.468 935.42 117.388 935.14 117.388 934.86C117.388 933.92 118.108 933.26 119.288 933.26C119.668 933.26 120.068 933.32 120.348 933.4L120.108 934.68C119.948 934.64 119.728 934.6 119.488 934.6C119.068 934.6 118.788 934.78 118.788 935.18C118.788 935.36 118.848 935.52 118.928 935.68H120.528V937.02ZM123.788 942.16C122.928 942.16 122.288 941.5 122.288 940.66C122.288 939.8 122.928 939.18 123.788 939.18C124.648 939.18 125.248 939.8 125.248 940.66C125.248 941.5 124.648 942.16 123.788 942.16ZM127.388 942.16C126.528 942.16 125.888 941.5 125.888 940.66C125.888 939.8 126.528 939.18 127.388 939.18C128.228 939.18 128.848 939.8 128.848 940.66C128.848 941.5 128.228 942.16 127.388 942.16ZM122.008 953V950.42H122.588C124.188 950.42 124.528 950 124.528 948.3V944.48H127.488V948.66C127.488 951.98 126.108 953 122.668 953H122.008Z" fill="black" fill-opacity="0.79"/>
<path d="M8.52406 671.42C7.66406 671.42 7.02406 670.76 7.02406 669.92C7.02406 669.06 7.66406 668.44 8.52406 668.44C9.38406 668.44 9.98406 669.06 9.98406 669.92C9.98406 670.76 9.38406 671.42 8.52406 671.42ZM12.1241 671.42C11.2641 671.42 10.6241 670.76 10.6241 669.92C10.6241 669.06 11.2641 668.44 12.1241 668.44C12.9641 668.44 13.5841 669.06 13.5841 669.92C13.5841 670.76 12.9641 671.42 12.1241 671.42ZM16.1841 671.48H19.1441V676.72C19.1441 678.78 18.0041 680 15.7441 680H6.24406C2.98406 680 1.06406 678.22 1.06406 675.8C1.06406 674.56 1.40406 673.36 1.70406 672.56L4.24406 673.22C4.00406 674.26 3.92406 674.72 3.92406 675.18C3.92406 676.58 5.04406 677.42 6.72406 677.42H14.6641C15.7841 677.42 16.1841 676.98 16.1841 675.74V671.48ZM26.2697 680C22.7297 680 21.5897 678.72 21.5897 676.08V664.88H24.5497V676.04C24.5497 676.98 25.0297 677.42 26.2697 677.42C26.5497 677.42 26.6697 677.8 26.6697 678.8C26.6697 679.7 26.5497 680 26.2697 680ZM26.2695 680V677.42H32.0695C32.0295 675.28 31.1295 673.92 26.7495 673.1V670.32L32.4095 664.86L34.3295 666.82L29.7295 671.26C34.1295 672.52 34.9095 674.78 35.0095 677.42H36.3495C36.6295 677.42 36.7495 677.8 36.7495 678.8C36.7495 679.7 36.6295 680 36.3495 680H26.2695ZM42.8077 677.42C43.0877 677.42 43.2077 677.8 43.2077 678.8C43.2077 679.7 43.0877 680 42.8077 680C41.4477 680 40.5877 679.62 40.0877 678.92C39.3077 679.72 38.0677 680 36.3477 680V677.42C37.7477 677.42 38.0877 676.86 38.0877 675.3V664.88H41.0477V675.92C41.1677 676.98 41.8477 677.42 42.8077 677.42ZM44.5925 669.16C43.7325 669.16 43.0925 668.5 43.0925 667.66C43.0925 666.8 43.7325 666.18 44.5925 666.18C45.4525 666.18 46.0525 666.8 46.0525 667.66C46.0525 668.5 45.4525 669.16 44.5925 669.16ZM48.1925 669.16C47.3325 669.16 46.6925 668.5 46.6925 667.66C46.6925 666.8 47.3325 666.18 48.1925 666.18C49.0325 666.18 49.6525 666.8 49.6525 667.66C49.6525 668.5 49.0325 669.16 48.1925 669.16ZM50.0725 677.42C50.3525 677.42 50.4725 677.8 50.4725 678.8C50.4725 679.7 50.3525 680 50.0725 680C48.6925 680 47.8325 679.62 47.3325 678.92C46.5725 679.7 45.3125 680 43.4725 680H42.8125V677.42H43.3925C44.9925 677.42 45.3325 677 45.3325 675.3V671.48H48.2925V675.58C48.2925 676.88 49.0125 677.42 50.0725 677.42ZM50.0781 677.42H51.0181V677.08C51.0181 674.34 52.9781 672.3 55.9981 672.3C58.7981 672.3 60.5381 674.18 60.5381 676.96C60.5381 677.12 60.5381 677.28 60.5181 677.42H61.5981C61.8781 677.42 61.9981 677.8 61.9981 678.8C61.9981 679.7 61.8781 680 61.5981 680H59.4381C58.5781 680.92 57.2181 681.42 55.4781 681.42H53.4381C52.8181 680.98 52.3381 680.5 51.9581 680H50.0781V677.42ZM53.9981 677.42C54.0381 677.9 54.2181 678.5 54.4181 678.84H55.4981C56.7581 678.84 57.5781 678.16 57.5781 676.9C57.5781 675.96 56.9781 675 55.8381 675C54.6381 675 53.9781 675.94 53.9781 677.14C53.9781 677.22 53.9781 677.32 53.9981 677.42ZM61.6016 677.42H62.5416V677.08C62.5416 674.34 64.5016 672.3 67.5216 672.3C70.3216 672.3 72.0616 674.18 72.0616 676.96C72.0616 677.12 72.0616 677.28 72.0416 677.42H73.1216C73.4016 677.42 73.5216 677.8 73.5216 678.8C73.5216 679.7 73.4016 680 73.1216 680H70.9616C70.1016 680.92 68.7416 681.42 67.0016 681.42H64.9616C64.3416 680.98 63.8616 680.5 63.4816 680H61.6016V677.42ZM65.5216 677.42C65.5616 677.9 65.7416 678.5 65.9416 678.84H67.0216C68.2816 678.84 69.1016 678.16 69.1016 676.9C69.1016 675.96 68.5016 675 67.3616 675C66.1616 675 65.5016 675.94 65.5016 677.14C65.5016 677.22 65.5016 677.32 65.5216 677.42ZM73.125 680V677.42C74.525 677.42 74.865 676.86 74.865 675.3V664.88H77.825V675.66C77.825 679.06 76.305 680 73.125 680ZM80.1444 680V664.88H83.1044V680H80.1444ZM96.3958 671.82C95.4958 671.82 94.9158 671.16 94.9158 670.32C94.9158 669.46 95.4958 668.84 96.3958 668.84C97.2958 668.84 97.8358 669.46 97.8358 670.32C97.8358 671.16 97.2958 671.82 96.3958 671.82ZM103.296 677.42C103.576 677.42 103.696 677.8 103.696 678.8C103.696 679.7 103.576 680 103.296 680H101.736C101.176 682.56 98.9958 683.66 96.1758 683.66C92.2358 683.66 90.5758 680.94 90.5758 678.64C90.5758 677.5 90.8558 676.3 91.4958 674.84L94.0758 675.76C93.6958 676.78 93.5358 677.5 93.5358 678.24C93.5358 679.96 94.5558 680.98 96.2358 680.98C97.8958 680.98 98.9158 680.26 98.9158 677.86V672.94H101.876V677.42H103.296ZM110.561 677.42C110.841 677.42 110.961 677.8 110.961 678.8C110.961 679.7 110.841 680 110.561 680C109.181 680 108.321 679.62 107.821 678.92C107.061 679.7 105.801 680 103.961 680H103.301V677.42H103.881C105.481 677.42 105.821 677 105.821 675.3V671.48H108.781V675.58C108.781 676.88 109.501 677.42 110.561 677.42ZM105.081 681.54C105.941 681.54 106.541 682.2 106.541 683.06C106.541 683.9 105.941 684.52 105.081 684.52C104.221 684.52 103.581 683.9 103.581 683.06C103.581 682.2 104.221 681.54 105.081 681.54ZM108.681 681.54C109.521 681.54 110.141 682.2 110.141 683.06C110.141 683.9 109.521 684.52 108.681 684.52C107.821 684.52 107.181 683.9 107.181 683.06C107.181 682.2 107.821 681.54 108.681 681.54ZM115.766 680H110.566V677.42H111.906C111.626 676.88 111.486 676.22 111.486 675.48C111.486 672.98 113.546 671.26 116.426 671.26C119.506 671.26 121.006 673.42 121.006 675.48C121.006 677.4 120.106 680 115.766 680ZM114.446 675.88C114.446 676.4 114.626 676.98 114.886 677.42H116.106C117.706 677.42 118.046 676.48 118.046 675.62C118.046 674.62 117.346 673.94 116.306 673.94C115.246 673.94 114.446 674.58 114.446 675.88ZM123.328 664.88H126.288V676.04C126.288 676.98 126.768 677.42 128.008 677.42C128.288 677.42 128.408 677.8 128.408 678.8C128.408 679.7 128.288 680 128.008 680C124.468 680 123.328 678.72 123.328 676.08V664.88ZM126.528 664.02H122.968V662.68H123.608C123.468 662.42 123.388 662.14 123.388 661.86C123.388 660.92 124.108 660.26 125.288 660.26C125.668 660.26 126.068 660.32 126.348 660.4L126.108 661.68C125.948 661.64 125.728 661.6 125.488 661.6C125.068 661.6 124.788 661.78 124.788 662.18C124.788 662.36 124.848 662.52 124.928 662.68H126.528V664.02ZM129.788 669.16C128.928 669.16 128.288 668.5 128.288 667.66C128.288 666.8 128.928 666.18 129.788 666.18C130.648 666.18 131.248 666.8 131.248 667.66C131.248 668.5 130.648 669.16 129.788 669.16ZM133.388 669.16C132.528 669.16 131.888 668.5 131.888 667.66C131.888 666.8 132.528 666.18 133.388 666.18C134.228 666.18 134.848 666.8 134.848 667.66C134.848 668.5 134.228 669.16 133.388 669.16ZM128.008 680V677.42H128.588C130.188 677.42 130.528 677 130.528 675.3V671.48H133.488V675.66C133.488 678.98 132.108 680 128.668 680H128.008Z" fill="black" fill-opacity="0.79"/>
<path d="M15.4147 418.42C14.5547 418.42 13.9147 417.76 13.9147 416.92C13.9147 416.06 14.5547 415.44 15.4147 415.44C16.2747 415.44 16.8747 416.06 16.8747 416.92C16.8747 417.76 16.2747 418.42 15.4147 418.42ZM19.0147 418.42C18.1547 418.42 17.5147 417.76 17.5147 416.92C17.5147 416.06 18.1547 415.44 19.0147 415.44C19.8547 415.44 20.4747 416.06 20.4747 416.92C20.4747 417.76 19.8547 418.42 19.0147 418.42ZM23.0747 418.48H26.0347V423.72C26.0347 425.78 24.8947 427 22.6347 427H13.1347C9.87469 427 7.95469 425.22 7.95469 422.8C7.95469 421.56 8.29469 420.36 8.59469 419.56L11.1347 420.22C10.8947 421.26 10.8147 421.72 10.8147 422.18C10.8147 423.58 11.9347 424.42 13.6147 424.42H21.5547C22.6747 424.42 23.0747 423.98 23.0747 422.74V418.48ZM33.1603 427C29.6203 427 28.4803 425.72 28.4803 423.08V411.88H31.4403V423.04C31.4403 423.98 31.9203 424.42 33.1603 424.42C33.4403 424.42 33.5603 424.8 33.5603 425.8C33.5603 426.7 33.4403 427 33.1603 427ZM33.1602 427V424.42C34.5402 424.42 34.9002 424.06 34.9002 422.3V418.48H37.8602V422.66C37.8602 426.06 36.3402 427 33.1602 427ZM35.5802 431.52C34.6802 431.52 34.1002 430.9 34.1002 430.06C34.1002 429.2 34.6802 428.54 35.5802 428.54C36.4802 428.54 37.0202 429.2 37.0202 430.06C37.0202 430.9 36.4802 431.52 35.5802 431.52ZM45.5252 424.42C45.8052 424.42 45.9252 424.8 45.9252 425.8C45.9252 426.7 45.8052 427 45.5252 427H43.8652C43.5252 429.56 41.9852 430.7 39.0452 430.82L38.6852 428.32C40.3652 428.14 40.9852 427.7 40.9852 426.36V418.48H43.9452V424.42H45.5252ZM45.5234 427V424.42H51.3234C51.2834 422.28 50.3834 420.92 46.0034 420.1V417.32L51.6634 411.86L53.5834 413.82L48.9834 418.26C53.3834 419.52 54.1634 421.78 54.2634 424.42H55.6034C55.8834 424.42 56.0034 424.8 56.0034 425.8C56.0034 426.7 55.8834 427 55.6034 427H45.5234ZM55.6016 424.42H56.5416V424.08C56.5416 421.34 58.5016 419.3 61.5216 419.3C64.3216 419.3 66.0616 421.18 66.0616 423.96C66.0616 424.12 66.0616 424.28 66.0416 424.42H67.1216C67.4016 424.42 67.5216 424.8 67.5216 425.8C67.5216 426.7 67.4016 427 67.1216 427H64.9616C64.1016 427.92 62.7416 428.42 61.0016 428.42H58.9616C58.3416 427.98 57.8616 427.5 57.4816 427H55.6016V424.42ZM59.5216 424.42C59.5616 424.9 59.7416 425.5 59.9416 425.84H61.0216C62.2816 425.84 63.1016 425.16 63.1016 423.9C63.1016 422.96 62.5016 422 61.3616 422C60.1616 422 59.5016 422.94 59.5016 424.14C59.5016 424.22 59.5016 424.32 59.5216 424.42ZM67.125 427V424.42C68.525 424.42 68.865 423.86 68.865 422.3V411.88H71.825V422.66C71.825 426.06 70.305 427 67.125 427ZM74.1444 427V411.88H77.1044V427H74.1444ZM90.3958 418.82C89.4958 418.82 88.9158 418.16 88.9158 417.32C88.9158 416.46 89.4958 415.84 90.3958 415.84C91.2958 415.84 91.8358 416.46 91.8358 417.32C91.8358 418.16 91.2958 418.82 90.3958 418.82ZM97.2958 424.42C97.5758 424.42 97.6958 424.8 97.6958 425.8C97.6958 426.7 97.5758 427 97.2958 427H95.7358C95.1758 429.56 92.9958 430.66 90.1758 430.66C86.2358 430.66 84.5758 427.94 84.5758 425.64C84.5758 424.5 84.8558 423.3 85.4958 421.84L88.0758 422.76C87.6958 423.78 87.5358 424.5 87.5358 425.24C87.5358 426.96 88.5558 427.98 90.2358 427.98C91.8958 427.98 92.9158 427.26 92.9158 424.86V419.94H95.8758V424.42H97.2958ZM104.561 424.42C104.841 424.42 104.961 424.8 104.961 425.8C104.961 426.7 104.841 427 104.561 427C103.181 427 102.321 426.62 101.821 425.92C101.061 426.7 99.8008 427 97.9608 427H97.3008V424.42H97.8808C99.4808 424.42 99.8208 424 99.8208 422.3V418.48H102.781V422.58C102.781 423.88 103.501 424.42 104.561 424.42ZM99.0808 428.54C99.9408 428.54 100.541 429.2 100.541 430.06C100.541 430.9 99.9408 431.52 99.0808 431.52C98.2208 431.52 97.5808 430.9 97.5808 430.06C97.5808 429.2 98.2208 428.54 99.0808 428.54ZM102.681 428.54C103.521 428.54 104.141 429.2 104.141 430.06C104.141 430.9 103.521 431.52 102.681 431.52C101.821 431.52 101.181 430.9 101.181 430.06C101.181 429.2 101.821 428.54 102.681 428.54ZM109.766 427H104.566V424.42H105.906C105.626 423.88 105.486 423.22 105.486 422.48C105.486 419.98 107.546 418.26 110.426 418.26C113.506 418.26 115.006 420.42 115.006 422.48C115.006 424.4 114.106 427 109.766 427ZM108.446 422.88C108.446 423.4 108.626 423.98 108.886 424.42H110.106C111.706 424.42 112.046 423.48 112.046 422.62C112.046 421.62 111.346 420.94 110.306 420.94C109.246 420.94 108.446 421.58 108.446 422.88ZM117.328 411.88H120.288V423.04C120.288 423.98 120.768 424.42 122.008 424.42C122.288 424.42 122.408 424.8 122.408 425.8C122.408 426.7 122.288 427 122.008 427C118.468 427 117.328 425.72 117.328 423.08V411.88ZM120.528 411.02H116.968V409.68H117.608C117.468 409.42 117.388 409.14 117.388 408.86C117.388 407.92 118.108 407.26 119.288 407.26C119.668 407.26 120.068 407.32 120.348 407.4L120.108 408.68C119.948 408.64 119.728 408.6 119.488 408.6C119.068 408.6 118.788 408.78 118.788 409.18C118.788 409.36 118.848 409.52 118.928 409.68H120.528V411.02ZM123.788 416.16C122.928 416.16 122.288 415.5 122.288 414.66C122.288 413.8 122.928 413.18 123.788 413.18C124.648 413.18 125.248 413.8 125.248 414.66C125.248 415.5 124.648 416.16 123.788 416.16ZM127.388 416.16C126.528 416.16 125.888 415.5 125.888 414.66C125.888 413.8 126.528 413.18 127.388 413.18C128.228 413.18 128.848 413.8 128.848 414.66C128.848 415.5 128.228 416.16 127.388 416.16ZM122.008 427V424.42H122.588C124.188 424.42 124.528 424 124.528 422.3V418.48H127.488V422.66C127.488 425.98 126.108 427 122.668 427H122.008Z" fill="black" fill-opacity="0.79"/>
<path d="M38.8272 152.42C39.1072 152.42 39.2272 152.8 39.2272 153.8C39.2272 154.7 39.1072 155 38.8272 155H38.0672C38.4672 155.46 38.6672 156.02 38.6672 156.66C38.6672 158.58 36.0072 160.2 31.1472 160.2C25.8472 160.2 23.5672 158.1 23.5672 155.16C23.5672 154.54 23.6672 153.66 24.1072 152.34L26.7272 153.04C26.5672 153.86 26.5272 154.26 26.5272 154.72C26.5272 156.58 27.7872 157.32 31.3472 157.32C34.3872 157.32 35.7072 156.7 35.7072 155.9C35.7072 155.36 35.3272 154.88 34.1672 154.58L31.1872 153.8L31.9272 151.6L34.6272 152.24C35.3272 152.4 35.9672 152.42 36.6072 152.42H38.8272ZM29.3072 161.74C30.1672 161.74 30.7672 162.4 30.7672 163.26C30.7672 164.1 30.1672 164.72 29.3072 164.72C28.4472 164.72 27.8072 164.1 27.8072 163.26C27.8072 162.4 28.4472 161.74 29.3072 161.74ZM32.9072 161.74C33.7472 161.74 34.3672 162.4 34.3672 163.26C34.3672 164.1 33.7472 164.72 32.9072 164.72C32.0472 164.72 31.4072 164.1 31.4072 163.26C31.4072 162.4 32.0472 161.74 32.9072 161.74ZM45.3159 152.42C45.5959 152.42 45.7159 152.8 45.7159 153.8C45.7159 154.7 45.5959 155 45.3159 155C43.9359 155 43.0759 154.62 42.5759 153.92C41.8159 154.72 40.5759 155 38.8359 155V152.42C40.2159 152.42 40.5759 152.06 40.5759 150.3V146.48H43.5359V150.58C43.5359 151.88 44.2559 152.42 45.3159 152.42ZM41.7959 156.54C42.6959 156.54 43.2359 157.2 43.2359 158.06C43.2359 158.9 42.6959 159.52 41.7959 159.52C40.8959 159.52 40.3159 158.9 40.3159 158.06C40.3159 157.2 40.8959 156.54 41.7959 156.54ZM45.3203 155V152.42H46.8403V139.88H49.8003V149.26C51.5203 147.08 53.7603 146.26 55.4803 146.26C58.7003 146.26 60.4403 148.2 60.4403 151.48C60.4403 152.52 60.2803 153.7 59.9203 155H45.3203ZM49.8203 152.42H57.4803C57.5003 152.18 57.5403 151.96 57.5403 151.76C57.5403 150.04 56.7203 148.94 55.1003 148.94C53.3003 148.94 51.3803 150.38 49.8203 152.42ZM73.3958 146.82C72.4958 146.82 71.9158 146.16 71.9158 145.32C71.9158 144.46 72.4958 143.84 73.3958 143.84C74.2958 143.84 74.8358 144.46 74.8358 145.32C74.8358 146.16 74.2958 146.82 73.3958 146.82ZM80.2958 152.42C80.5758 152.42 80.6958 152.8 80.6958 153.8C80.6958 154.7 80.5758 155 80.2958 155H78.7358C78.1758 157.56 75.9958 158.66 73.1758 158.66C69.2358 158.66 67.5758 155.94 67.5758 153.64C67.5758 152.5 67.8558 151.3 68.4958 149.84L71.0758 150.76C70.6958 151.78 70.5358 152.5 70.5358 153.24C70.5358 154.96 71.5558 155.98 73.2358 155.98C74.8958 155.98 75.9158 155.26 75.9158 152.86V147.94H78.8758V152.42H80.2958ZM87.5608 152.42C87.8408 152.42 87.9608 152.8 87.9608 153.8C87.9608 154.7 87.8408 155 87.5608 155C86.1808 155 85.3208 154.62 84.8208 153.92C84.0608 154.7 82.8008 155 80.9608 155H80.3008V152.42H80.8808C82.4808 152.42 82.8208 152 82.8208 150.3V146.48H85.7808V150.58C85.7808 151.88 86.5008 152.42 87.5608 152.42ZM82.0808 156.54C82.9408 156.54 83.5408 157.2 83.5408 158.06C83.5408 158.9 82.9408 159.52 82.0808 159.52C81.2208 159.52 80.5808 158.9 80.5808 158.06C80.5808 157.2 81.2208 156.54 82.0808 156.54ZM85.6808 156.54C86.5208 156.54 87.1408 157.2 87.1408 158.06C87.1408 158.9 86.5208 159.52 85.6808 159.52C84.8208 159.52 84.1808 158.9 84.1808 158.06C84.1808 157.2 84.8208 156.54 85.6808 156.54ZM92.7664 155H87.5664V152.42H88.9064C88.6264 151.88 88.4864 151.22 88.4864 150.48C88.4864 147.98 90.5464 146.26 93.4264 146.26C96.5064 146.26 98.0064 148.42 98.0064 150.48C98.0064 152.4 97.1064 155 92.7664 155ZM91.4464 150.88C91.4464 151.4 91.6264 151.98 91.8864 152.42H93.1064C94.7064 152.42 95.0464 151.48 95.0464 150.62C95.0464 149.62 94.3464 148.94 93.3064 148.94C92.2464 148.94 91.4464 149.58 91.4464 150.88ZM100.328 139.88H103.288V151.04C103.288 151.98 103.768 152.42 105.008 152.42C105.288 152.42 105.408 152.8 105.408 153.8C105.408 154.7 105.288 155 105.008 155C101.468 155 100.328 153.72 100.328 151.08V139.88ZM103.528 139.02H99.968V137.68H100.608C100.468 137.42 100.388 137.14 100.388 136.86C100.388 135.92 101.108 135.26 102.288 135.26C102.668 135.26 103.068 135.32 103.348 135.4L103.108 136.68C102.948 136.64 102.728 136.6 102.488 136.6C102.068 136.6 101.788 136.78 101.788 137.18C101.788 137.36 101.848 137.52 101.928 137.68H103.528V139.02ZM106.788 144.16C105.928 144.16 105.288 143.5 105.288 142.66C105.288 141.8 105.928 141.18 106.788 141.18C107.648 141.18 108.248 141.8 108.248 142.66C108.248 143.5 107.648 144.16 106.788 144.16ZM110.388 144.16C109.528 144.16 108.888 143.5 108.888 142.66C108.888 141.8 109.528 141.18 110.388 141.18C111.228 141.18 111.848 141.8 111.848 142.66C111.848 143.5 111.228 144.16 110.388 144.16ZM105.008 155V152.42H105.588C107.188 152.42 107.528 152 107.528 150.3V146.48H110.488V150.66C110.488 153.98 109.108 155 105.668 155H105.008Z" fill="black" fill-opacity="0.79"/>
<path d="M41.2954 1091.05C41.2954 1091.4 41.0064 1091.69 40.6509 1091.69C40.2942 1091.69 40.0063 1091.4 40.0063 1091.05V1074.35C40.0063 1073.44 40.377 1072.62 40.9742 1072.02C41.5726 1071.43 42.3976 1071.05 43.3053 1071.05C44.2108 1071.05 45.0358 1071.43 45.6353 1072.02L45.6363 1072.02C46.2336 1072.62 46.6053 1073.44 46.6053 1074.35V1083.57C46.6053 1083.93 46.3163 1084.22 45.9607 1084.22C45.6041 1084.22 45.3162 1083.93 45.3162 1083.57V1074.35C45.3162 1073.8 45.0896 1073.3 44.7243 1072.93L44.7265 1072.93L44.7243 1072.93C44.3623 1072.57 43.8596 1072.34 43.3053 1072.34C42.7531 1072.34 42.2504 1072.57 41.8862 1072.93C41.5221 1073.3 41.2954 1073.8 41.2954 1074.35V1091.05Z" fill="#474748"/>
<path d="M40.0087 1091.02C40.0237 1090.67 40.3234 1090.39 40.6779 1090.41C41.0324 1090.42 41.3074 1090.72 41.2924 1091.07C41.2924 1091.09 41.0432 1095.55 43.8684 1097.64L43.8888 1097.66C47.7302 1100.74 47.5938 1103.94 47.4326 1107.72C47.4101 1108.25 47.3864 1108.8 47.3757 1109.39H57.6098C57.628 1108.7 57.6689 1107.84 57.714 1106.87C57.9439 1102.03 58.2962 1094.59 56.3433 1092.63C56.0919 1092.38 56.0919 1091.97 56.3433 1091.72C56.5946 1091.47 57.0028 1091.47 57.2542 1091.72C59.6078 1094.07 59.2383 1101.87 58.9987 1106.94C58.9397 1108.17 58.8902 1109.23 58.8902 1110.04C58.8902 1110.39 58.6013 1110.68 58.2457 1110.68H46.7258C46.3702 1110.68 46.0813 1110.39 46.0813 1110.04C46.0813 1109.26 46.1156 1108.45 46.1489 1107.67C46.295 1104.24 46.4186 1101.33 43.0831 1098.66C39.7208 1096.15 40.0076 1091.03 40.0087 1091.02Z" fill="#474748"/>
<path d="M53.6104 1095.59C53.8629 1095.84 53.8629 1096.25 53.6104 1096.5C53.3591 1096.75 52.9509 1096.75 52.6995 1096.5L44.5827 1088.38L44.5816 1088.38C44.5688 1088.37 44.5569 1088.35 44.5451 1088.34C43.9274 1087.7 43.6191 1086.87 43.6191 1086.05H43.6213C43.6213 1085.2 43.9414 1084.36 44.5816 1083.72L44.5838 1083.72L44.5816 1083.72H44.5827C44.5945 1083.7 44.6085 1083.69 44.6214 1083.68C45.2573 1083.06 46.0866 1082.75 46.9148 1082.75V1082.75C47.7603 1082.75 48.6067 1083.07 49.248 1083.72L57.2542 1091.72C57.5066 1091.97 57.5066 1092.38 57.2542 1092.63C57.0028 1092.88 56.5946 1092.88 56.3433 1092.63L48.3371 1084.63C47.9461 1084.24 47.4315 1084.04 46.9148 1084.04V1084.04C46.4132 1084.04 45.9094 1084.22 45.5216 1084.6C45.513 1084.61 45.5033 1084.62 45.4937 1084.63L45.4926 1084.63C45.1016 1085.02 44.9061 1085.53 44.9061 1086.05H44.9082C44.9082 1086.55 45.093 1087.06 45.4636 1087.44C45.4732 1087.45 45.484 1087.46 45.4937 1087.47L53.6104 1095.59ZM45.7053 1112.9H59.2662V1110.68H45.7053V1112.9ZM59.9107 1114.19H45.0607C44.7041 1114.19 44.4162 1113.9 44.4162 1113.55V1110.04C44.4162 1109.68 44.7041 1109.39 45.0607 1109.39H59.9107C60.2663 1109.39 60.5553 1109.68 60.5553 1110.04V1113.55C60.5553 1113.9 60.2663 1114.19 59.9107 1114.19ZM94.9937 1091.05C94.9937 1091.4 94.7058 1091.69 94.3491 1091.69C93.9936 1091.69 93.7046 1091.4 93.7046 1091.05V1074.35C93.7046 1073.8 93.4779 1073.3 93.1138 1072.93C92.7496 1072.57 92.2469 1072.34 91.6947 1072.34C91.1404 1072.34 90.6377 1072.57 90.2757 1072.93L90.2735 1072.93L90.2757 1072.93C89.9104 1073.3 89.6838 1073.8 89.6838 1074.35V1083.57C89.6838 1083.93 89.3959 1084.22 89.0393 1084.22C88.6837 1084.22 88.3947 1083.93 88.3947 1083.57V1074.35C88.3947 1073.44 88.7664 1072.62 89.3637 1072.02L89.3647 1072.02C89.9642 1071.43 90.7892 1071.05 91.6947 1071.05C92.6024 1071.05 93.4274 1071.43 94.0258 1072.02C94.623 1072.62 94.9937 1073.44 94.9937 1074.35V1091.05Z" fill="#474748"/>
<path d="M93.7076 1091.07C93.6926 1090.72 93.9676 1090.42 94.3221 1090.41C94.6765 1090.39 94.9763 1090.67 94.9913 1091.02C94.9924 1091.03 95.2792 1096.15 91.9169 1098.66C88.5814 1101.33 88.705 1104.24 88.8511 1107.67C88.8844 1108.45 88.9187 1109.26 88.9187 1110.04C88.9187 1110.39 88.6298 1110.68 88.2742 1110.68H76.7543C76.3987 1110.68 76.1098 1110.39 76.1098 1110.04C76.1098 1109.23 76.0603 1108.17 76.0013 1106.94C75.7617 1101.87 75.3922 1094.07 77.7458 1091.72C77.9972 1091.47 78.4054 1091.47 78.6567 1091.72C78.9081 1091.97 78.9081 1092.38 78.6567 1092.63C76.7038 1094.59 77.0561 1102.03 77.286 1106.87C77.3311 1107.84 77.372 1108.7 77.3902 1109.39H87.6243C87.6136 1108.8 87.5899 1108.25 87.5674 1107.72C87.4062 1103.94 87.2698 1100.74 91.1112 1097.66L91.1316 1097.64C93.9568 1095.55 93.7076 1091.09 93.7076 1091.07Z" fill="#474748"/>
<path d="M82.3006 1096.5C82.0492 1096.75 81.641 1096.75 81.3896 1096.5C81.1372 1096.25 81.1372 1095.84 81.3896 1095.59L89.5064 1087.47C89.5161 1087.46 89.5269 1087.45 89.5365 1087.44C89.9071 1087.06 90.0919 1086.55 90.0919 1086.05H90.094C90.094 1085.53 89.8985 1085.02 89.5075 1084.63L89.5064 1084.63C89.4968 1084.62 89.4871 1084.61 89.4785 1084.6C89.0907 1084.22 88.5869 1084.04 88.0853 1084.04V1084.04C87.5686 1084.04 87.054 1084.24 86.663 1084.63L78.6568 1092.63C78.4055 1092.88 77.9973 1092.88 77.7459 1092.63C77.4935 1092.38 77.4935 1091.97 77.7459 1091.72L85.7521 1083.72C86.3934 1083.07 87.2398 1082.75 88.0853 1082.75V1082.75C88.9135 1082.75 89.7428 1083.06 90.3787 1083.68C90.3916 1083.69 90.4056 1083.7 90.4174 1083.72H90.4185L90.4163 1083.72L90.4185 1083.72C91.0587 1084.36 91.3788 1085.2 91.3788 1086.05H91.381C91.381 1086.87 91.0727 1087.7 90.455 1088.34C90.4432 1088.35 90.4313 1088.37 90.4185 1088.38L90.4174 1088.38L82.3006 1096.5ZM89.9394 1114.19H75.0894C74.7338 1114.19 74.4448 1113.9 74.4448 1113.55V1110.04C74.4448 1109.68 74.7338 1109.39 75.0894 1109.39H89.9394C90.296 1109.39 90.5839 1109.68 90.5839 1110.04V1113.55C90.5839 1113.9 90.296 1114.19 89.9394 1114.19ZM75.7339 1112.9H89.2948V1110.68H75.7339V1112.9Z" fill="#474748"/>
<path d="M67.5 1067.76C68.4485 1066.28 69.4378 1065.13 70.6377 1064.31C72.0933 1063.31 73.825 1062.81 76.1163 1062.81C78.6514 1062.81 80.9535 1063.7 82.626 1065.13C84.3254 1066.59 85.3771 1068.6 85.3771 1070.84C85.3771 1074.71 83.1578 1078.54 79.8309 1082.34C76.5674 1086.07 72.2426 1089.78 67.9178 1093.48C67.6718 1093.69 67.313 1093.69 67.0767 1093.48C62.7541 1089.77 58.4314 1086.07 55.169 1082.34C51.8411 1078.54 49.6228 1074.71 49.6228 1070.84C49.6228 1068.6 50.6745 1066.59 52.3739 1065.13C54.0464 1063.7 56.3485 1062.81 58.8836 1062.81C63.1128 1062.81 65.3902 1064.46 67.5 1067.76ZM71.3628 1065.37C70.1071 1066.23 69.0887 1067.55 68.0596 1069.31C68.0048 1069.41 67.9243 1069.49 67.8222 1069.55C67.515 1069.73 67.1218 1069.62 66.9435 1069.31C64.9143 1065.84 62.8969 1064.1 58.8836 1064.1C56.6632 1064.1 54.6566 1064.87 53.2096 1066.11C51.7906 1067.32 50.9119 1069 50.9119 1070.84C50.9119 1074.35 53.0023 1077.91 56.1358 1081.49C59.2306 1085.03 63.3492 1088.59 67.5 1092.15C71.6507 1088.59 75.7693 1085.03 78.8641 1081.49C81.9976 1077.91 84.088 1074.35 84.088 1070.84C84.088 1069 83.2093 1067.32 81.7903 1066.11C80.3433 1064.87 78.3367 1064.1 76.1163 1064.1C74.1 1064.1 72.5993 1064.52 71.3628 1065.37Z" fill="#0B43F2"/>
<path d="M67.5 1070.99C68.1423 1070.99 68.7256 1071.25 69.1478 1071.67C69.571 1072.09 69.8332 1072.68 69.8332 1073.32V1076.85H73.3652C74.0076 1076.85 74.5909 1077.11 75.013 1077.54C75.4352 1077.96 75.6984 1078.54 75.6984 1079.18C75.6984 1079.83 75.4352 1080.41 75.013 1080.83C74.5909 1081.25 74.0076 1081.52 73.3652 1081.52H69.8332V1085.05C69.8332 1085.69 69.571 1086.28 69.1478 1086.7C68.7256 1087.12 68.1423 1087.38 67.5 1087.38C66.8576 1087.38 66.2743 1087.12 65.8521 1086.7C65.4289 1086.28 65.1667 1085.69 65.1667 1085.05V1081.52H61.6347C60.9923 1081.52 60.409 1081.25 59.9869 1080.83C59.5647 1080.41 59.3015 1079.83 59.3015 1079.18C59.3015 1078.54 59.5647 1077.96 59.9869 1077.54C60.409 1077.11 60.9923 1076.85 61.6347 1076.85H65.1667V1073.32C65.1667 1072.68 65.4289 1072.09 65.8521 1071.67C66.2743 1071.25 66.8576 1070.99 67.5 1070.99ZM68.2369 1072.58C68.0478 1072.39 67.7868 1072.28 67.5 1072.28C67.2131 1072.28 66.9521 1072.39 66.763 1072.58C66.574 1072.77 66.4558 1073.03 66.4558 1073.32V1077.5C66.4558 1077.85 66.1668 1078.14 65.8113 1078.14H61.6347C61.349 1078.14 61.0879 1078.26 60.8978 1078.45C60.7087 1078.64 60.5906 1078.9 60.5906 1079.18C60.5906 1079.47 60.7087 1079.73 60.8978 1079.92C61.0879 1080.11 61.349 1080.23 61.6347 1080.23H65.8113C66.1668 1080.23 66.4558 1080.52 66.4558 1080.87V1085.05C66.4558 1085.34 66.574 1085.6 66.763 1085.79C66.9521 1085.98 67.2131 1086.09 67.5 1086.09C67.7868 1086.09 68.0478 1085.98 68.2369 1085.79C68.4259 1085.6 68.5441 1085.34 68.5441 1085.05V1080.87C68.5441 1080.52 68.8331 1080.23 69.1886 1080.23H73.3652C73.6509 1080.23 73.912 1080.11 74.1021 1079.92C74.2912 1079.73 74.4093 1079.47 74.4093 1079.18C74.4093 1078.9 74.2912 1078.64 74.1021 1078.45C73.912 1078.26 73.6509 1078.14 73.3652 1078.14H69.1886C68.8331 1078.14 68.5441 1077.85 68.5441 1077.5V1073.32C68.5441 1073.03 68.4259 1072.77 68.2369 1072.58Z" fill="#0B43F2"/>
<path d="M66.3542 55C66.2499 55 66.1456 54.9851 66.0448 54.9576C45.9904 49.3396 43.5498 37.0093 43.4558 36.4879C43.4434 36.4206 43.4373 36.3524 43.4375 36.284V2.34094C43.4376 2.11435 43.5048 1.89286 43.6307 1.70448C43.7566 1.51609 43.9355 1.36926 44.1449 1.28256C44.3542 1.19585 44.5846 1.17316 44.8068 1.21735C45.029 1.26154 45.2332 1.37064 45.3934 1.53083C46.6414 2.78785 48.1262 3.78495 49.762 4.46448C51.3978 5.144 53.152 5.49246 54.9233 5.48969C59.0185 5.48969 62.8525 3.6449 65.4421 0.427397C65.8786 -0.114583 66.8297 -0.114583 67.2663 0.427397C69.8558 3.6449 73.6886 5.48969 77.7839 5.48969C81.376 5.48969 84.7608 4.0826 87.3149 1.53083C87.4751 1.37064 87.6793 1.26154 87.9015 1.21735C88.1238 1.17316 88.3541 1.19585 88.5635 1.28256C88.7728 1.36926 88.9517 1.51609 89.0776 1.70448C89.2036 1.89286 89.2708 2.11435 89.2708 2.34094V36.284C89.2708 36.3527 89.2651 36.4203 89.2525 36.4879C89.1585 37.0093 86.7168 49.3396 66.6624 54.9576C66.562 54.9855 66.4583 54.9997 66.3542 55ZM45.7292 36.1636C45.8449 36.6564 46.553 39.2906 49.114 42.4165C51.7173 45.5916 56.8151 49.9297 66.3542 52.6636C75.8921 49.9285 80.9899 45.5904 83.5932 42.4165C86.1507 39.2975 86.8623 36.6655 86.9792 36.1625V4.81708C84.304 6.75137 81.0851 7.78904 77.7839 7.78135C75.6442 7.78333 73.5267 7.34813 71.5613 6.50245C69.5958 5.65677 67.8239 4.41844 66.3542 2.86344C64.8842 4.41847 63.1121 5.65681 61.1465 6.50249C59.1808 7.34816 57.0632 7.78335 54.9233 7.78135C51.5832 7.78135 48.3955 6.74323 45.7292 4.81708V36.1636Z" fill="#0B43F2"/>
<path d="M70.9376 40.1042H61.7709V30.9375H52.6042V21.7708H61.7709V12.6042H70.9376V21.7708H80.1042V30.9375H70.9376V40.1042ZM64.0626 37.8125H68.6459V28.6458H77.8126V24.0625H68.6459V14.8958H64.0626V24.0625H54.8959V28.6458H64.0626V37.8125Z" fill="#0B43F2"/>
<path d="M66.3542 338C66.2499 338 66.1456 337.985 66.0448 337.958C45.9904 332.34 43.5498 320.009 43.4558 319.488C43.4434 319.421 43.4373 319.352 43.4375 319.284V285.341C43.4376 285.114 43.5048 284.893 43.6307 284.704C43.7566 284.516 43.9355 284.369 44.1449 284.283C44.3542 284.196 44.5846 284.173 44.8068 284.217C45.029 284.262 45.2332 284.371 45.3934 284.531C46.6414 285.788 48.1262 286.785 49.762 287.464C51.3978 288.144 53.152 288.492 54.9233 288.49C59.0185 288.49 62.8525 286.645 65.4421 283.427C65.8786 282.885 66.8297 282.885 67.2663 283.427C69.8558 286.645 73.6886 288.49 77.7839 288.49C81.376 288.49 84.7608 287.083 87.3149 284.531C87.4751 284.371 87.6793 284.262 87.9015 284.217C88.1238 284.173 88.3541 284.196 88.5635 284.283C88.7728 284.369 88.9517 284.516 89.0776 284.704C89.2036 284.893 89.2708 285.114 89.2708 285.341V319.284C89.2708 319.353 89.2651 319.42 89.2525 319.488C89.1585 320.009 86.7168 332.34 66.6624 337.958C66.562 337.985 66.4583 338 66.3542 338ZM45.7292 319.164C45.8449 319.656 46.553 322.291 49.114 325.416C51.7173 328.592 56.8151 332.93 66.3542 335.664C75.8921 332.929 80.9899 328.59 83.5932 325.416C86.1507 322.297 86.8623 319.666 86.9792 319.162V287.817C84.304 289.751 81.0851 290.789 77.7839 290.781C75.6442 290.783 73.5267 290.348 71.5613 289.502C69.5958 288.657 67.8239 287.418 66.3542 285.863C64.8842 287.418 63.1121 288.657 61.1465 289.502C59.1808 290.348 57.0632 290.783 54.9233 290.781C51.5832 290.781 48.3955 289.743 45.7292 287.817V319.164Z" fill="#0B43F2"/>
<path d="M70.9376 323.104H61.7709V313.937H52.6042V304.771H61.7709V295.604H70.9376V304.771H80.1042V313.937H70.9376V323.104ZM64.0626 320.812H68.6459V311.646H77.8126V307.062H68.6459V297.896H64.0626V307.062H54.8959V311.646H64.0626V320.812Z" fill="#0B43F2"/>
<g clip-path="url(#clip0_107_63)">
<path d="M67.5007 602C67.3398 602 67.1802 601.973 67.0303 601.919C59.0757 599.092 52.2349 594.103 47.4095 587.611C42.5842 581.118 40.0008 573.427 40 565.551L40 546.796C40.0001 546.522 40.1006 546.256 40.285 546.042C40.4694 545.828 40.7269 545.678 41.0155 545.616L67.2058 540.032C67.3993 539.989 67.6007 539.989 67.7942 540.032L93.9845 545.616C94.2731 545.678 94.5306 545.828 94.715 546.042C94.8994 546.256 94.9999 546.522 95 546.796V565.551C94.9992 573.427 92.4158 581.118 87.5905 587.611C82.7651 594.103 75.9243 599.092 67.9697 601.919C67.8202 601.973 67.6611 602 67.5007 602ZM42.6206 547.76V565.551C42.6206 580.408 52.5973 593.987 67.5007 599.491C82.4027 593.985 92.3794 580.405 92.3794 565.551V547.76L67.5007 542.453L42.6206 547.76Z" fill="#0B43F2"/>
<path d="M67.5006 593.872C67.2974 593.872 67.0969 593.829 66.9149 593.745C61.2496 591.127 56.4849 587.102 53.1545 582.123C49.8241 577.143 48.0595 571.405 48.0583 565.551V552.721C48.0585 552.447 48.1589 552.182 48.3433 551.967C48.5277 551.753 48.7852 551.603 49.0738 551.541L67.2058 547.674C67.3994 547.633 67.6006 547.633 67.7941 547.674L85.9261 551.541C86.2147 551.603 86.4722 551.753 86.6566 551.967C86.8411 552.182 86.9415 552.447 86.9416 552.721V565.551C86.9507 571.923 84.8607 578.147 80.9496 583.395C77.6783 587.796 73.2519 591.358 68.085 593.747C67.9033 593.83 67.7033 593.873 67.5006 593.872ZM50.679 553.684V565.551C50.6801 570.852 52.2475 576.051 55.212 580.589C58.1765 585.127 62.4255 588.831 67.5006 591.3C72.0204 589.098 75.8931 585.913 78.785 582.02C82.3947 577.176 84.3242 571.432 84.3171 565.551V553.684L67.5006 550.097L50.679 553.684Z" fill="#0B43F2"/>
<path d="M64.6508 577.234C64.3033 577.234 63.97 577.106 63.7244 576.879L58.0259 571.614C57.7802 571.387 57.6422 571.079 57.6423 570.757C57.6424 570.598 57.6764 570.441 57.7423 570.294C57.8082 570.147 57.9048 570.014 58.0265 569.901C58.1483 569.789 58.2928 569.699 58.4518 569.639C58.6108 569.578 58.7813 569.547 58.9534 569.547C59.301 569.547 59.6343 569.674 59.8799 569.902L64.6508 574.311L75.1201 564.635C75.2417 564.523 75.3862 564.434 75.5452 564.373C75.7041 564.312 75.8746 564.28 76.0467 564.28C76.2188 564.28 76.3892 564.311 76.5482 564.372C76.7073 564.433 76.8518 564.522 76.9735 564.635C77.0952 564.747 77.1918 564.881 77.2578 565.028C77.3237 565.174 77.3576 565.332 77.3577 565.491C77.3578 565.65 77.3239 565.808 77.2581 565.955C77.1923 566.102 77.0958 566.235 76.9742 566.348L65.5745 576.883C65.3289 577.108 64.9968 577.234 64.6508 577.234Z" fill="#0B43F2"/>
</g>
<g clip-path="url(#clip1_107_63)">
<path d="M69.1048 817.766V844.05H43.7292V811.603H62.3389L69.1048 817.766Z" fill="white"/>
<path d="M69.1049 817.766H62.3391V811.603L69.1049 817.766Z" fill="white"/>
<path d="M89.3033 836.829V850.025C89.3033 851.002 88.5177 851.788 87.54 851.788H67.0912C66.1135 851.788 65.3196 851.002 65.3196 850.025V836.829C65.3196 835.852 66.1135 835.058 67.0912 835.058H87.54C88.5178 835.058 89.3033 835.852 89.3033 836.829Z" fill="white"/>
<path d="M89.3062 841.861H65.3213V836.799C65.3213 835.84 66.0993 835.062 67.059 835.062H87.5686C88.5282 835.062 89.3062 835.84 89.3062 836.799V841.861Z" fill="white"/>
<path d="M74.1526 833.537H71.0103V835.058H74.1526V833.537Z" fill="white"/>
<path d="M84.106 833.537H80.9636V835.058H84.106V833.537Z" fill="white"/>
<path d="M69.3726 839.922H72.5568V842.972L70.9602 844.584L69.3726 842.972V839.922Z" fill="white"/>
<path d="M85.2585 839.922V842.972L83.6627 844.584L82.0669 842.972V839.922H85.2585Z" fill="white"/>
<path d="M65.3651 857.331C64.1791 857.228 62.9942 857.045 61.8435 856.786C61.6222 856.731 61.4025 856.874 61.3528 857.095C61.3031 857.316 61.4418 857.536 61.6631 857.586C62.8499 857.853 64.0716 858.043 65.2946 858.148C65.5388 858.165 65.7204 857.988 65.7387 857.775C65.7583 857.549 65.5908 857.35 65.3651 857.331ZM58.9254 855.945C53.8409 854.155 49.4727 850.885 46.2929 846.488C46.1594 846.304 45.9025 846.263 45.7197 846.395C45.5362 846.528 45.4949 846.785 45.6276 846.969C48.9059 851.502 53.41 854.874 58.6529 856.72C58.8619 856.795 59.1002 856.686 59.1763 856.469C59.2517 856.255 59.1395 856.021 58.9254 855.945ZM94.1686 825.352C92.2374 816.413 85.7047 808.867 77.1198 805.654C76.9082 805.576 76.6709 805.682 76.5915 805.896C76.5121 806.107 76.6204 806.344 76.8328 806.424C85.158 809.538 91.4935 816.858 93.367 825.525C93.4802 826.058 94.2849 825.887 94.1686 825.352Z" fill="#2A44E2"/>
<path d="M67.6343 807.15C62.7253 807.15 58.1648 808.646 54.3632 811.192H50.4501C53.4534 808.594 56.9985 806.682 60.8194 805.657C61.0386 805.597 61.1685 805.372 61.1096 805.153C61.0507 804.935 60.8242 804.809 60.607 804.863C56.3651 806.002 52.4469 808.192 49.2089 811.192H43.7293C43.5024 811.192 43.3188 811.376 43.3188 811.603V844.05C43.3188 844.277 43.5024 844.46 43.7293 844.46H47.7906C52.0963 850.833 59.3827 855.034 67.6343 855.034C71.7053 855.034 75.5343 854 78.8938 852.199H87.5398C88.7383 852.199 89.7139 851.223 89.7139 850.024V841.876C89.7141 841.871 89.7171 841.866 89.7171 841.86V840.327C90.911 837.483 91.5721 834.362 91.5721 831.089C91.5721 817.889 80.8339 807.15 67.6343 807.15ZM44.1397 812.013H61.9289V817.766C61.9289 817.993 62.1125 818.176 62.3393 818.176H68.6945V834.647H67.0911C65.8741 834.647 64.911 835.615 64.911 836.8V836.813C64.911 836.819 64.9094 836.824 64.9094 836.829V840.389H48.152V831.678C48.152 831.451 47.9685 831.267 47.7416 831.267C47.5147 831.267 47.3311 831.451 47.3311 831.678V840.8C47.3311 841.027 47.5147 841.21 47.7416 841.21H64.9094V843.639H44.1397V812.013ZM68.045 817.355H62.7498V812.532C62.8388 812.613 68.3895 817.669 68.045 817.355ZM83.695 834.647H81.3743V833.947C81.5141 833.947 83.8416 833.947 83.695 833.947V834.647ZM88.893 836.829V841.45H85.6695V839.921C85.6695 839.694 85.4859 839.511 85.2591 839.511H82.0669C81.84 839.511 81.6564 839.694 81.6564 839.921V841.45H72.9673V839.921C72.9673 839.694 72.7837 839.511 72.5568 839.511H69.3727C69.1458 839.511 68.9622 839.694 68.9622 839.921V841.45H65.7319V836.813C65.7408 836.057 66.3658 835.472 67.0591 835.472H87.5686C88.2672 835.472 88.893 836.065 88.893 836.829ZM84.8486 840.332V842.803L83.663 844.001L82.4773 842.803V840.332H84.8486ZM72.1464 840.332V842.803L70.9615 844L69.7831 842.803V840.332H72.1464ZM82.123 833.126H80.9638C80.7369 833.126 80.5534 833.31 80.5534 833.537V834.647H74.5634V833.537C74.5634 833.31 74.3798 833.126 74.1529 833.126H72.9953V832.249C72.9953 831.42 73.6703 830.745 74.5001 830.745H80.6191C81.448 830.745 82.123 831.42 82.123 832.249V833.126ZM73.7425 833.947V834.647H71.4209V833.947C71.5073 833.947 73.8287 833.947 73.7425 833.947ZM67.6343 854.213C59.8664 854.213 52.988 850.355 48.7944 844.46H64.9094V850.024C64.9094 851.223 65.8883 852.199 67.0911 852.199H77.0457C74.1687 853.489 70.9857 854.213 67.6343 854.213ZM87.5398 851.378H67.0912C66.3408 851.378 65.7303 850.771 65.7303 850.024V842.271H68.9622V842.971C68.9622 843.079 69.0047 843.182 69.0801 843.259L70.6681 844.872C70.7451 844.951 70.8501 844.995 70.9599 844.995C71.0698 844.995 71.1756 844.951 71.2526 844.873L72.8486 843.26C72.9248 843.183 72.9673 843.08 72.9673 842.971V842.271H81.6564V842.971C81.6564 843.08 81.6989 843.183 81.7751 843.26L83.3712 844.873C83.4481 844.951 83.5532 844.995 83.663 844.995C83.7728 844.995 83.8778 844.951 83.9548 844.873L85.5509 843.26C85.627 843.183 85.6695 843.08 85.6695 842.971V842.271H88.893V850.024C88.893 850.771 88.2861 851.378 87.5398 851.378ZM87.5398 834.647H84.5159V833.537C84.5159 833.31 84.3324 833.126 84.1055 833.126H82.9439V832.249C82.9439 830.967 81.9009 829.925 80.6191 829.925H74.5001C73.2174 829.925 72.1744 830.967 72.1744 832.249V833.126H71.0104C70.7836 833.126 70.6 833.31 70.6 833.537V834.647H69.5154V817.845C69.6208 817.327 68.7269 817.069 62.6159 811.299C62.5522 811.242 62.4546 811.207 62.3807 811.2C62.3666 811.199 62.3536 811.192 62.3393 811.192H55.9076C59.3487 809.154 63.3529 807.971 67.6343 807.971C80.381 807.971 90.7512 818.341 90.7512 831.089C90.7512 833.458 90.3838 835.742 89.7171 837.895V836.8C89.7171 835.607 88.7451 834.647 87.5398 834.647Z" fill="#2A44E2"/>
<path d="M47.7415 823.308H58.846C59.0729 823.308 59.2565 823.124 59.2565 822.897C59.2565 822.67 59.0729 822.487 58.846 822.487H47.7415C47.5146 822.487 47.3311 822.67 47.3311 822.897C47.3311 823.124 47.5146 823.308 47.7415 823.308ZM61.9693 823.308H65.0929C65.3198 823.308 65.5034 823.124 65.5034 822.897C65.5034 822.67 65.3198 822.487 65.0929 822.487H61.9693C61.7424 822.487 61.5588 822.67 61.5588 822.897C61.5588 823.124 61.7424 823.308 61.9693 823.308ZM65.0929 826.125H53.6521C53.4252 826.125 53.2417 826.308 53.2417 826.535C53.2417 826.762 53.4252 826.946 53.6521 826.946H65.0929C65.3198 826.946 65.5034 826.762 65.5034 826.535C65.5034 826.308 65.3198 826.125 65.0929 826.125ZM47.7415 826.946H50.6158C50.8427 826.946 51.0263 826.762 51.0263 826.535C51.0263 826.308 50.8427 826.125 50.6158 826.125H47.7415C47.5146 826.125 47.3311 826.308 47.3311 826.535C47.3311 826.762 47.5146 826.946 47.7415 826.946ZM47.7415 819.669H50.6158C50.8427 819.669 51.0263 819.485 51.0263 819.259C51.0263 819.032 50.8427 818.848 50.6158 818.848H47.7415C47.5146 818.848 47.3311 819.032 47.3311 819.259C47.3311 819.485 47.5146 819.669 47.7415 819.669ZM52.4825 819.259C52.4825 819.485 52.6661 819.669 52.8929 819.669H59.8601C60.087 819.669 60.2706 819.485 60.2706 819.259C60.2706 819.032 60.087 818.848 59.8601 818.848H52.8929C52.6661 818.848 52.4825 819.032 52.4825 819.259ZM47.7415 816.031H56.1938C56.4206 816.031 56.6042 815.847 56.6042 815.621C56.6042 815.394 56.4206 815.21 56.1938 815.21H47.7415C47.5146 815.21 47.3311 815.394 47.3311 815.621C47.3311 815.847 47.5146 816.031 47.7415 816.031ZM61.7067 831.703L61.6926 831.705C61.6914 831.705 61.6901 831.705 61.6889 831.705L59.6762 831.972C59.4517 832.002 59.2938 832.208 59.3234 832.433C59.3531 832.658 59.5611 832.814 59.7844 832.786L60.8526 832.645L58.2496 836.198L54.7929 832.086C54.7119 831.99 54.5981 831.949 54.465 831.939C54.3391 831.944 54.2221 832.006 54.1475 832.107L50.5946 836.956C50.4607 837.139 50.5004 837.396 50.6832 837.53C50.864 837.663 51.1211 837.625 51.2567 837.442L54.5006 833.014L57.9574 837.127C58.0384 837.223 58.1682 837.275 58.2853 837.273C58.4111 837.269 58.5282 837.207 58.6027 837.106L61.4874 833.168L61.6238 834.194C61.696 834.742 62.509 834.621 62.4374 834.087L62.1677 832.056C62.1368 831.822 61.9143 831.677 61.7067 831.703ZM84.6032 819.389L83.3967 819.125C83.2981 818.806 83.1731 818.504 83.0224 818.223L83.6829 817.186C83.7864 817.024 83.7631 816.813 83.6276 816.676L82.2568 815.298C82.1213 815.162 81.9081 815.139 81.7461 815.24L80.6992 815.904C80.405 815.748 80.1052 815.624 79.8053 815.532L79.5344 814.327C79.4919 814.139 79.3251 814.006 79.1335 814.006H77.1943C77.0019 814.006 76.8344 814.14 76.7935 814.328L76.529 815.532C76.2283 815.623 75.9253 815.747 75.6231 815.904L74.5817 815.241C74.4174 815.136 74.2058 815.161 74.0703 815.298L72.7002 816.676C72.5648 816.813 72.5423 817.024 72.6449 817.186L73.3055 818.223C73.1548 818.505 73.0289 818.806 72.9303 819.125L71.7327 819.389C71.5443 819.431 71.4104 819.598 71.4104 819.79V821.737C71.4104 821.93 71.5443 822.096 71.7327 822.138L72.9303 822.403C73.0281 822.716 73.1524 823.014 73.3063 823.304L72.6449 824.342C72.5423 824.504 72.5648 824.715 72.7002 824.852L74.0703 826.23C74.2066 826.367 74.419 826.393 74.5825 826.287L75.6271 825.618C75.9093 825.77 76.2115 825.895 76.529 825.992L76.7935 827.199C76.8344 827.387 77.0019 827.521 77.1943 827.521H79.1335C79.3251 827.521 79.4919 827.388 79.5344 827.201L79.8061 825.992C80.1212 825.894 80.4202 825.769 80.7008 825.618L81.7445 826.287C81.9072 826.39 82.1205 826.368 82.2568 826.23L83.6276 824.852C83.7631 824.715 83.7863 824.504 83.6829 824.342L83.0207 823.303C83.1714 823.019 83.2965 822.718 83.3951 822.403L84.6032 822.138C84.7916 822.097 84.9255 821.93 84.9255 821.737V819.79C84.9255 819.598 84.7916 819.43 84.6032 819.389ZM84.1046 821.407L82.9807 821.654C82.8308 821.687 82.7113 821.801 82.672 821.95C82.5622 822.365 82.4003 822.754 82.1903 823.106C82.1109 823.24 82.1133 823.406 82.1967 823.537L82.8139 824.506L81.9081 825.417L80.934 824.793C80.8026 824.708 80.6342 824.707 80.4995 824.788C80.1556 824.998 79.77 825.159 79.3548 825.268C79.2065 825.306 79.0926 825.425 79.0582 825.575L78.8049 826.7H77.5246L77.2777 825.576C77.2448 825.426 77.1294 825.305 76.9795 825.267C76.561 825.159 76.1738 824.998 75.8283 824.788C75.6944 824.707 75.5261 824.709 75.3938 824.793L74.419 825.417L73.5139 824.506L74.1312 823.537C74.2146 823.406 74.217 823.24 74.1376 823.106C73.9204 822.742 73.7624 822.364 73.6558 821.951C73.6165 821.802 73.4971 821.688 73.3464 821.654L72.2313 821.408V820.119L73.3464 819.873C73.4971 819.84 73.6165 819.725 73.6558 819.576C73.7641 819.157 73.926 818.769 74.1352 818.424C74.217 818.29 74.2154 818.122 74.1312 817.99L73.5139 817.022L74.4198 816.11L75.3866 816.727C75.5165 816.809 75.6792 816.812 75.8115 816.737C76.2019 816.513 76.5923 816.353 76.9723 816.262C77.1254 816.225 77.244 816.104 77.2777 815.951L77.5246 814.827H78.8049L79.0582 815.952C79.0927 816.105 79.2105 816.224 79.362 816.261C79.7428 816.355 80.1284 816.514 80.5052 816.735C80.6374 816.813 80.8018 816.808 80.9325 816.728L81.9073 816.11L82.8139 817.022L82.1967 817.99C82.1125 818.122 82.1109 818.29 82.1927 818.424C82.4011 818.767 82.5622 819.155 82.6713 819.576C82.7105 819.725 82.83 819.841 82.9807 819.873L84.1046 820.12L84.1046 821.407Z" fill="#2A44E2"/>
<path d="M78.1636 817.583C76.412 817.583 74.9874 819.008 74.9874 820.759C74.9874 822.516 76.412 823.944 78.1636 823.944C79.92 823.944 81.3486 822.516 81.3486 820.759C81.3486 819.008 79.92 817.583 78.1636 817.583ZM78.1636 823.123C76.8649 823.123 75.8083 822.063 75.8083 820.759C75.8083 819.46 76.8649 818.404 78.1636 818.404C79.4671 818.404 80.5277 819.46 80.5277 820.759C80.5277 822.063 79.4671 823.123 78.1636 823.123ZM87.0139 854.425H83.2212C82.9944 854.425 82.8108 854.608 82.8108 854.835C82.8108 855.062 82.9944 855.246 83.2212 855.246H87.0139C87.2408 855.246 87.4243 855.062 87.4243 854.835C87.4243 854.608 87.2407 854.425 87.0139 854.425ZM81.1409 854.425H79.8735C79.6467 854.425 79.4631 854.608 79.4631 854.835C79.4631 855.062 79.6467 855.246 79.8735 855.246H81.1409C81.3678 855.246 81.5514 855.062 81.5514 854.835C81.5514 854.608 81.3678 854.425 81.1409 854.425ZM41.2305 820.1C41.0036 820.1 40.8201 820.284 40.8201 820.511V830.021C40.8201 830.248 41.0036 830.431 41.2305 830.431C41.4574 830.431 41.641 830.248 41.641 830.021V820.511C41.641 820.284 41.4574 820.1 41.2305 820.1ZM41.2305 831.95C41.0036 831.95 40.8201 832.134 40.8201 832.361V835.062C40.8201 835.288 41.0036 835.472 41.2305 835.472C41.4574 835.472 41.641 835.288 41.641 835.062V832.361C41.641 832.134 41.4574 831.95 41.2305 831.95Z" fill="#2A44E2"/>
</g>
<defs>
<clipPath id="clip0_107_63">
<rect width="55" height="62" fill="white" transform="translate(40 540)"/>
</clipPath>
<clipPath id="clip1_107_63">
<rect width="55" height="55" fill="white" transform="translate(40 804)"/>
</clipPath>
</defs>
</svg>
