<svg width="500" height="500" viewBox="0 0 500 500" fill="none" xmlns="http://www.w3.org/2000/svg">
<path d="M208.933 286.001C208.39 286.01 207.87 286.121 207.37 286.337C206.875 286.554 206.437 286.857 206.057 287.246C205.677 287.636 205.389 288.083 205.187 288.583C204.99 289.088 204.889 289.612 204.898 290.155V294.454C184.216 296.522 168.001 314.041 168.001 335.257C167.991 335.805 168.087 336.334 168.294 336.844C168.501 337.354 168.794 337.801 169.179 338.195C169.564 338.585 170.011 338.883 170.516 339.099C171.021 339.311 171.55 339.416 172.098 339.416C172.646 339.416 173.175 339.311 173.68 339.099C174.19 338.883 174.632 338.585 175.017 338.195C175.406 337.801 175.699 337.354 175.901 336.844C176.108 336.334 176.204 335.805 176.2 335.257C176.2 330.679 179.821 327.058 184.399 327.058C188.977 327.058 192.598 330.679 192.598 335.257C192.593 335.776 192.679 336.276 192.862 336.762C193.05 337.248 193.314 337.681 193.66 338.065C194.011 338.45 194.415 338.758 194.882 338.988C195.348 339.214 195.839 339.354 196.353 339.397C196.488 339.407 196.627 339.412 196.762 339.412C197.305 339.402 197.825 339.291 198.325 339.075C198.825 338.859 199.262 338.561 199.642 338.171C200.017 337.781 200.306 337.334 200.508 336.829C200.71 336.324 200.806 335.8 200.796 335.257C200.796 330.679 204.422 327.058 209 327.058C213.578 327.058 217.199 330.679 217.199 335.257C217.19 335.805 217.291 336.334 217.493 336.844C217.699 337.354 217.993 337.801 218.377 338.195C218.762 338.585 219.209 338.883 219.714 339.099C220.224 339.311 220.748 339.416 221.296 339.416C221.849 339.416 222.373 339.311 222.883 339.099C223.388 338.883 223.83 338.585 224.22 338.195C224.605 337.801 224.898 337.354 225.105 336.844C225.307 336.334 225.408 335.805 225.398 335.257C225.398 330.679 229.019 327.058 233.597 327.058C238.175 327.058 241.796 330.679 241.796 335.257C241.791 335.805 241.887 336.334 242.094 336.844C242.296 337.354 242.594 337.801 242.979 338.195C243.364 338.585 243.811 338.883 244.316 339.099C244.821 339.311 245.35 339.416 245.898 339.416C246.446 339.416 246.975 339.311 247.48 339.099C247.985 338.883 248.432 338.585 248.817 338.195C249.202 337.801 249.5 337.354 249.702 336.844C249.908 336.334 250.005 335.805 250 335.257C250 314.041 233.78 296.522 213.097 294.454V290.155C213.107 289.602 213.006 289.069 212.794 288.554C212.588 288.044 212.289 287.588 211.895 287.198C211.501 286.809 211.049 286.506 210.534 286.299C210.025 286.092 209.491 285.991 208.933 286.001ZM208.933 331.102C208.39 331.107 207.87 331.222 207.37 331.434C206.875 331.65 206.437 331.953 206.057 332.343C205.677 332.732 205.389 333.179 205.187 333.684C204.99 334.189 204.889 334.713 204.898 335.257V355.757C204.898 358.075 203.114 359.854 200.796 359.854C198.483 359.854 196.699 358.075 196.699 355.757C196.704 355.208 196.608 354.68 196.401 354.17C196.199 353.66 195.906 353.208 195.516 352.819C195.132 352.429 194.689 352.126 194.18 351.914C193.675 351.703 193.146 351.597 192.598 351.597C192.049 351.597 191.52 351.703 191.015 351.914C190.511 352.126 190.063 352.429 189.679 352.819C189.294 353.208 189.001 353.66 188.794 354.17C188.587 354.68 188.491 355.208 188.5 355.757C188.5 362.499 194.055 368.058 200.796 368.058C207.543 368.058 213.097 362.499 213.097 355.757V335.257C213.107 334.704 213.006 334.17 212.794 333.656C212.588 333.141 212.289 332.689 211.895 332.299C211.501 331.905 211.049 331.607 210.534 331.4C210.025 331.193 209.491 331.092 208.933 331.102Z" fill="#0B43F2"/>
</svg>
