<svg width="59" height="58" viewBox="0 0 59 58" fill="none" xmlns="http://www.w3.org/2000/svg">
<rect x="-0.00012207" width="59" height="58" rx="29" fill="#0B43F2"/>
<path d="M39.6297 35.8433L36.8508 33.0653C38.0928 31.4397 38.774 29.4679 38.7743 27.3873C38.7743 24.8799 37.7975 22.5225 36.0239 20.7495C34.2505 18.9765 31.8929 18 29.3847 18C26.8768 18 24.5188 18.9765 22.7455 20.7495C19.0847 24.4099 19.0847 30.3654 22.7455 34.0251C24.5188 35.7984 26.8768 36.7749 29.3847 36.7749C31.4658 36.7746 33.4379 36.0936 35.0639 34.8518L37.8428 37.6299C38.0893 37.8766 38.4129 38 38.7362 38C39.0595 38 39.3832 37.8766 39.6297 37.6299C40.1233 37.1367 40.1233 36.3365 39.6297 35.8433ZM24.5324 32.2386C21.857 29.5637 21.8573 25.2112 24.5324 22.536C25.8285 21.2406 27.5518 20.5268 29.3847 20.5268C31.2179 20.5268 32.9409 21.2406 34.237 22.536C35.533 23.8318 36.2469 25.5548 36.2469 27.3873C36.2469 29.2201 35.533 30.9428 34.237 32.2386C32.9409 33.5344 31.2179 34.2481 29.3847 34.2481C27.5518 34.2481 25.8285 33.5344 24.5324 32.2386Z" fill="white"/>
</svg>
