<svg width="1067" height="505" viewBox="0 0 1067 505" fill="none" xmlns="http://www.w3.org/2000/svg">
<g filter="url(#filter0_d_71_50)">
<rect x="49" y="44" width="969" height="406" rx="80" fill="#FCFDFF"/>
</g>
<path d="M290 276C290 248.386 312.386 226 340 226H449C476.614 226 499 248.386 499 276V450H290V276Z" fill="#0B43F2" fill-opacity="0.11"/>
<path d="M88 159.507L94.4451 182.824L94.6834 183.686L95.485 184.083L114.494 193.5L95.485 202.917L94.6834 203.314L94.4451 204.176L88 227.493L81.5549 204.176L81.3166 203.314L80.515 202.917L61.5056 193.5L80.515 184.083L81.3166 183.686L81.5549 182.824L88 159.507Z" stroke="#0B43F2" stroke-opacity="0.13" stroke-width="4"/>
<path d="M123 70.1547L128.131 85.0874L128.429 85.9555L129.282 86.2954L143.597 92L129.282 97.7046L128.429 98.0445L128.131 98.9126L123 113.845L117.869 98.9126L117.571 98.0445L116.718 97.7046L102.403 92L116.718 86.2954L117.571 85.9555L117.869 85.0874L123 70.1547Z" stroke="#0B43F2" stroke-opacity="0.13" stroke-width="4"/>
<path d="M192 105.41L203.646 134.68L203.986 135.533L204.854 135.832L235.854 146.5L204.854 157.168L203.986 157.467L203.646 158.32L192 187.59L180.354 158.32L180.014 157.467L179.146 157.168L148.146 146.5L179.146 135.832L180.014 135.533L180.354 134.68L192 105.41Z" stroke="#0B43F2" stroke-opacity="0.13" stroke-width="4"/>
<g clip-path="url(#clip0_71_50)">
<path d="M5.84805 0.919338C5.84805 1.42716 5.4364 1.83868 4.9284 1.83868C4.41165 1.84743 4 1.42716 4 0.919338C4 0.411513 4.41165 0 4.91964 0C5.42764 0 5.84805 0.411513 5.84805 0.919338Z" fill="#0B43F2"/>
<path d="M17.3392 1.83868C17.8471 1.83868 18.2589 1.42707 18.2589 0.919338C18.2589 0.411602 17.8471 0 17.3392 0C16.8313 0 16.4196 0.411602 16.4196 0.919338C16.4196 1.42707 16.8313 1.83868 17.3392 1.83868Z" fill="#0B43F2"/>
<path d="M29.75 1.83868C30.2579 1.83868 30.6697 1.42707 30.6697 0.919338C30.6697 0.411602 30.2579 0 29.75 0C29.2421 0 28.8304 0.411602 28.8304 0.919338C28.8304 1.42707 29.2421 1.83868 29.75 1.83868Z" fill="#0B43F2"/>
<path d="M43.0893 0.919338C43.0893 1.42716 42.6776 1.83868 42.1696 1.83868C41.6616 1.83868 41.25 1.42716 41.25 0.919338C41.25 0.411513 41.6616 0 42.1696 0C42.6776 0 43.0893 0.411513 43.0893 0.919338Z" fill="#0B43F2"/>
<path d="M54.5804 1.83868C55.0883 1.83868 55.5001 1.42707 55.5001 0.919338C55.5001 0.411602 55.0883 0 54.5804 0C54.0725 0 53.6608 0.411602 53.6608 0.919338C53.6608 1.42707 54.0725 1.83868 54.5804 1.83868Z" fill="#0B43F2"/>
<path d="M67.9196 0.919338C67.9196 1.42716 67.508 1.83868 67 1.83868C66.492 1.83868 66.0804 1.42716 66.0804 0.919338C66.0804 0.411513 66.492 0 67 0C67.508 0 67.9196 0.411513 67.9196 0.919338Z" fill="#0B43F2"/>
<path d="M80.3392 0.919338C80.3392 1.42716 79.9276 1.83868 79.4196 1.83868C78.9116 1.83868 78.4999 1.42716 78.4999 0.919338C78.4912 0.411513 78.9028 0 79.4108 0C79.9276 0 80.3392 0.411513 80.3392 0.919338Z" fill="#0B43F2"/>
<path d="M91.8304 1.83868C92.3383 1.83868 92.75 1.42707 92.75 0.919338C92.75 0.411602 92.3383 0 91.8304 0C91.3225 0 90.9108 0.411602 90.9108 0.919338C90.9108 1.42707 91.3225 1.83868 91.8304 1.83868Z" fill="#0B43F2"/>
<path d="M104.25 1.83868C104.758 1.83868 105.17 1.42707 105.17 0.919338C105.17 0.411602 104.758 0 104.25 0C103.742 0 103.33 0.411602 103.33 0.919338C103.33 1.42707 103.742 1.83868 104.25 1.83868Z" fill="#0B43F2"/>
<path d="M117.58 0.919338C117.58 1.42716 117.169 1.83868 116.661 1.83868C116.153 1.83868 115.741 1.42716 115.741 0.919338C115.741 0.411513 116.153 0 116.661 0C117.169 0 117.58 0.411513 117.58 0.919338Z" fill="#0B43F2"/>
<path d="M129.08 1.83868C129.588 1.83868 130 1.42707 130 0.919338C130 0.411602 129.588 0 129.08 0C128.572 0 128.161 0.411602 128.161 0.919338C128.161 1.42707 128.572 1.83868 129.08 1.83868Z" fill="#0B43F2"/>
<path d="M5.84805 13.4399C5.84805 13.9477 5.4364 14.3592 4.9284 14.3592C4.41165 14.3592 4 13.9477 4 13.4399C4 12.932 4.41165 12.5205 4.91964 12.5205C5.42764 12.5118 5.84805 12.932 5.84805 13.4399Z" fill="#0B43F2"/>
<path d="M17.3392 14.3592C17.8471 14.3592 18.2589 13.9476 18.2589 13.4398C18.2589 12.9321 17.8471 12.5205 17.3392 12.5205C16.8313 12.5205 16.4196 12.9321 16.4196 13.4398C16.4196 13.9476 16.8313 14.3592 17.3392 14.3592Z" fill="#0B43F2"/>
<path d="M29.75 14.3592C30.2579 14.3592 30.6697 13.9476 30.6697 13.4398C30.6697 12.9321 30.2579 12.5205 29.75 12.5205C29.2421 12.5205 28.8304 12.9321 28.8304 13.4398C28.8304 13.9476 29.2421 14.3592 29.75 14.3592Z" fill="#0B43F2"/>
<path d="M43.0893 13.4399C43.0893 13.9477 42.6776 14.3592 42.1696 14.3592C41.6616 14.3592 41.25 13.9477 41.25 13.4399C41.25 12.932 41.6616 12.5205 42.1696 12.5205C42.6776 12.5118 43.0893 12.932 43.0893 13.4399Z" fill="#0B43F2"/>
<path d="M54.5804 14.3592C55.0883 14.3592 55.5001 13.9476 55.5001 13.4398C55.5001 12.9321 55.0883 12.5205 54.5804 12.5205C54.0725 12.5205 53.6608 12.9321 53.6608 13.4398C53.6608 13.9476 54.0725 14.3592 54.5804 14.3592Z" fill="#0B43F2"/>
<path d="M67.9196 13.4399C67.9196 13.9477 67.508 14.3592 67 14.3592C66.492 14.3592 66.0804 13.9477 66.0804 13.4399C66.0804 12.932 66.492 12.5205 67 12.5205C67.508 12.5118 67.9196 12.932 67.9196 13.4399Z" fill="#0B43F2"/>
<path d="M80.3392 13.4399C80.3392 13.9477 79.9276 14.3592 79.4196 14.3592C78.9116 14.3592 78.4999 13.9477 78.4999 13.4399C78.4999 12.932 78.9116 12.5205 79.4196 12.5205C79.9276 12.5118 80.3392 12.932 80.3392 13.4399Z" fill="#0B43F2"/>
<path d="M91.8304 14.3592C92.3383 14.3592 92.75 13.9476 92.75 13.4398C92.75 12.9321 92.3383 12.5205 91.8304 12.5205C91.3225 12.5205 90.9108 12.9321 90.9108 13.4398C90.9108 13.9476 91.3225 14.3592 91.8304 14.3592Z" fill="#0B43F2"/>
<path d="M104.25 14.3592C104.758 14.3592 105.17 13.9476 105.17 13.4398C105.17 12.9321 104.758 12.5205 104.25 12.5205C103.742 12.5205 103.33 12.9321 103.33 13.4398C103.33 13.9476 103.742 14.3592 104.25 14.3592Z" fill="#0B43F2"/>
<path d="M117.58 13.4399C117.58 13.9477 117.169 14.3592 116.661 14.3592C116.153 14.3592 115.741 13.9477 115.741 13.4399C115.741 12.932 116.153 12.5205 116.661 12.5205C117.169 12.5118 117.58 12.932 117.58 13.4399Z" fill="#0B43F2"/>
<path d="M129.08 14.3592C129.588 14.3592 130 13.9476 130 13.4398C130 12.9321 129.588 12.5205 129.08 12.5205C128.572 12.5205 128.161 12.9321 128.161 13.4398C128.161 13.9476 128.572 14.3592 129.08 14.3592Z" fill="#0B43F2"/>
<path d="M5.84805 25.9516C5.84805 26.4594 5.4364 26.871 4.9284 26.871C4.41165 26.871 4 26.4594 4 25.9516C4 25.4438 4.41165 25.0323 4.91964 25.0323C5.42764 25.0323 5.84805 25.4438 5.84805 25.9516Z" fill="#0B43F2"/>
<path d="M17.3392 26.871C17.8471 26.871 18.2589 26.4594 18.2589 25.9516C18.2589 25.4439 17.8471 25.0323 17.3392 25.0323C16.8313 25.0323 16.4196 25.4439 16.4196 25.9516C16.4196 26.4594 16.8313 26.871 17.3392 26.871Z" fill="#0B43F2"/>
<path d="M29.75 26.871C30.2579 26.871 30.6697 26.4594 30.6697 25.9516C30.6697 25.4439 30.2579 25.0323 29.75 25.0323C29.2421 25.0323 28.8304 25.4439 28.8304 25.9516C28.8304 26.4594 29.2421 26.871 29.75 26.871Z" fill="#0B43F2"/>
<path d="M43.0893 25.9516C43.0893 26.4594 42.6776 26.871 42.1696 26.871C41.6616 26.871 41.25 26.4594 41.25 25.9516C41.25 25.4438 41.6616 25.0323 42.1696 25.0323C42.6776 25.0323 43.0893 25.4438 43.0893 25.9516Z" fill="#0B43F2"/>
<path d="M54.5804 26.871C55.0883 26.871 55.5001 26.4594 55.5001 25.9516C55.5001 25.4439 55.0883 25.0323 54.5804 25.0323C54.0725 25.0323 53.6608 25.4439 53.6608 25.9516C53.6608 26.4594 54.0725 26.871 54.5804 26.871Z" fill="#0B43F2"/>
<path d="M67.9196 25.9516C67.9196 26.4594 67.508 26.871 67 26.871C66.492 26.871 66.0804 26.4594 66.0804 25.9516C66.0804 25.4438 66.492 25.0323 67 25.0323C67.508 25.0323 67.9196 25.4438 67.9196 25.9516Z" fill="#0B43F2"/>
<path d="M80.3392 25.9516C80.3392 26.4594 79.9276 26.871 79.4196 26.871C78.9116 26.871 78.4999 26.4594 78.4999 25.9516C78.4999 25.4438 78.9116 25.0323 79.4196 25.0323C79.9276 25.0323 80.3392 25.4438 80.3392 25.9516Z" fill="#0B43F2"/>
<path d="M91.8304 26.871C92.3383 26.871 92.75 26.4594 92.75 25.9516C92.75 25.4439 92.3383 25.0323 91.8304 25.0323C91.3225 25.0323 90.9108 25.4439 90.9108 25.9516C90.9108 26.4594 91.3225 26.871 91.8304 26.871Z" fill="#0B43F2"/>
<path d="M104.25 26.871C104.758 26.871 105.17 26.4594 105.17 25.9516C105.17 25.4439 104.758 25.0323 104.25 25.0323C103.742 25.0323 103.33 25.4439 103.33 25.9516C103.33 26.4594 103.742 26.871 104.25 26.871Z" fill="#0B43F2"/>
<path d="M117.58 25.9516C117.58 26.4594 117.169 26.871 116.661 26.871C116.153 26.871 115.741 26.4594 115.741 25.9516C115.741 25.4438 116.153 25.0323 116.661 25.0323C117.169 25.0323 117.58 25.4438 117.58 25.9516Z" fill="#0B43F2"/>
<path d="M129.08 26.871C129.588 26.871 130 26.4594 130 25.9516C130 25.4439 129.588 25.0323 129.08 25.0323C128.572 25.0323 128.161 25.4439 128.161 25.9516C128.161 26.4594 128.572 26.871 129.08 26.871Z" fill="#0B43F2"/>
<path d="M5.84805 38.4721C5.84805 38.9799 5.4364 39.3914 4.9284 39.3914C4.41165 39.3914 4 38.9799 4 38.4721C4 37.9643 4.41165 37.5527 4.91964 37.5527C5.42764 37.544 5.84805 37.9555 5.84805 38.4721Z" fill="#0B43F2"/>
<path d="M17.3392 39.3915C17.8471 39.3915 18.2589 38.9799 18.2589 38.4721C18.2589 37.9644 17.8471 37.5528 17.3392 37.5528C16.8313 37.5528 16.4196 37.9644 16.4196 38.4721C16.4196 38.9799 16.8313 39.3915 17.3392 39.3915Z" fill="#0B43F2"/>
<path d="M29.75 39.3915C30.2579 39.3915 30.6697 38.9799 30.6697 38.4721C30.6697 37.9644 30.2579 37.5528 29.75 37.5528C29.2421 37.5528 28.8304 37.9644 28.8304 38.4721C28.8304 38.9799 29.2421 39.3915 29.75 39.3915Z" fill="#0B43F2"/>
<path d="M43.0893 38.4721C43.0893 38.9799 42.6776 39.3914 42.1696 39.3914C41.6616 39.3914 41.25 38.9799 41.25 38.4721C41.25 37.9643 41.6616 37.5527 42.1696 37.5527C42.6776 37.544 43.0893 37.9555 43.0893 38.4721Z" fill="#0B43F2"/>
<path d="M54.5804 39.3915C55.0883 39.3915 55.5001 38.9799 55.5001 38.4721C55.5001 37.9644 55.0883 37.5528 54.5804 37.5528C54.0725 37.5528 53.6608 37.9644 53.6608 38.4721C53.6608 38.9799 54.0725 39.3915 54.5804 39.3915Z" fill="#0B43F2"/>
<path d="M67.9196 38.4721C67.9196 38.9799 67.508 39.3914 67 39.3914C66.492 39.3914 66.0804 38.9799 66.0804 38.4721C66.0804 37.9643 66.492 37.5527 67 37.5527C67.508 37.544 67.9196 37.9555 67.9196 38.4721Z" fill="#0B43F2"/>
<path d="M80.3392 38.4721C80.3392 38.9799 79.9276 39.3914 79.4196 39.3914C78.9116 39.3914 78.4999 38.9799 78.4999 38.4721C78.4999 37.9643 78.9116 37.5527 79.4196 37.5527C79.9276 37.544 80.3392 37.9555 80.3392 38.4721Z" fill="#0B43F2"/>
<path d="M91.8304 39.3915C92.3383 39.3915 92.75 38.9799 92.75 38.4721C92.75 37.9644 92.3383 37.5528 91.8304 37.5528C91.3225 37.5528 90.9108 37.9644 90.9108 38.4721C90.9108 38.9799 91.3225 39.3915 91.8304 39.3915Z" fill="#0B43F2"/>
<path d="M104.25 39.3915C104.758 39.3915 105.17 38.9799 105.17 38.4721C105.17 37.9644 104.758 37.5528 104.25 37.5528C103.742 37.5528 103.33 37.9644 103.33 38.4721C103.33 38.9799 103.742 39.3915 104.25 39.3915Z" fill="#0B43F2"/>
<path d="M117.58 38.4721C117.58 38.9799 117.169 39.3914 116.661 39.3914C116.153 39.3914 115.741 38.9799 115.741 38.4721C115.741 37.9643 116.153 37.5527 116.661 37.5527C117.169 37.544 117.58 37.9555 117.58 38.4721Z" fill="#0B43F2"/>
<path d="M129.08 39.3915C129.588 39.3915 130 38.9799 130 38.4721C130 37.9644 129.588 37.5528 129.08 37.5528C128.572 37.5528 128.161 37.9644 128.161 38.4721C128.161 38.9799 128.572 39.3915 129.08 39.3915Z" fill="#0B43F2"/>
<path d="M5.84805 50.9839C5.84805 51.4917 5.4364 51.9032 4.9284 51.9032C4.41165 51.9032 4 51.4917 4 50.9839C4 50.476 4.41165 50.0645 4.91964 50.0645C5.42764 50.0645 5.84805 50.476 5.84805 50.9839Z" fill="#0B43F2"/>
<path d="M17.3392 51.9032C17.8471 51.9032 18.2589 51.4916 18.2589 50.9839C18.2589 50.4761 17.8471 50.0645 17.3392 50.0645C16.8313 50.0645 16.4196 50.4761 16.4196 50.9839C16.4196 51.4916 16.8313 51.9032 17.3392 51.9032Z" fill="#0B43F2"/>
<path d="M29.75 51.9032C30.2579 51.9032 30.6697 51.4916 30.6697 50.9839C30.6697 50.4761 30.2579 50.0645 29.75 50.0645C29.2421 50.0645 28.8304 50.4761 28.8304 50.9839C28.8304 51.4916 29.2421 51.9032 29.75 51.9032Z" fill="#0B43F2"/>
<path d="M43.0893 50.9839C43.0893 51.4917 42.6776 51.9032 42.1696 51.9032C41.6616 51.9032 41.25 51.4917 41.25 50.9839C41.25 50.476 41.6616 50.0645 42.1696 50.0645C42.6776 50.0645 43.0893 50.476 43.0893 50.9839Z" fill="#0B43F2"/>
<path d="M54.5804 51.9032C55.0883 51.9032 55.5001 51.4916 55.5001 50.9839C55.5001 50.4761 55.0883 50.0645 54.5804 50.0645C54.0725 50.0645 53.6608 50.4761 53.6608 50.9839C53.6608 51.4916 54.0725 51.9032 54.5804 51.9032Z" fill="#0B43F2"/>
<path d="M67.9196 50.9839C67.9196 51.4917 67.508 51.9032 67 51.9032C66.492 51.9032 66.0804 51.4917 66.0804 50.9839C66.0804 50.476 66.492 50.0645 67 50.0645C67.508 50.0645 67.9196 50.476 67.9196 50.9839Z" fill="#0B43F2"/>
<path d="M80.3392 50.9839C80.3392 51.4917 79.9276 51.9032 79.4196 51.9032C78.9116 51.9032 78.4999 51.4917 78.4999 50.9839C78.4999 50.476 78.9116 50.0645 79.4196 50.0645C79.9276 50.0645 80.3392 50.476 80.3392 50.9839Z" fill="#0B43F2"/>
<path d="M91.8304 51.9032C92.3383 51.9032 92.75 51.4916 92.75 50.9839C92.75 50.4761 92.3383 50.0645 91.8304 50.0645C91.3225 50.0645 90.9108 50.4761 90.9108 50.9839C90.9108 51.4916 91.3225 51.9032 91.8304 51.9032Z" fill="#0B43F2"/>
<path d="M104.25 51.9032C104.758 51.9032 105.17 51.4916 105.17 50.9839C105.17 50.4761 104.758 50.0645 104.25 50.0645C103.742 50.0645 103.33 50.4761 103.33 50.9839C103.33 51.4916 103.742 51.9032 104.25 51.9032Z" fill="#0B43F2"/>
<path d="M117.58 50.9839C117.58 51.4917 117.169 51.9032 116.661 51.9032C116.153 51.9032 115.741 51.4917 115.741 50.9839C115.741 50.476 116.153 50.0645 116.661 50.0645C117.169 50.0645 117.58 50.476 117.58 50.9839Z" fill="#0B43F2"/>
<path d="M129.08 51.9032C129.588 51.9032 130 51.4916 130 50.9839C130 50.4761 129.588 50.0645 129.08 50.0645C128.572 50.0645 128.161 50.4761 128.161 50.9839C128.161 51.4916 128.572 51.9032 129.08 51.9032Z" fill="#0B43F2"/>
<path d="M5.84805 63.4956C5.84805 64.0035 5.4364 64.415 4.9284 64.415C4.41165 64.4237 4 64.0122 4 63.4956C4 62.9878 4.41165 62.5763 4.91964 62.5763C5.42764 62.5763 5.84805 62.9878 5.84805 63.4956Z" fill="#0B43F2"/>
<path d="M17.3392 64.415C17.8471 64.415 18.2589 64.0034 18.2589 63.4956C18.2589 62.9879 17.8471 62.5763 17.3392 62.5763C16.8313 62.5763 16.4196 62.9879 16.4196 63.4956C16.4196 64.0034 16.8313 64.415 17.3392 64.415Z" fill="#0B43F2"/>
<path d="M29.75 64.415C30.2579 64.415 30.6697 64.0034 30.6697 63.4956C30.6697 62.9879 30.2579 62.5763 29.75 62.5763C29.2421 62.5763 28.8304 62.9879 28.8304 63.4956C28.8304 64.0034 29.2421 64.415 29.75 64.415Z" fill="#0B43F2"/>
<path d="M43.0893 63.4956C43.0893 64.0035 42.6776 64.415 42.1696 64.415C41.6616 64.415 41.25 64.0035 41.25 63.4956C41.25 62.9878 41.6616 62.5763 42.1696 62.5763C42.6776 62.5763 43.0893 62.9878 43.0893 63.4956Z" fill="#0B43F2"/>
<path d="M54.5804 64.415C55.0883 64.415 55.5001 64.0034 55.5001 63.4956C55.5001 62.9879 55.0883 62.5763 54.5804 62.5763C54.0725 62.5763 53.6608 62.9879 53.6608 63.4956C53.6608 64.0034 54.0725 64.415 54.5804 64.415Z" fill="#0B43F2"/>
<path d="M67.9196 63.4956C67.9196 64.0035 67.508 64.415 67 64.415C66.492 64.415 66.0804 64.0035 66.0804 63.4956C66.0804 62.9878 66.492 62.5763 67 62.5763C67.508 62.5763 67.9196 62.9878 67.9196 63.4956Z" fill="#0B43F2"/>
<path d="M80.3392 63.4956C80.3392 64.0035 79.9276 64.415 79.4196 64.415C78.9116 64.415 78.4999 64.0035 78.4999 63.4956C78.4999 62.9878 78.9116 62.5763 79.4196 62.5763C79.9276 62.5763 80.3392 62.9878 80.3392 63.4956Z" fill="#0B43F2"/>
<path d="M91.8304 64.415C92.3383 64.415 92.75 64.0034 92.75 63.4956C92.75 62.9879 92.3383 62.5763 91.8304 62.5763C91.3225 62.5763 90.9108 62.9879 90.9108 63.4956C90.9108 64.0034 91.3225 64.415 91.8304 64.415Z" fill="#0B43F2"/>
<path d="M104.25 64.415C104.758 64.415 105.17 64.0034 105.17 63.4956C105.17 62.9879 104.758 62.5763 104.25 62.5763C103.742 62.5763 103.33 62.9879 103.33 63.4956C103.33 64.0034 103.742 64.415 104.25 64.415Z" fill="#0B43F2"/>
<path d="M117.58 63.4956C117.58 64.0035 117.169 64.415 116.661 64.415C116.153 64.415 115.741 64.0035 115.741 63.4956C115.741 62.9878 116.153 62.5763 116.661 62.5763C117.169 62.5763 117.58 62.9878 117.58 63.4956Z" fill="#0B43F2"/>
<path d="M129.08 64.415C129.588 64.415 130 64.0034 130 63.4956C130 62.9879 129.588 62.5763 129.08 62.5763C128.572 62.5763 128.161 62.9879 128.161 63.4956C128.161 64.0034 128.572 64.415 129.08 64.415Z" fill="#0B43F2"/>
<path d="M5.84805 76.0161C5.84805 76.524 5.4364 76.9355 4.9284 76.9355C4.41165 76.9355 4 76.524 4 76.0161C4 75.5083 4.41165 75.0968 4.91964 75.0968C5.42764 75.0968 5.84805 75.5083 5.84805 76.0161Z" fill="#0B43F2"/>
<path d="M17.3392 76.9355C17.8471 76.9355 18.2589 76.5239 18.2589 76.0161C18.2589 75.5084 17.8471 75.0968 17.3392 75.0968C16.8313 75.0968 16.4196 75.5084 16.4196 76.0161C16.4196 76.5239 16.8313 76.9355 17.3392 76.9355Z" fill="#0B43F2"/>
<path d="M29.75 76.9355C30.2579 76.9355 30.6697 76.5239 30.6697 76.0161C30.6697 75.5084 30.2579 75.0968 29.75 75.0968C29.2421 75.0968 28.8304 75.5084 28.8304 76.0161C28.8304 76.5239 29.2421 76.9355 29.75 76.9355Z" fill="#0B43F2"/>
<path d="M43.0893 76.0161C43.0893 76.524 42.6776 76.9355 42.1696 76.9355C41.6616 76.9355 41.25 76.524 41.25 76.0161C41.25 75.5083 41.6616 75.0968 42.1696 75.0968C42.6776 75.0968 43.0893 75.5083 43.0893 76.0161Z" fill="#0B43F2"/>
<path d="M54.5804 76.9355C55.0883 76.9355 55.5001 76.5239 55.5001 76.0161C55.5001 75.5084 55.0883 75.0968 54.5804 75.0968C54.0725 75.0968 53.6608 75.5084 53.6608 76.0161C53.6608 76.5239 54.0725 76.9355 54.5804 76.9355Z" fill="#0B43F2"/>
<path d="M67.9196 76.0161C67.9196 76.524 67.508 76.9355 67 76.9355C66.492 76.9355 66.0804 76.524 66.0804 76.0161C66.0804 75.5083 66.492 75.0968 67 75.0968C67.508 75.0968 67.9196 75.5083 67.9196 76.0161Z" fill="#0B43F2"/>
<path d="M80.3392 76.0161C80.3392 76.524 79.9276 76.9355 79.4196 76.9355C78.9116 76.9355 78.4999 76.524 78.4999 76.0161C78.4999 75.5083 78.9116 75.0968 79.4196 75.0968C79.9276 75.0968 80.3392 75.5083 80.3392 76.0161Z" fill="#0B43F2"/>
<path d="M91.8304 76.9355C92.3383 76.9355 92.75 76.5239 92.75 76.0161C92.75 75.5084 92.3383 75.0968 91.8304 75.0968C91.3225 75.0968 90.9108 75.5084 90.9108 76.0161C90.9108 76.5239 91.3225 76.9355 91.8304 76.9355Z" fill="#0B43F2"/>
<path d="M104.25 76.9355C104.758 76.9355 105.17 76.5239 105.17 76.0161C105.17 75.5084 104.758 75.0968 104.25 75.0968C103.742 75.0968 103.33 75.5084 103.33 76.0161C103.33 76.5239 103.742 76.9355 104.25 76.9355Z" fill="#0B43F2"/>
<path d="M117.58 76.0161C117.58 76.524 117.169 76.9355 116.661 76.9355C116.153 76.9355 115.741 76.524 115.741 76.0161C115.741 75.5083 116.153 75.0968 116.661 75.0968C117.169 75.0968 117.58 75.5083 117.58 76.0161Z" fill="#0B43F2"/>
<path d="M129.08 76.9355C129.588 76.9355 130 76.5239 130 76.0161C130 75.5084 129.588 75.0968 129.08 75.0968C128.572 75.0968 128.161 75.5084 128.161 76.0161C128.161 76.5239 128.572 76.9355 129.08 76.9355Z" fill="#0B43F2"/>
<path d="M5.84805 88.5279C5.84805 89.0357 5.4364 89.4472 4.9284 89.4472C4.42041 89.4472 4.00876 89.0357 4.00876 88.5279C4.00876 88.02 4.42041 87.6085 4.9284 87.6085C5.42764 87.6085 5.84805 88.02 5.84805 88.5279Z" fill="#0B43F2"/>
<path d="M17.3392 89.4472C17.8471 89.4472 18.2589 89.0356 18.2589 88.5279C18.2589 88.0201 17.8471 87.6085 17.3392 87.6085C16.8313 87.6085 16.4196 88.0201 16.4196 88.5279C16.4196 89.0356 16.8313 89.4472 17.3392 89.4472Z" fill="#0B43F2"/>
<path d="M29.75 89.4472C30.2579 89.4472 30.6697 89.0356 30.6697 88.5279C30.6697 88.0201 30.2579 87.6085 29.75 87.6085C29.2421 87.6085 28.8304 88.0201 28.8304 88.5279C28.8304 89.0356 29.2421 89.4472 29.75 89.4472Z" fill="#0B43F2"/>
<path d="M43.0893 88.5279C43.0893 89.0357 42.6776 89.4472 42.1696 89.4472C41.6616 89.4472 41.25 89.0357 41.25 88.5279C41.25 88.02 41.6616 87.6085 42.1696 87.6085C42.6776 87.6085 43.0893 88.02 43.0893 88.5279Z" fill="#0B43F2"/>
<path d="M54.5804 89.4472C55.0883 89.4472 55.5001 89.0356 55.5001 88.5279C55.5001 88.0201 55.0883 87.6085 54.5804 87.6085C54.0725 87.6085 53.6608 88.0201 53.6608 88.5279C53.6608 89.0356 54.0725 89.4472 54.5804 89.4472Z" fill="#0B43F2"/>
<path d="M67.9196 88.5279C67.9196 89.0357 67.508 89.4472 67 89.4472C66.492 89.4472 66.0804 89.0357 66.0804 88.5279C66.0804 88.02 66.492 87.6085 67 87.6085C67.508 87.6085 67.9196 88.02 67.9196 88.5279Z" fill="#0B43F2"/>
<path d="M80.3392 88.5279C80.3392 89.0357 79.9276 89.4472 79.4196 89.4472C78.9116 89.4472 78.4999 89.0357 78.4999 88.5279C78.4999 88.02 78.9116 87.6085 79.4196 87.6085C79.9276 87.6085 80.3392 88.02 80.3392 88.5279Z" fill="#0B43F2"/>
<path d="M91.8304 89.4472C92.3383 89.4472 92.75 89.0356 92.75 88.5279C92.75 88.0201 92.3383 87.6085 91.8304 87.6085C91.3225 87.6085 90.9108 88.0201 90.9108 88.5279C90.9108 89.0356 91.3225 89.4472 91.8304 89.4472Z" fill="#0B43F2"/>
<path d="M104.25 89.4472C104.758 89.4472 105.17 89.0356 105.17 88.5279C105.17 88.0201 104.758 87.6085 104.25 87.6085C103.742 87.6085 103.33 88.0201 103.33 88.5279C103.33 89.0356 103.742 89.4472 104.25 89.4472Z" fill="#0B43F2"/>
<path d="M117.58 88.5279C117.58 89.0357 117.169 89.4472 116.661 89.4472C116.153 89.4472 115.741 89.0357 115.741 88.5279C115.741 88.02 116.153 87.6085 116.661 87.6085C117.169 87.6085 117.58 88.02 117.58 88.5279Z" fill="#0B43F2"/>
<path d="M129.08 89.4472C129.588 89.4472 130 89.0356 130 88.5279C130 88.0201 129.588 87.6085 129.08 87.6085C128.572 87.6085 128.161 88.0201 128.161 88.5279C128.161 89.0356 128.572 89.4472 129.08 89.4472Z" fill="#0B43F2"/>
<path d="M5.84805 101.048C5.84805 101.556 5.4364 101.968 4.9284 101.968C4.42041 101.968 4.00876 101.556 4.00876 101.048C4.00876 100.541 4.42041 100.129 4.9284 100.129C5.42764 100.12 5.84805 100.541 5.84805 101.048Z" fill="#0B43F2"/>
<path d="M17.3392 101.968C17.8471 101.968 18.2589 101.556 18.2589 101.048C18.2589 100.541 17.8471 100.129 17.3392 100.129C16.8313 100.129 16.4196 100.541 16.4196 101.048C16.4196 101.556 16.8313 101.968 17.3392 101.968Z" fill="#0B43F2"/>
<path d="M29.75 101.968C30.2579 101.968 30.6697 101.556 30.6697 101.048C30.6697 100.541 30.2579 100.129 29.75 100.129C29.2421 100.129 28.8304 100.541 28.8304 101.048C28.8304 101.556 29.2421 101.968 29.75 101.968Z" fill="#0B43F2"/>
<path d="M43.0893 101.048C43.0893 101.556 42.6776 101.968 42.1696 101.968C41.6616 101.968 41.25 101.556 41.25 101.048C41.25 100.541 41.6616 100.129 42.1696 100.129C42.6776 100.12 43.0893 100.541 43.0893 101.048Z" fill="#0B43F2"/>
<path d="M54.5804 101.968C55.0883 101.968 55.5001 101.556 55.5001 101.048C55.5001 100.541 55.0883 100.129 54.5804 100.129C54.0725 100.129 53.6608 100.541 53.6608 101.048C53.6608 101.556 54.0725 101.968 54.5804 101.968Z" fill="#0B43F2"/>
<path d="M67.9196 101.048C67.9196 101.556 67.508 101.968 67 101.968C66.492 101.968 66.0804 101.556 66.0804 101.048C66.0804 100.541 66.492 100.129 67 100.129C67.508 100.12 67.9196 100.541 67.9196 101.048Z" fill="#0B43F2"/>
<path d="M80.3392 101.048C80.3392 101.556 79.9276 101.968 79.4196 101.968C78.9116 101.968 78.4999 101.556 78.4999 101.048C78.4999 100.541 78.9116 100.129 79.4196 100.129C79.9276 100.12 80.3392 100.541 80.3392 101.048Z" fill="#0B43F2"/>
<path d="M91.8304 101.968C92.3383 101.968 92.75 101.556 92.75 101.048C92.75 100.541 92.3383 100.129 91.8304 100.129C91.3225 100.129 90.9108 100.541 90.9108 101.048C90.9108 101.556 91.3225 101.968 91.8304 101.968Z" fill="#0B43F2"/>
<path d="M104.25 101.968C104.758 101.968 105.17 101.556 105.17 101.048C105.17 100.541 104.758 100.129 104.25 100.129C103.742 100.129 103.33 100.541 103.33 101.048C103.33 101.556 103.742 101.968 104.25 101.968Z" fill="#0B43F2"/>
<path d="M117.58 101.048C117.58 101.556 117.169 101.968 116.661 101.968C116.153 101.968 115.741 101.556 115.741 101.048C115.741 100.541 116.153 100.129 116.661 100.129C117.169 100.12 117.58 100.541 117.58 101.048Z" fill="#0B43F2"/>
<path d="M129.08 101.968C129.588 101.968 130 101.556 130 101.048C130 100.541 129.588 100.129 129.08 100.129C128.572 100.129 128.161 100.541 128.161 101.048C128.161 101.556 128.572 101.968 129.08 101.968Z" fill="#0B43F2"/>
<path d="M5.84805 113.56C5.84805 114.068 5.4364 114.479 4.9284 114.479C4.42041 114.479 4.00876 114.068 4.00876 113.56C4.00876 113.052 4.42041 112.641 4.9284 112.641C5.42764 112.641 5.84805 113.052 5.84805 113.56Z" fill="#0B43F2"/>
<path d="M17.3392 114.479C17.8471 114.479 18.2589 114.068 18.2589 113.56C18.2589 113.052 17.8471 112.641 17.3392 112.641C16.8313 112.641 16.4196 113.052 16.4196 113.56C16.4196 114.068 16.8313 114.479 17.3392 114.479Z" fill="#0B43F2"/>
<path d="M29.75 114.479C30.2579 114.479 30.6697 114.068 30.6697 113.56C30.6697 113.052 30.2579 112.641 29.75 112.641C29.2421 112.641 28.8304 113.052 28.8304 113.56C28.8304 114.068 29.2421 114.479 29.75 114.479Z" fill="#0B43F2"/>
<path d="M43.0893 113.56C43.0893 114.068 42.6776 114.479 42.1696 114.479C41.6616 114.479 41.25 114.068 41.25 113.56C41.25 113.052 41.6616 112.641 42.1696 112.641C42.6776 112.641 43.0893 113.052 43.0893 113.56Z" fill="#0B43F2"/>
<path d="M54.5804 114.479C55.0883 114.479 55.5001 114.068 55.5001 113.56C55.5001 113.052 55.0883 112.641 54.5804 112.641C54.0725 112.641 53.6608 113.052 53.6608 113.56C53.6608 114.068 54.0725 114.479 54.5804 114.479Z" fill="#0B43F2"/>
<path d="M67.9196 113.56C67.9196 114.068 67.508 114.479 67 114.479C66.492 114.479 66.0804 114.068 66.0804 113.56C66.0804 113.052 66.492 112.641 67 112.641C67.508 112.641 67.9196 113.052 67.9196 113.56Z" fill="#0B43F2"/>
<path d="M80.3392 113.56C80.3392 114.068 79.9276 114.479 79.4196 114.479C78.9116 114.479 78.4999 114.068 78.4999 113.56C78.4999 113.052 78.9116 112.641 79.4196 112.641C79.9276 112.641 80.3392 113.052 80.3392 113.56Z" fill="#0B43F2"/>
<path d="M91.8304 114.479C92.3383 114.479 92.75 114.068 92.75 113.56C92.75 113.052 92.3383 112.641 91.8304 112.641C91.3225 112.641 90.9108 113.052 90.9108 113.56C90.9108 114.068 91.3225 114.479 91.8304 114.479Z" fill="#0B43F2"/>
<path d="M104.25 114.479C104.758 114.479 105.17 114.068 105.17 113.56C105.17 113.052 104.758 112.641 104.25 112.641C103.742 112.641 103.33 113.052 103.33 113.56C103.33 114.068 103.742 114.479 104.25 114.479Z" fill="#0B43F2"/>
<path d="M117.58 113.56C117.58 114.068 117.169 114.479 116.661 114.479C116.153 114.479 115.741 114.068 115.741 113.56C115.741 113.052 116.153 112.641 116.661 112.641C117.169 112.641 117.58 113.052 117.58 113.56Z" fill="#0B43F2"/>
<path d="M129.08 114.479C129.588 114.479 130 114.068 130 113.56C130 113.052 129.588 112.641 129.08 112.641C128.572 112.641 128.161 113.052 128.161 113.56C128.161 114.068 128.572 114.479 129.08 114.479Z" fill="#0B43F2"/>
<path d="M5.84805 126.081C5.84805 126.588 5.4364 127 4.9284 127C4.41165 127 4 126.588 4 126.081C4 125.573 4.41165 125.161 4.91964 125.161C5.42764 125.153 5.84805 125.564 5.84805 126.081Z" fill="#0B43F2"/>
<path d="M17.3392 127C17.8471 127 18.2589 126.588 18.2589 126.081C18.2589 125.573 17.8471 125.161 17.3392 125.161C16.8313 125.161 16.4196 125.573 16.4196 126.081C16.4196 126.588 16.8313 127 17.3392 127Z" fill="#0B43F2"/>
<path d="M29.75 127C30.2579 127 30.6697 126.588 30.6697 126.081C30.6697 125.573 30.2579 125.161 29.75 125.161C29.2421 125.161 28.8304 125.573 28.8304 126.081C28.8304 126.588 29.2421 127 29.75 127Z" fill="#0B43F2"/>
<path d="M43.0893 126.081C43.0893 126.588 42.6776 127 42.1696 127C41.6616 127 41.25 126.588 41.25 126.081C41.25 125.573 41.6616 125.161 42.1696 125.161C42.6776 125.153 43.0893 125.564 43.0893 126.081Z" fill="#0B43F2"/>
<path d="M54.5804 127C55.0883 127 55.5001 126.588 55.5001 126.081C55.5001 125.573 55.0883 125.161 54.5804 125.161C54.0725 125.161 53.6608 125.573 53.6608 126.081C53.6608 126.588 54.0725 127 54.5804 127Z" fill="#0B43F2"/>
<path d="M67.9196 126.081C67.9196 126.588 67.508 127 67 127C66.492 127 66.0804 126.588 66.0804 126.081C66.0804 125.573 66.492 125.161 67 125.161C67.508 125.153 67.9196 125.564 67.9196 126.081Z" fill="#0B43F2"/>
<path d="M80.3392 126.081C80.3392 126.588 79.9276 127 79.4196 127C78.9116 127 78.4999 126.588 78.4999 126.081C78.4999 125.573 78.9116 125.161 79.4196 125.161C79.9276 125.153 80.3392 125.564 80.3392 126.081Z" fill="#0B43F2"/>
<path d="M91.8304 127C92.3383 127 92.75 126.588 92.75 126.081C92.75 125.573 92.3383 125.161 91.8304 125.161C91.3225 125.161 90.9108 125.573 90.9108 126.081C90.9108 126.588 91.3225 127 91.8304 127Z" fill="#0B43F2"/>
<path d="M104.25 127C104.758 127 105.17 126.588 105.17 126.081C105.17 125.573 104.758 125.161 104.25 125.161C103.742 125.161 103.33 125.573 103.33 126.081C103.33 126.588 103.742 127 104.25 127Z" fill="#0B43F2"/>
<path d="M117.58 126.081C117.58 126.588 117.169 127 116.661 127C116.153 127 115.741 126.588 115.741 126.081C115.741 125.573 116.153 125.161 116.661 125.161C117.169 125.153 117.58 125.564 117.58 126.081Z" fill="#0B43F2"/>
<path d="M129.08 127C129.588 127 130 126.588 130 126.081C130 125.573 129.588 125.161 129.08 125.161C128.572 125.161 128.161 125.573 128.161 126.081C128.161 126.588 128.572 127 129.08 127Z" fill="#0B43F2"/>
</g>
<defs>
<filter id="filter0_d_71_50" x="0.599998" y="1.6" width="1065.8" height="502.8" filterUnits="userSpaceOnUse" color-interpolation-filters="sRGB">
<feFlood flood-opacity="0" result="BackgroundImageFix"/>
<feColorMatrix in="SourceAlpha" type="matrix" values="0 0 0 0 0 0 0 0 0 0 0 0 0 0 0 0 0 0 127 0" result="hardAlpha"/>
<feOffset dy="6"/>
<feGaussianBlur stdDeviation="24.2"/>
<feComposite in2="hardAlpha" operator="out"/>
<feColorMatrix type="matrix" values="0 0 0 0 0 0 0 0 0 0 0 0 0 0 0 0 0 0 0.1 0"/>
<feBlend mode="normal" in2="BackgroundImageFix" result="effect1_dropShadow_71_50"/>
<feBlend mode="normal" in="SourceGraphic" in2="effect1_dropShadow_71_50" result="shape"/>
</filter>
<clipPath id="clip0_71_50">
<rect width="126" height="127" fill="white" transform="translate(4)"/>
</clipPath>
</defs>
</svg>
