<svg width="20" height="20" viewBox="0 0 20 20" fill="none" xmlns="http://www.w3.org/2000/svg">
<path d="M19.6297 17.8433L16.8508 15.0653C18.0928 13.4397 18.774 11.4679 18.7743 9.38731C18.7743 6.87993 17.7975 4.52246 16.0239 2.74951C14.2505 0.976546 11.8929 0 9.38468 0C6.87678 0 4.51882 0.976546 2.74549 2.74951C-0.915325 6.40986 -0.915325 12.3654 2.74549 16.0251C4.51882 17.7984 6.87678 18.7749 9.38468 18.7749C11.4658 18.7746 13.4379 18.0936 15.0639 16.8518L17.8428 19.6299C18.0893 19.8766 18.4129 20 18.7362 20C19.0595 20 19.3832 19.8766 19.6297 19.6299C20.1233 19.1367 20.1233 18.3365 19.6297 17.8433ZM4.53239 14.2386C1.85697 11.5637 1.85728 7.21121 4.53239 4.53604C5.82845 3.24055 7.55181 2.52681 9.38468 2.52681C11.2179 2.52681 12.9409 3.24055 14.237 4.53604C15.533 5.83183 16.2469 7.55482 16.2469 9.38731C16.2469 11.2201 15.533 12.9428 14.237 14.2386C12.9409 15.5344 11.2179 16.2481 9.38468 16.2481C7.55181 16.2481 5.82845 15.5344 4.53239 14.2386Z" fill="white"/>
</svg>
