<svg width="797" height="62" viewBox="0 0 797 62" fill="none" xmlns="http://www.w3.org/2000/svg">
<path d="M1.2955 32.048C1.2955 32.4036 1.00654 32.6926 0.65097 32.6926C0.29433 32.6926 0.00643921 32.4036 0.00643921 32.048V15.3536C0.00643921 14.4448 0.377045 13.6198 0.97431 13.0225C1.57265 12.4253 2.39765 12.0536 3.30537 12.0536C4.21093 12.0536 5.03593 12.4253 5.63534 13.0236L5.63642 13.0225C6.23369 13.6198 6.60536 14.4448 6.60536 15.3536V24.5715C6.60536 24.9281 6.3164 25.216 5.96083 25.216C5.60419 25.216 5.3163 24.9281 5.3163 24.5715V15.3536C5.3163 14.8014 5.08964 14.2987 4.72441 13.9335L4.72656 13.9324L4.72441 13.9313C4.3624 13.5682 3.85966 13.3427 3.30537 13.3427C2.75322 13.3427 2.25048 13.5693 1.88632 13.9335C1.52216 14.2987 1.2955 14.8014 1.2955 15.3536V32.048Z" fill="#474748"/>
<path d="M0.00858881 32.0201C0.0236279 31.6656 0.323335 31.3906 0.677827 31.4057C1.03232 31.4207 1.30732 31.7204 1.29228 32.0749C1.29228 32.0878 1.04306 36.5533 3.86826 38.6416L3.88867 38.6567C7.73007 41.7375 7.59365 44.943 7.43252 48.7178C7.40996 49.2549 7.38632 49.8038 7.37558 50.3936H17.6097C17.6279 49.7007 17.6687 48.837 17.7139 47.8745C17.9437 43.0309 18.2961 35.5865 16.3432 33.6336C16.0918 33.3812 16.0918 32.973 16.3432 32.7216C16.5945 32.4702 17.0027 32.4702 17.2541 32.7216C19.6077 35.0741 19.2382 42.8654 18.9986 47.9358C18.9395 49.1668 18.8901 50.2314 18.8901 51.0381C18.8901 51.3937 18.6012 51.6826 18.2456 51.6826H6.72568C6.37011 51.6826 6.08115 51.3937 6.08115 51.0381C6.08115 50.2647 6.11552 49.4536 6.14882 48.6684C6.29492 45.2427 6.41845 42.3337 3.083 39.6589C-0.279302 37.1528 0.00751459 32.0341 0.00858881 32.0201Z" fill="#474748"/>
<path d="M13.6104 36.5866C13.8628 36.839 13.8628 37.2472 13.6104 37.4986C13.359 37.75 12.9508 37.75 12.6994 37.4986L4.58262 29.3818L4.58155 29.3807C4.56866 29.3678 4.55684 29.355 4.54503 29.341C3.92735 28.7029 3.61905 27.8747 3.61905 27.0486H3.6212C3.6212 26.2032 3.94131 25.3589 4.58155 24.7176L4.5837 24.7165L4.58155 24.7154H4.58262C4.59444 24.7025 4.6084 24.6896 4.6213 24.6789C5.25723 24.0623 6.08653 23.754 6.91475 23.754V23.7518C7.76016 23.7518 8.60665 24.073 9.24795 24.7154L17.2541 32.7216C17.5065 32.9729 17.5065 33.3811 17.2541 33.6336C17.0027 33.8849 16.5945 33.8849 16.3432 33.6336L8.33702 25.6263C7.946 25.2364 7.43145 25.0409 6.91475 25.0409V25.0387C6.41309 25.0387 5.90928 25.2246 5.52149 25.5963C5.5129 25.607 5.50323 25.6167 5.49356 25.6263L5.49249 25.6253C5.10147 26.0174 4.90596 26.533 4.90596 27.0486H4.90811C4.90811 27.5535 5.09288 28.0562 5.46348 28.4408C5.47315 28.4505 5.48389 28.4601 5.49356 28.4698L13.6104 36.5866ZM5.70518 53.9019H19.2661V51.6826H5.70518V53.9019ZM19.9107 55.191H5.06065C4.70401 55.191 4.41612 54.902 4.41612 54.5465V51.0381C4.41612 50.6814 4.70401 50.3935 5.06065 50.3935H19.9107C20.2662 50.3935 20.5552 50.6814 20.5552 51.0381V54.5465C20.5552 54.902 20.2662 55.191 19.9107 55.191ZM54.9936 32.048C54.9936 32.4036 54.7057 32.6926 54.349 32.6926C53.9935 32.6926 53.7045 32.4036 53.7045 32.048V15.3536C53.7045 14.8014 53.4778 14.2987 53.1137 13.9335C52.7495 13.5693 52.2468 13.3427 51.6946 13.3427C51.1403 13.3427 50.6376 13.5682 50.2756 13.9313L50.2734 13.9324L50.2756 13.9335C49.9104 14.2987 49.6837 14.8014 49.6837 15.3536V24.5715C49.6837 24.9281 49.3958 25.216 49.0392 25.216C48.6836 25.216 48.3946 24.9281 48.3946 24.5715V15.3536C48.3946 14.4448 48.7663 13.6198 49.3636 13.0225L49.3647 13.0236C49.9641 12.4253 50.7891 12.0536 51.6946 12.0536C52.6024 12.0536 53.4273 12.4253 54.0257 13.0225C54.623 13.6198 54.9936 14.4448 54.9936 15.3536V32.048Z" fill="#474748"/>
<path d="M53.7077 32.0749C53.6927 31.7204 53.9677 31.4207 54.3222 31.4057C54.6767 31.3906 54.9764 31.6656 54.9914 32.0201C54.9925 32.0341 55.2793 37.1528 51.917 39.6589C48.5815 42.3337 48.7051 45.2427 48.8512 48.6684C48.8845 49.4536 48.9188 50.2647 48.9188 51.0381C48.9188 51.3937 48.6299 51.6826 48.2743 51.6826H36.7544C36.3988 51.6826 36.1099 51.3937 36.1099 51.0381C36.1099 50.2314 36.0604 49.1668 36.0014 47.9358C35.7618 42.8654 35.3923 35.0741 37.7459 32.7216C37.9973 32.4702 38.4055 32.4702 38.6568 32.7216C38.9082 32.973 38.9082 33.3812 38.6568 33.6336C36.7039 35.5865 37.0562 43.0309 37.2861 47.8745C37.3312 48.837 37.3721 49.7007 37.3903 50.3936H47.6244C47.6137 49.8038 47.59 49.2549 47.5675 48.7178C47.4063 44.943 47.2699 41.7375 51.1113 38.6567L51.1317 38.6416C53.9569 36.5533 53.7077 32.0878 53.7077 32.0749Z" fill="#474748"/>
<path d="M42.3006 37.4986C42.0492 37.75 41.641 37.75 41.3896 37.4986C41.1372 37.2472 41.1372 36.839 41.3896 36.5866L49.5064 28.4698C49.5161 28.4601 49.5269 28.4505 49.5365 28.4408C49.9071 28.0562 50.0919 27.5535 50.0919 27.0486H50.094C50.094 26.533 49.8985 26.0174 49.5075 25.6253L49.5064 25.6263C49.4968 25.6167 49.4871 25.607 49.4785 25.5963C49.0907 25.2246 48.5869 25.0387 48.0853 25.0387V25.0409C47.5686 25.0409 47.054 25.2364 46.663 25.6263L38.6568 33.6336C38.4055 33.8849 37.9973 33.8849 37.7459 33.6336C37.4935 33.3811 37.4935 32.9729 37.7459 32.7216L45.7521 24.7154C46.3934 24.073 47.2398 23.7518 48.0853 23.7518V23.754C48.9135 23.754 49.7428 24.0623 50.3787 24.6789C50.3916 24.6896 50.4056 24.7025 50.4174 24.7154H50.4185L50.4163 24.7165L50.4185 24.7176C51.0587 25.3589 51.3788 26.2032 51.3788 27.0486H51.381C51.381 27.8747 51.0727 28.7029 50.455 29.341C50.4432 29.355 50.4313 29.3678 50.4185 29.3807L50.4174 29.3818L42.3006 37.4986ZM49.9394 55.191H35.0894C34.7338 55.191 34.4448 54.902 34.4448 54.5465V51.0381C34.4448 50.6814 34.7338 50.3935 35.0894 50.3935H49.9394C50.296 50.3935 50.5839 50.6814 50.5839 51.0381V54.5465C50.5839 54.902 50.296 55.191 49.9394 55.191ZM35.7339 53.9019H49.2948V51.6826H35.7339V53.9019Z" fill="#474748"/>
<path d="M27.5 8.75788C28.4485 7.27869 29.4379 6.13035 30.6378 5.30749C32.0934 4.30847 33.825 3.80896 36.1163 3.80896C38.6515 3.80896 40.9535 4.69626 42.6261 6.12927C44.3255 7.58591 45.3772 9.60437 45.3772 11.8387C45.3772 15.7102 43.1578 19.5366 39.831 23.3393C36.5675 27.0701 32.2427 30.7761 27.9179 34.4833C27.6719 34.6938 27.3131 34.6863 27.0768 34.479C22.7541 30.774 18.4314 27.0679 15.169 23.3393C11.8411 19.5366 9.62285 15.7102 9.62285 11.8387C9.62285 9.60437 10.6745 7.58591 12.3739 6.12927C14.0465 4.69626 16.3485 3.80896 18.8837 3.80896C23.1129 3.80896 25.3902 5.45896 27.5 8.75788ZM31.3629 6.3699C30.1071 7.23035 29.0888 8.54626 28.0597 10.3101C28.0049 10.4057 27.9243 10.4895 27.8223 10.5486C27.515 10.7269 27.1219 10.6217 26.9436 10.3144C24.9144 6.83718 22.897 5.09802 18.8837 5.09802C16.6633 5.09802 14.6566 5.86609 13.2097 7.10574C11.7906 8.32283 10.9119 9.99646 10.9119 11.8387C10.9119 15.3525 13.0023 18.9114 16.1358 22.4939C19.2307 26.0302 23.3492 29.5891 27.5 33.148C31.6508 29.5891 35.7693 26.0302 38.8642 22.4939C41.9977 18.9114 44.0881 15.3525 44.0881 11.8387C44.0881 9.99646 43.2094 8.32283 41.7903 7.10574C40.3434 5.86609 38.3367 5.09802 36.1163 5.09802C34.1 5.09802 32.5993 5.52234 31.3629 6.3699Z" fill="#0B43F2"/>
<path d="M27.5 11.986C28.1424 11.986 28.7257 12.2481 29.1478 12.6702C29.5711 13.0924 29.8332 13.6768 29.8332 14.3192V17.8512H33.3652C34.0076 17.8512 34.5909 18.1133 35.0131 18.5355C35.4353 18.9576 35.6984 19.542 35.6984 20.1833C35.6984 20.8257 35.4353 21.4101 35.0131 21.8323C34.5909 22.2544 34.0076 22.5165 33.3652 22.5165H29.8332V26.0486C29.8332 26.6909 29.5711 27.2753 29.1478 27.6975C28.7257 28.1197 28.1424 28.3818 27.5 28.3818C26.8576 28.3818 26.2743 28.1197 25.8521 27.6975C25.4289 27.2753 25.1668 26.6909 25.1668 26.0486V22.5165H21.6348C20.9924 22.5165 20.4091 22.2544 19.9869 21.8323C19.5647 21.4101 19.3016 20.8257 19.3016 20.1833C19.3016 19.542 19.5647 18.9576 19.9869 18.5355C20.4091 18.1133 20.9924 17.8512 21.6348 17.8512H25.1668V14.3192C25.1668 13.6768 25.4289 13.0924 25.8521 12.6702C26.2743 12.2481 26.8576 11.986 27.5 11.986ZM28.2369 13.5823C28.0478 13.3921 27.7868 13.275 27.5 13.275C27.2132 13.275 26.9521 13.3921 26.7631 13.5823C26.574 13.7713 26.4559 14.0323 26.4559 14.3192V18.4957C26.4559 18.8513 26.1669 19.1403 25.8113 19.1403H21.6348C21.349 19.1403 21.088 19.2573 20.8978 19.4475C20.7088 19.6365 20.5906 19.8976 20.5906 20.1833C20.5906 20.4701 20.7088 20.7312 20.8978 20.9202C21.088 21.1104 21.349 21.2275 21.6348 21.2275H25.8113C26.1669 21.2275 26.4559 21.5164 26.4559 21.872V26.0486C26.4559 26.3354 26.574 26.5964 26.7631 26.7855C26.9521 26.9756 27.2132 27.0927 27.5 27.0927C27.7868 27.0927 28.0478 26.9756 28.2369 26.7855C28.426 26.5964 28.5441 26.3354 28.5441 26.0486V21.872C28.5441 21.5164 28.8331 21.2275 29.1887 21.2275H33.3652C33.651 21.2275 33.912 21.1104 34.1021 20.9202C34.2912 20.7312 34.4094 20.4701 34.4094 20.1833C34.4094 19.8976 34.2912 19.6365 34.1021 19.4475C33.912 19.2573 33.651 19.1403 33.3652 19.1403H29.1887C28.8331 19.1403 28.5441 18.8513 28.5441 18.4957V14.3192C28.5441 14.0323 28.426 13.7713 28.2369 13.5823Z" fill="#0B43F2"/>
<path d="M629.354 57C629.25 57 629.146 56.9851 629.045 56.9576C608.99 51.3396 606.55 39.0093 606.456 38.4879C606.443 38.4207 606.437 38.3524 606.438 38.284V4.34096C606.438 4.11437 606.505 3.89288 606.631 3.7045C606.757 3.51611 606.936 3.36929 607.145 3.28258C607.354 3.19587 607.585 3.17318 607.807 3.21738C608.029 3.26157 608.233 3.37066 608.393 3.53086C609.641 4.78787 611.126 5.78498 612.762 6.4645C614.398 7.14402 616.152 7.49248 617.923 7.48971C622.019 7.48971 625.853 5.64492 628.442 2.42742C628.879 1.88544 629.83 1.88544 630.266 2.42742C632.856 5.64492 636.689 7.48971 640.784 7.48971C644.376 7.48971 647.761 6.08263 650.315 3.53086C650.475 3.37066 650.679 3.26157 650.902 3.21738C651.124 3.17318 651.354 3.19587 651.563 3.28258C651.773 3.36929 651.952 3.51611 652.078 3.7045C652.204 3.89288 652.271 4.11437 652.271 4.34096V38.284C652.271 38.3527 652.265 38.4203 652.253 38.4879C652.159 39.0093 649.717 51.3396 629.662 56.9576C629.562 56.9855 629.458 56.9998 629.354 57ZM608.729 38.1637C608.845 38.6564 609.553 41.2906 612.114 44.4165C614.717 47.5916 619.815 51.9297 629.354 54.6637C638.892 51.9286 643.99 47.5904 646.593 44.4165C649.151 41.2975 649.862 38.6655 649.979 38.1625V6.81711C647.304 8.75139 644.085 9.78906 640.784 9.78138C638.644 9.78335 636.527 9.34815 634.561 8.50247C632.596 7.65679 630.824 6.41846 629.354 4.86346C627.884 6.4185 626.112 7.65683 624.146 8.50251C622.181 9.34819 620.063 9.78337 617.923 9.78138C614.583 9.78138 611.396 8.74325 608.729 6.81711V38.1637Z" fill="#0B43F2"/>
<path d="M633.938 42.1042H624.771V32.9375H615.604V23.7709H624.771V14.6042H633.938V23.7709H643.104V32.9375H633.938V42.1042ZM627.063 39.8125H631.646V30.6459H640.813V26.0625H631.646V16.8959H627.063V26.0625H617.896V30.6459H627.063V39.8125Z" fill="#0B43F2"/>
<path d="M768.354 57C768.25 57 768.146 56.9851 768.045 56.9576C747.99 51.3396 745.55 39.0093 745.456 38.4879C745.443 38.4207 745.437 38.3524 745.438 38.284V4.34096C745.438 4.11437 745.505 3.89288 745.631 3.7045C745.757 3.51611 745.936 3.36929 746.145 3.28258C746.354 3.19587 746.585 3.17318 746.807 3.21738C747.029 3.26157 747.233 3.37066 747.393 3.53086C748.641 4.78787 750.126 5.78498 751.762 6.4645C753.398 7.14402 755.152 7.49248 756.923 7.48971C761.019 7.48971 764.853 5.64492 767.442 2.42742C767.879 1.88544 768.83 1.88544 769.266 2.42742C771.856 5.64492 775.689 7.48971 779.784 7.48971C783.376 7.48971 786.761 6.08263 789.315 3.53086C789.475 3.37066 789.679 3.26157 789.902 3.21738C790.124 3.17318 790.354 3.19587 790.563 3.28258C790.773 3.36929 790.952 3.51611 791.078 3.7045C791.204 3.89288 791.271 4.11437 791.271 4.34096V38.284C791.271 38.3527 791.265 38.4203 791.253 38.4879C791.159 39.0093 788.717 51.3396 768.662 56.9576C768.562 56.9855 768.458 56.9998 768.354 57ZM747.729 38.1637C747.845 38.6564 748.553 41.2906 751.114 44.4165C753.717 47.5916 758.815 51.9297 768.354 54.6637C777.892 51.9286 782.99 47.5904 785.593 44.4165C788.151 41.2975 788.862 38.6655 788.979 38.1625V6.81711C786.304 8.75139 783.085 9.78906 779.784 9.78138C777.644 9.78335 775.527 9.34815 773.561 8.50247C771.596 7.65679 769.824 6.41846 768.354 4.86346C766.884 6.4185 765.112 7.65683 763.146 8.50251C761.181 9.34819 759.063 9.78337 756.923 9.78138C753.583 9.78138 750.396 8.74325 747.729 6.81711V38.1637Z" fill="#0B43F2"/>
<path d="M772.938 42.1042H763.771V32.9375H754.604V23.7709H763.771V14.6042H772.938V23.7709H782.104V32.9375H772.938V42.1042ZM766.063 39.8125H770.646V30.6459H779.813V26.0625H770.646V16.8959H766.063V26.0625H756.896V30.6459H766.063V39.8125Z" fill="#0B43F2"/>
<g clip-path="url(#clip0_71_52)">
<path d="M461.501 62.0001C461.34 62.0004 461.18 61.9728 461.03 61.9189C453.076 59.0916 446.235 54.103 441.41 47.6107C436.584 41.1184 434.001 33.4272 434 25.5508V6.79584C434 6.52212 434.101 6.2565 434.285 6.04231C434.469 5.82811 434.727 5.67798 435.015 5.61639L461.206 0.0315473C461.399 -0.0108413 461.601 -0.0108413 461.794 0.0315473L487.985 5.61639C488.273 5.67798 488.531 5.82811 488.715 6.04231C488.899 6.2565 489 6.52212 489 6.79584V25.5508C488.999 33.4272 486.416 41.1184 481.59 47.6107C476.765 54.103 469.924 59.0916 461.97 61.9189C461.82 61.9727 461.661 62.0002 461.501 62.0001ZM436.621 7.75975V25.5508C436.621 40.4078 446.597 53.9873 461.501 59.491C476.403 53.9849 486.379 40.4054 486.379 25.5508V7.75975L461.501 2.45342L436.621 7.75975Z" fill="#0B43F2"/>
<path d="M461.501 53.8722C461.297 53.8724 461.097 53.8289 460.915 53.7451C455.25 51.1265 450.485 47.1021 447.155 42.1225C443.824 37.1429 442.06 31.4048 442.058 25.5508V12.7209C442.058 12.4472 442.159 12.1816 442.343 11.9674C442.528 11.7532 442.785 11.6031 443.074 11.5415L461.206 7.67373C461.399 7.63252 461.601 7.63252 461.794 7.67373L479.926 11.5415C480.215 11.6031 480.472 11.7532 480.657 11.9674C480.841 12.1816 480.942 12.4472 480.942 12.7209V25.5508C480.951 31.9232 478.861 38.1471 474.95 43.3952C471.678 47.7963 467.252 51.3582 462.085 53.7475C461.903 53.8303 461.703 53.8729 461.501 53.8722ZM444.679 13.6836V25.5508C444.68 30.8515 446.247 36.0513 449.212 40.5892C452.176 45.127 456.426 48.8305 461.501 51.3002C466.02 49.0976 469.893 45.9126 472.785 42.0196C476.395 37.176 478.324 31.432 478.317 25.5508V13.6836L461.501 10.0968L444.679 13.6836Z" fill="#0B43F2"/>
<path d="M458.651 37.2339C458.303 37.2338 457.97 37.1062 457.724 36.8791L452.026 31.614C451.78 31.3867 451.642 31.0786 451.642 30.7574C451.642 30.5983 451.676 30.4409 451.742 30.2939C451.808 30.147 451.905 30.0135 452.027 29.9011C452.148 29.7887 452.293 29.6995 452.452 29.6387C452.611 29.5779 452.781 29.5466 452.953 29.5466C453.301 29.5468 453.634 29.6745 453.88 29.9017L458.651 34.3107L469.12 24.6353C469.242 24.5228 469.386 24.4336 469.545 24.3726C469.704 24.3117 469.875 24.2803 470.047 24.2803C470.219 24.2802 470.389 24.3115 470.548 24.3723C470.707 24.4331 470.852 24.5223 470.974 24.6347C471.095 24.7471 471.192 24.8806 471.258 25.0276C471.324 25.1745 471.358 25.332 471.358 25.491C471.358 25.6501 471.324 25.8076 471.258 25.9546C471.192 26.1015 471.096 26.2351 470.974 26.3476L459.575 36.8827C459.329 37.1079 458.997 37.2342 458.651 37.2339Z" fill="#0B43F2"/>
</g>
<g clip-path="url(#clip1_71_52)">
<path d="M269.105 15.7664V42.0499H243.729V9.60315H262.339L269.105 15.7664Z" fill="white"/>
<path d="M269.105 15.7664H262.339V9.60315L269.105 15.7664Z" fill="white"/>
<path d="M289.303 34.8295V48.0247C289.303 49.0024 288.518 49.7879 287.54 49.7879H267.091C266.114 49.7879 265.32 49.0024 265.32 48.0247V34.8295C265.32 33.8517 266.114 33.0579 267.091 33.0579H287.54C288.518 33.0579 289.303 33.8517 289.303 34.8295Z" fill="white"/>
<path d="M289.306 39.8605H265.321V34.7994C265.321 33.8397 266.099 33.0618 267.059 33.0618H287.569C288.528 33.0618 289.306 33.8397 289.306 34.7994V39.8605Z" fill="white"/>
<path d="M274.153 31.5366H271.01V33.0577H274.153V31.5366Z" fill="white"/>
<path d="M284.106 31.5366H280.964V33.0577H284.106V31.5366Z" fill="white"/>
<path d="M269.372 37.9216H272.557V40.972L270.96 42.5843L269.372 40.972V37.9216Z" fill="white"/>
<path d="M285.258 37.9216V40.972L283.663 42.5843L282.067 40.972V37.9216H285.258Z" fill="white"/>
<path d="M265.365 55.3307C264.179 55.2281 262.994 55.0446 261.843 54.7856C261.622 54.7311 261.403 54.8738 261.353 55.0951C261.303 55.3163 261.442 55.536 261.663 55.5857C262.85 55.8534 264.072 56.0434 265.295 56.1484C265.539 56.1647 265.72 55.9877 265.739 55.7749C265.758 55.5488 265.591 55.35 265.365 55.3307ZM258.925 53.9455C253.841 52.1554 249.473 48.8846 246.293 44.4875C246.159 44.304 245.902 44.2631 245.72 44.3954C245.536 44.5284 245.495 44.785 245.628 44.9685C248.906 49.5019 253.41 52.8737 258.653 54.7199C258.862 54.7945 259.1 54.686 259.176 54.469C259.252 54.2549 259.139 54.0208 258.925 53.9455ZM294.169 23.3519C292.237 14.4134 285.705 6.86664 277.12 3.6544C276.908 3.57584 276.671 3.68246 276.591 3.8957C276.512 4.10734 276.62 4.34383 276.833 4.42399C285.158 7.53843 291.493 14.8575 293.367 23.525C293.48 24.0578 294.285 23.8866 294.169 23.3519Z" fill="#2A44E2"/>
<path d="M267.634 5.15027C262.725 5.15027 258.165 6.64641 254.363 9.19222H250.45C253.453 6.59436 256.998 4.68196 260.819 3.65679C261.039 3.59746 261.168 3.3722 261.11 3.15335C261.051 2.9353 260.824 2.80864 260.607 2.86315C256.365 4.0016 252.447 6.19208 249.209 9.19222H243.729C243.502 9.19222 243.319 9.3758 243.319 9.60267V42.0497C243.319 42.2766 243.502 42.4601 243.729 42.4601H247.79C252.096 48.8333 259.383 53.034 267.634 53.034C271.705 53.034 275.534 51.9997 278.894 50.1985H287.54C288.738 50.1985 289.714 49.2229 289.714 48.0244V39.8763C289.714 39.8707 289.717 39.866 289.717 39.8604V38.3269C290.911 35.4826 291.572 32.3615 291.572 29.0885C291.572 15.8893 280.834 5.15027 267.634 5.15027ZM244.14 10.0131H261.929V15.7658C261.929 15.9927 262.112 16.1762 262.339 16.1762H268.694V32.6471H267.091C265.874 32.6471 264.911 33.6147 264.911 34.7995V34.8133C264.911 34.8187 264.909 34.8238 264.909 34.8292V38.3893H248.152V29.6777C248.152 29.4509 247.968 29.2673 247.741 29.2673C247.515 29.2673 247.331 29.4509 247.331 29.6777V38.7998C247.331 39.0266 247.515 39.2102 247.741 39.2102H264.909V41.6392H244.14V10.0131ZM268.045 15.3553H262.75V10.5318C262.839 10.6129 268.389 15.6691 268.045 15.3553ZM283.695 32.6471H281.374V31.9472C281.514 31.9472 283.842 31.9472 283.695 31.9472V32.6471ZM288.893 34.8292V39.4499H285.669V37.9212C285.669 37.6943 285.486 37.5107 285.259 37.5107H282.067C281.84 37.5107 281.656 37.6943 281.656 37.9212V39.4499H272.967V37.9212C272.967 37.6943 272.784 37.5107 272.557 37.5107H269.373C269.146 37.5107 268.962 37.6943 268.962 37.9212V39.4499H265.732V34.8133C265.741 34.0569 266.366 33.472 267.059 33.472H287.569C288.267 33.472 288.893 34.0649 288.893 34.8292ZM284.849 38.3316V40.8031L283.663 42.0008L282.477 40.8031V38.3316H284.849ZM272.146 38.3316V40.8031L270.961 42L269.783 40.8031V38.3316H272.146ZM282.123 31.1263H280.964C280.737 31.1263 280.553 31.3099 280.553 31.5368V32.6471H274.563V31.5368C274.563 31.3099 274.38 31.1263 274.153 31.1263H272.995V30.2493C272.995 29.4204 273.67 28.7454 274.5 28.7454H280.619C281.448 28.7454 282.123 29.4204 282.123 30.2493V31.1263ZM273.742 31.9472V32.6471H271.421V31.9472C271.507 31.9472 273.829 31.9472 273.742 31.9472ZM267.634 52.2131C259.866 52.2131 252.988 48.3554 248.794 42.4601H264.909V48.0244C264.909 49.2229 265.888 50.1985 267.091 50.1985H277.046C274.169 51.4885 270.986 52.2131 267.634 52.2131ZM287.54 49.3776H267.091C266.341 49.3776 265.73 48.7708 265.73 48.0244V40.2708H268.962V40.9715C268.962 41.0789 269.005 41.1823 269.08 41.2593L270.668 42.8722C270.745 42.9507 270.85 42.9948 270.96 42.9948C271.07 42.9948 271.176 42.9507 271.252 42.873L272.849 41.2601C272.925 41.1831 272.967 41.0797 272.967 40.9715V40.2708H281.656V40.9715C281.656 41.0797 281.699 41.1831 281.775 41.2601L283.371 42.873C283.448 42.9507 283.553 42.9948 283.663 42.9948C283.773 42.9948 283.878 42.9507 283.955 42.873L285.551 41.2601C285.627 41.1831 285.669 41.0797 285.669 40.9715V40.2708H288.893V48.0244C288.893 48.7708 288.286 49.3776 287.54 49.3776ZM287.54 32.6471H284.516V31.5368C284.516 31.3099 284.332 31.1263 284.105 31.1263H282.944V30.2493C282.944 28.9675 281.901 27.9245 280.619 27.9245H274.5C273.217 27.9245 272.174 28.9675 272.174 30.2493V31.1263H271.01C270.783 31.1263 270.6 31.3099 270.6 31.5368V32.6471H269.515V15.8454C269.621 15.327 268.727 15.0691 262.616 9.29884C262.552 9.24156 262.455 9.20747 262.381 9.19999C262.366 9.19853 262.354 9.19222 262.339 9.19222H255.907C259.349 7.15416 263.353 5.97117 267.634 5.97117C280.381 5.97117 290.751 16.3414 290.751 29.0885C290.751 31.4585 290.384 33.7419 289.717 35.8955V34.7995C289.717 33.6068 288.745 32.6471 287.54 32.6471Z" fill="#2A44E2"/>
<path d="M247.741 21.3077H258.846C259.073 21.3077 259.256 21.1241 259.256 20.8972C259.256 20.6703 259.073 20.4868 258.846 20.4868H247.741C247.515 20.4868 247.331 20.6703 247.331 20.8972C247.331 21.1241 247.515 21.3077 247.741 21.3077ZM261.969 21.3077H265.093C265.32 21.3077 265.503 21.1241 265.503 20.8972C265.503 20.6703 265.32 20.4868 265.093 20.4868H261.969C261.742 20.4868 261.559 20.6703 261.559 20.8972C261.559 21.1241 261.742 21.3077 261.969 21.3077ZM265.093 24.1247H253.652C253.425 24.1247 253.242 24.3083 253.242 24.5351C253.242 24.762 253.425 24.9456 253.652 24.9456H265.093C265.32 24.9456 265.503 24.762 265.503 24.5351C265.503 24.3083 265.32 24.1247 265.093 24.1247ZM247.741 24.9456H250.616C250.843 24.9456 251.026 24.762 251.026 24.5351C251.026 24.3083 250.843 24.1247 250.616 24.1247H247.741C247.515 24.1247 247.331 24.3083 247.331 24.5351C247.331 24.762 247.515 24.9456 247.741 24.9456ZM247.741 17.6689H250.616C250.843 17.6689 251.026 17.4854 251.026 17.2585C251.026 17.0316 250.843 16.8481 250.616 16.8481H247.741C247.515 16.8481 247.331 17.0316 247.331 17.2585C247.331 17.4854 247.515 17.6689 247.741 17.6689ZM252.482 17.2585C252.482 17.4854 252.666 17.6689 252.893 17.6689H259.86C260.087 17.6689 260.271 17.4854 260.271 17.2585C260.271 17.0316 260.087 16.8481 259.86 16.8481H252.893C252.666 16.8481 252.482 17.0316 252.482 17.2585ZM247.741 14.031H256.194C256.421 14.031 256.604 13.8475 256.604 13.6206C256.604 13.3937 256.421 13.2101 256.194 13.2101H247.741C247.515 13.2101 247.331 13.3937 247.331 13.6206C247.331 13.8475 247.515 14.031 247.741 14.031ZM261.707 29.7026L261.693 29.7045C261.691 29.7047 261.69 29.7048 261.689 29.705L259.676 29.972C259.452 30.0024 259.294 30.2085 259.323 30.4329C259.353 30.6582 259.561 30.8137 259.784 30.7864L260.853 30.6446L258.25 34.1983L254.793 30.0858C254.712 29.9896 254.598 29.9487 254.465 29.9391C254.339 29.9439 254.222 30.0056 254.147 30.1066L250.595 34.9559C250.461 35.1386 250.5 35.396 250.683 35.5298C250.864 35.663 251.121 35.6252 251.257 35.4417L254.501 31.0141L257.957 35.1266C258.038 35.2228 258.168 35.2749 258.285 35.2733C258.411 35.2685 258.528 35.2068 258.603 35.1058L261.487 31.1676L261.624 32.1942C261.696 32.7421 262.509 32.6207 262.437 32.0867L262.168 30.0561C262.137 29.8216 261.914 29.6774 261.707 29.7026ZM284.603 17.3892L283.397 17.1246C283.298 16.8056 283.173 16.5041 283.022 16.2228L283.683 15.1862C283.786 15.0243 283.763 14.8126 283.628 14.6764L282.257 13.2975C282.121 13.162 281.908 13.1388 281.746 13.2398L280.699 13.9036C280.405 13.748 280.105 13.6238 279.805 13.5324L279.534 12.3267C279.492 12.1391 279.325 12.006 279.134 12.006H277.194C277.002 12.006 276.834 12.1399 276.793 12.3283L276.529 13.5316C276.228 13.623 275.925 13.7472 275.623 13.9044L274.582 13.2406C274.417 13.1356 274.206 13.1612 274.07 13.2975L272.7 14.6764C272.565 14.8127 272.542 15.0243 272.645 15.1862L273.305 16.2228C273.155 16.5049 273.029 16.8064 272.93 17.1246L271.733 17.3892C271.544 17.4309 271.41 17.5976 271.41 17.79V19.7372C271.41 19.9296 271.544 20.0964 271.733 20.138L272.93 20.4026C273.028 20.716 273.152 21.0143 273.306 21.3037L272.645 22.3418C272.542 22.5037 272.565 22.7154 272.7 22.8516L274.07 24.2305C274.207 24.3668 274.419 24.3932 274.583 24.2866L275.627 23.618C275.909 23.7695 276.211 23.8946 276.529 23.9924L276.793 25.1989C276.834 25.3873 277.002 25.5212 277.194 25.5212H279.134C279.325 25.5212 279.492 25.3881 279.534 25.2005L279.806 23.9916C280.121 23.8938 280.42 23.7687 280.701 23.618L281.744 24.2866C281.907 24.39 282.12 24.3676 282.257 24.2305L283.628 22.8516C283.763 22.7154 283.786 22.5037 283.683 22.3418L283.021 21.3028C283.171 21.0191 283.296 20.7176 283.395 20.4034L284.603 20.138C284.792 20.0972 284.925 19.9296 284.925 19.7372V17.79C284.925 17.5976 284.792 17.4301 284.603 17.3892ZM284.105 19.4069L282.981 19.6539C282.831 19.6867 282.711 19.8014 282.672 19.9497C282.562 20.3649 282.4 20.7537 282.19 21.1064C282.111 21.2395 282.113 21.4063 282.197 21.5369L282.814 22.5061L281.908 23.4168L280.934 22.7931C280.803 22.7081 280.634 22.7065 280.5 22.7883C280.156 22.9975 279.77 23.1587 279.355 23.2677C279.206 23.3062 279.093 23.4248 279.058 23.5747L278.805 24.7003H277.525L277.278 23.5764C277.245 23.4256 277.129 23.3054 276.979 23.2669C276.561 23.1595 276.174 22.9984 275.828 22.7883C275.694 22.7066 275.526 22.709 275.394 22.7931L274.419 23.4168L273.514 22.5061L274.131 21.5369C274.215 21.4063 274.217 21.2395 274.138 21.1065C273.92 20.7417 273.762 20.3641 273.656 19.9513C273.617 19.8022 273.497 19.6875 273.346 19.6539L272.231 19.4078V18.1195L273.346 17.8734C273.497 17.8397 273.617 17.7251 273.656 17.576C273.764 17.1567 273.926 16.7687 274.135 16.424C274.217 16.2901 274.215 16.1218 274.131 15.9903L273.514 15.0219L274.42 14.1104L275.387 14.7269C275.516 14.8087 275.679 14.8119 275.811 14.7365C276.202 14.5129 276.592 14.3533 276.972 14.2619C277.125 14.2251 277.244 14.104 277.278 13.9509L277.525 12.827H278.805L279.058 13.9525C279.093 14.1048 279.21 14.2242 279.362 14.2611C279.743 14.3549 280.128 14.5136 280.505 14.7349C280.637 14.8127 280.802 14.8079 280.932 14.7277L281.907 14.1096L282.814 15.0219L282.197 15.9903C282.112 16.1218 282.111 16.2901 282.193 16.424C282.401 16.7671 282.562 17.1551 282.671 17.576C282.711 17.7251 282.83 17.8405 282.981 17.8734L284.105 18.1203L284.105 19.4069Z" fill="#2A44E2"/>
<path d="M278.164 15.583C276.412 15.583 274.987 17.0075 274.987 18.7592C274.987 20.5156 276.412 21.9441 278.164 21.9441C279.92 21.9441 281.348 20.5156 281.348 18.7592C281.348 17.0075 279.92 15.583 278.164 15.583ZM278.164 21.1233C276.865 21.1233 275.808 20.0627 275.808 18.7592C275.808 17.4605 276.865 16.4039 278.164 16.4039C279.467 16.4039 280.528 17.4605 280.528 18.7592C280.528 20.0627 279.467 21.1233 278.164 21.1233ZM287.014 52.4247H283.221C282.994 52.4247 282.811 52.6083 282.811 52.8351C282.811 53.062 282.994 53.2456 283.221 53.2456H287.014C287.241 53.2456 287.424 53.062 287.424 52.8351C287.424 52.6083 287.241 52.4247 287.014 52.4247ZM281.141 52.4247H279.873C279.647 52.4247 279.463 52.6083 279.463 52.8351C279.463 53.062 279.647 53.2456 279.873 53.2456H281.141C281.368 53.2456 281.551 53.062 281.551 52.8351C281.551 52.6083 281.368 52.4247 281.141 52.4247ZM241.23 18.1002C241.004 18.1002 240.82 18.2838 240.82 18.5107V28.0207C240.82 28.2476 241.004 28.4311 241.23 28.4311C241.457 28.4311 241.641 28.2476 241.641 28.0207V18.5107C241.641 18.2838 241.457 18.1002 241.23 18.1002ZM241.23 29.9503C241.004 29.9503 240.82 30.1339 240.82 30.3607V33.0615C240.82 33.2884 241.004 33.472 241.23 33.472C241.457 33.472 241.641 33.2884 241.641 33.0615V30.3607C241.641 30.1339 241.457 29.9503 241.23 29.9503Z" fill="#2A44E2"/>
</g>
<defs>
<clipPath id="clip0_71_52">
<rect width="55" height="62" fill="white" transform="translate(434)"/>
</clipPath>
<clipPath id="clip1_71_52">
<rect width="55" height="55" fill="white" transform="translate(240 2)"/>
</clipPath>
</defs>
</svg>
